<svg width="54" height="81" viewBox="0 0 54 81" fill="none" xmlns="http://www.w3.org/2000/svg">
<g clip-path="url(#clip0_960_14953)">
<path d="M33.0629 42.6028C26.4397 42.6028 21.0508 37.1913 21.0508 30.5396C21.0508 23.8882 26.4396 18.4766 33.0629 18.4766C35.1743 18.4766 37.2523 19.0348 39.0711 20.0908C39.6292 20.4153 39.8211 21.1336 39.4968 21.6948C39.1747 22.2553 38.4602 22.4475 37.8996 22.1235C36.437 21.274 34.7646 20.8245 33.0629 20.8245C27.7285 20.8245 23.3891 25.1825 23.3891 30.5395C23.3891 35.8967 27.7286 40.2545 33.0629 40.2545C38.3974 40.2545 42.7368 35.8965 42.7368 30.5395C42.7368 29.8506 42.6649 29.1614 42.5222 28.4913C42.3863 27.8572 42.7893 27.2336 43.4207 27.0977C44.0474 26.9606 44.6719 27.3659 44.8079 28.0006C44.9847 28.8312 45.0749 29.6854 45.0749 30.5395C45.0749 37.191 39.6863 42.6027 33.0628 42.6027L33.0629 42.6028Z" fill="#DF7E81"/>
<path d="M33.0635 36.069C32.7364 36.069 32.4236 35.9314 32.2016 35.6884L27.729 30.7882C27.293 30.31 27.3249 29.5677 27.801 29.1292C28.2772 28.6906 29.017 28.7244 29.4531 29.2015L32.9939 33.0813L42.4898 20.9219C42.8883 20.4124 43.6212 20.3229 44.1315 20.7224C44.6395 21.1224 44.7285 21.8609 44.33 22.3711L33.9836 35.6197C33.7714 35.8907 33.4517 36.0547 33.1085 36.068C33.0931 36.0685 33.0782 36.0692 33.0634 36.0692L33.0635 36.069Z" fill="#DF7E81"/>
<path d="M14.2521 9.39232H51.6624V5.87022C51.6624 3.92794 50.0891 2.34811 48.1552 2.34811H17.7594C15.8255 2.34811 14.2522 3.92794 14.2522 5.87022V9.39232H14.2521ZM52.8314 11.7403H13.0831C12.4374 11.7403 11.9141 11.2146 11.9141 10.5663V5.87022C11.9141 2.63356 14.5365 0 17.7594 0H48.1552C51.3781 0 54.0006 2.63356 54.0006 5.87022V10.5663C54.0006 11.2146 53.4776 11.7403 52.8315 11.7403H52.8314Z" fill="#7C7C7C"/>
<path d="M52.831 61.0511H17.7589C17.1132 61.0511 16.5898 60.5259 16.5898 59.8771C16.5898 59.2288 17.1132 58.7031 17.7589 58.7031H52.831C53.4772 58.7031 54 59.2288 54 59.8771C54 60.5261 53.4771 61.0511 52.831 61.0511Z" fill="#7C7C7C"/>
<path d="M35.2945 65.7466H30.6182C29.9725 65.7466 29.4492 65.2214 29.4492 64.5726C29.4492 63.9236 29.9725 63.3984 30.6182 63.3984H35.2945C35.9407 63.3984 36.4636 63.9237 36.4636 64.5726C36.4636 65.2215 35.9405 65.7466 35.2945 65.7466Z" fill="#7C7C7C"/>
<path d="M48.1552 70.44H17.7595C16.9701 70.44 16.2044 70.2852 15.4841 69.9791C14.8893 69.7269 14.6107 69.0379 14.862 68.4416C15.1136 67.8443 15.8003 67.5657 16.394 67.8167C16.8251 67.999 17.2845 68.0918 17.7595 68.0918H48.1552C50.0891 68.0918 51.6624 66.5119 51.6624 64.5698V10.5646C51.6624 9.91618 52.1854 9.39062 52.8314 9.39062C53.4776 9.39062 54.0005 9.91618 54.0005 10.5646V64.5698C54.0005 67.8064 51.378 70.44 48.1551 70.44H48.1552Z" fill="#7C7C7C"/>
<path d="M13.0831 48.1338C12.4374 48.1338 11.9141 47.6081 11.9141 46.9598V10.5646C11.9141 9.91631 12.4374 9.39062 13.0831 9.39062C13.7286 9.39062 14.2521 9.91631 14.2521 10.5646V46.9598C14.2521 47.6081 13.7286 48.1338 13.0831 48.1338Z" fill="#7C7C7C"/>
<path d="M14.6919 80.9993C14.4128 80.9993 14.1331 80.8996 13.9093 80.6965C13.4298 80.2631 13.3923 79.5202 13.8243 79.0388L17.1889 75.293C17.4719 74.9765 17.9036 74.8367 18.3186 74.9354C19.9762 75.3181 21.6751 74.9296 22.9846 73.8702L28.6563 68.6009C29.1296 68.1606 29.8693 68.1903 30.3083 68.6662C30.7467 69.1421 30.7176 69.8849 30.2433 70.3253L24.5109 75.6473C22.7688 77.0588 20.627 77.6459 18.4886 77.3524L15.5607 80.6119C15.3295 80.8688 15.0115 80.9995 14.6919 80.9995V80.9993Z" fill="#7C7C7C"/>
<path d="M1.16802 70.4144C0.941493 70.4144 0.713002 70.349 0.51173 70.2113C-0.0222009 69.8457 -0.160788 69.1164 0.202888 68.5798L0.991091 67.4161L0.637754 59.7991C0.484772 56.8272 0.294232 53.1291 2.53465 50.4841L11.9682 38.4106C12.3666 37.8999 13.1007 37.8111 13.6094 38.2117C14.1174 38.6118 14.2059 39.3502 13.8074 39.8598L4.34478 51.9694C2.67742 53.9397 2.83433 56.9884 2.97253 59.6775L3.34458 67.699C3.35596 67.9524 3.28569 68.2036 3.14317 68.4133L2.13551 69.9004C1.90951 70.234 1.5419 70.414 1.16789 70.414L1.16802 70.4144Z" fill="#7C7C7C"/>
<path d="M15.9702 69.6223C15.7601 69.6223 15.5472 69.565 15.3548 69.4458C14.8064 69.1041 14.6374 68.3808 14.9782 67.8292C18.225 62.5723 15.2641 55.6038 15.2339 55.5344C15.0706 55.1578 15.1147 54.7238 15.3499 54.3884L19.3034 48.7578C19.9308 47.8635 20.1162 46.3611 19.7999 44.7388C19.7098 44.2779 19.3919 43.9287 18.9493 43.8049C18.7484 43.7498 18.2326 43.6689 17.8048 44.1425L11.2293 51.1994C10.7881 51.6739 10.0495 51.6986 9.57751 51.2544C9.10587 50.8118 9.08127 50.0689 9.52254 49.5954L16.0843 42.5529C16.9594 41.5805 18.3013 41.1879 19.5749 41.5427C20.8688 41.9034 21.8342 42.9546 22.0945 44.287C22.5374 46.5594 22.2166 48.6821 21.2142 50.1107L17.6231 55.2253C18.36 57.2546 20.266 63.7222 16.9643 69.0672C16.7433 69.4249 16.3609 69.6222 15.9699 69.6222L15.9702 69.6223Z" fill="#7C7C7C"/>
</g>
<defs>
<clipPath id="clip0_960_14953">
<rect width="54" height="81" fill="white"/>
</clipPath>
</defs>
</svg>
