<svg width="70" height="72" viewBox="0 0 70 72" fill="none" xmlns="http://www.w3.org/2000/svg">
<g clip-path="url(#clip0_960_14970)">
<path d="M45.0287 69.8566H67.85V50.7496H45.0287V69.8566ZM68.925 72.0009H43.9538C43.3602 72.0009 42.8789 71.5212 42.8789 70.9286V49.6775C42.8789 49.0854 43.3602 48.6055 43.9538 48.6055H68.925C69.5186 48.6055 69.9999 49.0854 69.9999 49.6775V70.9286C69.9999 71.5212 69.5186 72.0009 68.925 72.0009Z" fill="#7C7C7C"/>
<path d="M45.4449 48.6048H67.4338L65.88 43.9566H46.9984L45.4447 48.6048H45.4449ZM68.925 50.7491H43.9538C43.6083 50.7491 43.2834 50.5837 43.0819 50.3035C42.8801 50.0241 42.8248 49.6649 42.9338 49.3378L45.204 42.5453C45.3504 42.1077 45.7609 41.8125 46.2238 41.8125H66.6548C67.1177 41.8125 67.5282 42.1077 67.6746 42.5453L69.9448 49.3378C70.0538 49.6649 69.9987 50.0241 69.7968 50.3035C69.5951 50.5837 69.2703 50.7491 68.9248 50.7491H68.925Z" fill="#7C7C7C"/>
<path d="M54.4859 53.7687H58.3894V50.7496H54.4859V53.7687ZM59.4644 55.9128H53.411C52.8173 55.9128 52.3359 55.4333 52.3359 54.8408V49.6775C52.3359 49.0854 52.8172 48.6055 53.411 48.6055H59.4644C60.0581 48.6055 60.5393 49.0854 60.5393 49.6775V54.8408C60.5393 55.4333 60.0581 55.9128 59.4644 55.9128Z" fill="#7C7C7C"/>
<path d="M37.9533 71.8328H12.3323C7.49231 71.8328 3.55469 67.9055 3.55469 63.0791V61.2888C3.55469 56.4621 7.49247 52.5347 12.3323 52.5347H31.3262C34.9805 52.5347 37.9533 49.5697 37.9533 45.9246V45.2075C37.9533 41.5622 34.9805 38.5973 31.3262 38.5973H22.9039C22.3103 38.5973 21.8288 38.1173 21.8288 37.5252C21.8288 36.9331 22.3103 36.4531 22.9039 36.4531H31.3262C36.1662 36.4531 40.1032 40.3805 40.1032 45.2075V45.9246C40.1032 50.7517 36.166 54.679 31.3262 54.679H12.3323C8.67753 54.679 5.70467 57.644 5.70467 61.2888V63.0791C5.70467 66.7236 8.67753 69.6885 12.3323 69.6885H37.9533C38.547 69.6885 39.0282 70.168 39.0282 70.7606C39.0282 71.3532 38.547 71.8328 37.9533 71.8328Z" fill="#DF7E81"/>
<path d="M6.22096 26.0054L16.0604 35.881L25.8998 26.0054C31.3309 20.5548 31.3309 11.6862 25.8998 6.23577C23.2717 3.59729 19.7771 2.14396 16.0609 2.14396C12.344 2.14396 8.84944 3.59681 6.22096 6.23577C0.790512 11.6862 0.790512 20.5547 6.22096 26.0054ZM16.0604 38.4739C15.7743 38.4739 15.4998 38.3597 15.2976 38.1578L4.69557 27.5173C-1.56519 21.2333 -1.56519 11.0085 4.69557 4.72396C7.73095 1.67772 11.7674 0 16.0604 0H16.0609C20.3544 0 24.3901 1.67772 27.425 4.72444C33.6863 11.008 33.6863 21.2333 27.425 27.5173L16.823 38.1578C16.6208 38.3597 16.3463 38.4739 16.0604 38.4739Z" fill="#7C7C7C"/>
<path d="M16.0598 10.5692C14.6284 10.5692 13.1971 11.1127 12.1073 12.1993C9.92812 14.373 9.92812 17.909 12.1073 20.0827C14.2867 22.2561 17.8322 22.2574 20.0117 20.0827C22.1908 17.9092 22.1908 14.373 20.0117 12.1993C18.922 11.1127 17.4906 10.5692 16.0598 10.5692ZM16.0598 23.856C14.0778 23.856 12.0958 23.1036 10.5874 21.5986C7.56983 18.589 7.56983 13.6928 10.5874 10.6834C13.6043 7.67371 18.5146 7.67274 21.5315 10.6834C24.5491 13.6928 24.5491 18.589 21.5315 21.5986C20.023 23.1036 18.0412 23.856 16.0596 23.856H16.0598Z" fill="#DF7E81"/>
</g>
<defs>
<clipPath id="clip0_960_14970">
<rect width="70" height="72" fill="white"/>
</clipPath>
</defs>
</svg>
