<svg width="70" height="70" viewBox="0 0 70 70" fill="none" xmlns="http://www.w3.org/2000/svg">
<g clip-path="url(#clip0_960_14816)">
<g clip-path="url(#clip1_960_14816)">
<path d="M15.1817 20.2891C15.7424 20.2891 16.1969 20.7436 16.1969 21.3042C16.1969 21.8649 15.7424 22.3194 15.1817 22.3194H14.1665C13.8862 22.3194 13.6324 22.4331 13.4487 22.6167C13.2651 22.8004 13.1514 23.0543 13.1514 23.3346C13.1514 23.6149 13.2651 23.8687 13.4487 24.0524C13.6324 24.236 13.8862 24.3497 14.1665 24.3497H15.1817C15.7424 24.3497 16.1969 24.8042 16.1969 25.3648C16.1969 25.9255 15.7424 26.38 15.1817 26.38H14.1665C13.3257 26.38 12.5643 26.0391 12.0132 25.4879C11.462 24.9368 11.1211 24.1754 11.1211 23.3346C11.1211 22.4937 11.4621 21.7322 12.0132 21.1812C12.5643 20.63 13.3257 20.2891 14.1665 20.2891H15.1817Z" fill="#DF7E81"/>
<path d="M39.5464 26.38C38.9858 26.38 38.5312 25.9255 38.5312 25.3648C38.5312 24.8042 38.9858 24.3497 39.5464 24.3497H40.5616C40.8419 24.3497 41.0959 24.236 41.2795 24.0524C41.4631 23.8689 41.5767 23.615 41.5767 23.3346C41.5767 23.0543 41.463 22.8003 41.2795 22.6167C41.0958 22.433 40.8419 22.3194 40.5616 22.3194H39.5464C38.9858 22.3194 38.5312 21.8649 38.5312 21.3042C38.5312 20.7436 38.9858 20.2891 39.5464 20.2891H40.5616C41.4025 20.2891 42.1638 20.63 42.715 21.1812C43.2661 21.7322 43.607 22.4937 43.607 23.3346C43.607 24.1754 43.266 24.9368 42.715 25.488C42.1638 26.0391 41.4025 26.38 40.5616 26.38H39.5464Z" fill="#DF7E81"/>
<path d="M36.5016 15.212C36.5016 15.7727 36.0471 16.2272 35.4864 16.2272C34.9257 16.2272 34.4712 15.7727 34.4712 15.212C34.4712 14.102 33.7819 13.1481 32.6626 12.4486C31.3434 11.624 29.4655 11.1514 27.3651 11.1514C25.2275 11.1514 23.3268 11.6387 22.0274 12.6133C20.9303 13.4361 20.259 14.6403 20.259 16.2272V19.2727C20.259 20.1135 19.918 20.8748 19.367 21.4261C18.8157 21.9771 18.0544 22.3181 17.2136 22.3181H15.1831C14.6225 22.3181 14.168 21.8636 14.168 21.3029C14.168 20.7423 14.6225 20.2878 15.1831 20.2878H17.2136C17.4938 20.2878 17.7478 20.174 17.9314 19.9905C18.115 19.8069 18.2287 19.5531 18.2287 19.2727V16.2272C18.2287 13.9428 19.21 12.1982 20.8139 10.9954C22.4798 9.74587 24.8086 9.12109 27.365 9.12109C29.8407 9.12109 32.0993 9.70639 33.7331 10.7276C35.4464 11.7985 36.5014 13.3401 36.5014 15.2121L36.5016 15.212Z" fill="#DF7E81"/>
<path d="M39.5445 20.2881C40.1052 20.2881 40.5597 20.7426 40.5597 21.3033C40.5597 21.8639 40.1052 22.3184 39.5445 22.3184H37.5142C36.6734 22.3184 35.912 21.9774 35.3608 21.4264C34.8097 20.8752 34.4688 20.1138 34.4688 19.273C34.4688 18.7123 34.9233 18.2578 35.4839 18.2578C36.0446 18.2578 36.4991 18.7123 36.4991 19.273C36.4991 19.5534 36.6128 19.8073 36.7963 19.9909C36.9799 20.1745 37.2338 20.2881 37.5142 20.2881H39.5445Z" fill="#DF7E81"/>
<path d="M40.5622 17.2419C40.5622 17.8026 40.1077 18.2571 39.547 18.2571C38.9864 18.2571 38.5318 17.8026 38.5318 17.2419V16.1971C38.5318 13.1137 37.2818 10.3218 35.2611 8.30109C33.2403 6.28033 30.4485 5.03034 27.3651 5.03034C24.2817 5.03034 21.4898 6.28041 19.4691 8.30109C17.4483 10.3218 16.1983 13.1137 16.1983 16.1971V21.3025C16.1983 21.8632 15.7438 22.3177 15.1831 22.3177C14.6225 22.3177 14.168 21.8632 14.168 21.3025V16.1971C14.168 12.5531 15.6454 9.25379 18.0335 6.86556C20.4218 4.47732 23.7211 3 27.3651 3C31.009 3 34.3084 4.4774 36.6966 6.86556C39.0849 9.25379 40.5622 12.5531 40.5622 16.1971V17.2419Z" fill="#DF7E81"/>
<path d="M28.2672 24.9059C28.5189 25.4052 28.3184 26.0143 27.8191 26.2661C27.3197 26.5178 26.7106 26.3173 26.4589 25.8179C26.4568 25.8138 25.7229 24.3467 24.3175 24.3467C23.2963 24.3467 22.9142 24.8802 22.5717 25.3582C22.3923 25.6088 22.2192 25.8503 21.9898 26.0796C21.4409 26.6286 20.8713 26.9478 20.3939 27.1336C20.685 28.0392 21.578 29.4225 24.3175 29.4225C25.0953 29.4225 26.9098 28.5169 26.9149 28.5144C27.4164 28.2669 28.0237 28.4729 28.2711 28.9744C28.5186 29.4759 28.3126 30.0832 27.8111 30.3306C27.8048 30.3337 25.5699 31.4528 24.3175 31.4528C18.784 31.4528 18.281 27.277 18.2352 26.5097C18.2295 26.4663 18.2266 26.422 18.2266 26.377C18.2266 25.8164 18.6811 25.3618 19.2417 25.3618C19.2435 25.3618 19.8366 25.3618 20.5543 24.6441C20.6698 24.5285 20.7938 24.3556 20.9221 24.1765C21.5519 23.2973 22.2547 22.3164 24.3175 22.3164C26.9728 22.3164 28.2636 24.8985 28.2672 24.9058V24.9059Z" fill="#DF7E81"/>
<path d="M28.2685 25.8179C28.0168 26.3172 27.4077 26.5178 26.9084 26.266C26.409 26.0142 26.2084 25.4051 26.4603 24.9058C26.4639 24.8985 27.7546 22.3164 30.4098 22.3164C32.4727 22.3164 33.1756 23.2974 33.8053 24.1766C33.9336 24.3557 34.0574 24.5285 34.1731 24.6441C34.8907 25.3618 35.484 25.3618 35.4857 25.3618C36.0463 25.3618 36.5009 25.8164 36.5009 26.377C36.5009 26.422 36.4979 26.4663 36.4922 26.5097C36.4464 27.277 35.9434 31.4528 30.4098 31.4528C29.1574 31.4528 26.9226 30.3337 26.9163 30.3306C26.4148 30.0831 26.2089 29.4759 26.4563 28.9744C26.7038 28.4729 27.311 28.267 27.8125 28.5144C27.8176 28.5169 29.632 29.4225 30.4098 29.4225C33.1494 29.4225 34.0424 28.0392 34.3335 27.1336C33.856 26.9478 33.2865 26.6286 32.7375 26.0796C32.5081 25.8502 32.3351 25.6088 32.1557 25.3583C31.8133 24.8802 31.4311 24.3467 30.4098 24.3467C29.0046 24.3467 28.2706 25.8138 28.2685 25.8179V25.8179Z" fill="#DF7E81"/>
<path d="M38.5318 25.3629C38.5318 24.8022 38.9864 24.3477 39.547 24.3477C40.1077 24.3477 40.5622 24.8022 40.5622 25.3629V31.532C40.5622 35.2027 39.0354 38.7917 36.5869 41.4286C34.2069 43.9917 30.9512 45.6661 27.3651 45.6661C26.8045 45.6661 26.3499 45.2116 26.3499 44.6509V43.6578C26.3287 43.6522 26.1934 43.6357 25.3347 43.6357C22.0972 43.6357 19.3317 42.3087 17.3559 40.1505C15.3448 37.9538 14.168 34.9029 14.168 31.532V25.3628C14.168 24.8022 14.6225 24.3477 15.1831 24.3477C15.7438 24.3477 16.1983 24.8022 16.1983 25.3628V31.532C16.1983 34.3942 17.1761 36.9613 18.8469 38.7864C20.4451 40.532 22.693 41.6054 25.3348 41.6054C27.6927 41.6054 28.2226 42.8176 28.3417 43.3576C28.3621 43.4292 28.3747 43.504 28.3788 43.5811C30.97 43.3019 33.3192 41.9704 35.1038 40.0485C37.2153 37.7746 38.5319 34.6858 38.5319 31.532V25.3628L38.5318 25.3629Z" fill="#DF7E81"/>
<path d="M17.4046 37.7993C17.9586 37.7205 18.4718 38.1057 18.5506 38.6598C18.6293 39.2139 18.2441 39.7271 17.69 39.8058L12.334 40.5713C10.1457 41.0093 8.22803 41.993 6.91311 43.5198C5.73741 44.8852 5.03034 46.7126 5.03034 49.0066V66.9851C5.03034 67.5458 4.57582 68.0003 4.01517 68.0003C3.45452 68.0003 3 67.5458 3 66.9851V49.0066C3 46.1955 3.89462 43.9232 5.38247 42.1954C7.00743 40.3083 9.32404 39.1036 11.9382 38.5805L11.9385 38.5819L11.9937 38.5725L17.4045 37.7992L17.4046 37.7993Z" fill="#DF7E81"/>
<path d="M12.1367 43.6363C12.1367 43.0756 12.5912 42.6211 13.1519 42.6211C13.7125 42.6211 14.1671 43.0756 14.1671 43.6363V63.9384C14.1671 64.4991 13.7125 64.9536 13.1519 64.9536C12.5912 64.9536 12.1367 64.4991 12.1367 63.9384V43.6363Z" fill="#DF7E81"/>
<path d="M27.3659 51.7575C27.9266 51.7575 28.3811 52.212 28.3811 52.7727C28.3811 53.3333 27.9266 53.7878 27.3659 53.7878C19.957 53.7878 16.6687 51.5972 16.6592 51.591C16.3621 51.3966 16.2006 51.0728 16.2003 50.7424H16.1992V43.6363C16.1992 43.0756 16.6537 42.6211 17.2144 42.6211C17.775 42.6211 18.2296 43.0756 18.2296 43.6363V50.1456C19.2684 50.6544 22.1244 51.7576 27.366 51.7576L27.3659 51.7575Z" fill="#DF7E81"/>
<path d="M34.4688 25.3628C34.4688 24.8022 34.9233 24.3477 35.4839 24.3477C36.0446 24.3477 36.4991 24.8022 36.4991 25.3628V26.378C36.4991 26.9386 36.0446 27.3932 35.4839 27.3932C34.9233 27.3932 34.4688 26.9386 34.4688 26.378V25.3628Z" fill="#DF7E81"/>
<path d="M18.2266 25.3628C18.2266 24.8022 18.6811 24.3477 19.2417 24.3477C19.8024 24.3477 20.2569 24.8022 20.2569 25.3628V26.378C20.2569 26.9386 19.8024 27.3932 19.2417 27.3932C18.6811 27.3932 18.2266 26.9386 18.2266 26.378V25.3628Z" fill="#DF7E81"/>
<path d="M66.9572 66.9832C66.9572 67.5439 66.5027 67.9984 65.942 67.9984C65.3813 67.9984 64.9268 67.5439 64.9268 66.9832C64.9268 66.9746 64.927 64.2113 65.7925 57.8467H26.5002C27.3657 64.2112 27.3659 66.9746 27.3659 66.9832C27.3659 67.5439 26.9114 67.9984 26.3507 67.9984C25.7901 67.9984 25.3356 67.5439 25.3356 66.9832C25.3356 66.9745 25.3353 64.0146 24.3411 57.0365C24.3274 56.9703 24.3203 56.9018 24.3203 56.8316C24.3203 56.2709 24.7748 55.8164 25.3355 55.8164H66.9571V55.8181C67.0042 55.8182 67.0518 55.8215 67.0998 55.8283C67.6539 55.9071 68.0391 56.4202 67.9604 56.9743C66.9572 63.9972 66.9571 66.9745 66.9571 66.9832H66.9572Z" fill="#DF7E81"/>
<path d="M22.288 65.968C22.8487 65.968 23.3032 66.4225 23.3032 66.9832C23.3032 67.5438 22.8487 67.9983 22.288 67.9983C19.0065 67.9983 12.7216 64.8548 12.7035 64.8458L12.652 64.8185C11.3076 64.1637 10.8134 64.662 10.812 64.6634C10.4113 65.0532 9.77029 65.0443 9.38041 64.6436C8.99059 64.2429 8.99946 63.6019 9.40022 63.212C9.40454 63.2077 10.8995 61.718 13.5398 63.0025C13.5599 63.0108 13.5799 63.0198 13.5997 63.0296C13.6165 63.0379 19.4788 65.968 22.288 65.968Z" fill="#DF7E81"/>
<path d="M48.6831 52.7731C48.6831 53.3338 48.2286 53.7883 47.6679 53.7883C47.1073 53.7883 46.6527 53.3338 46.6527 52.7731C46.6527 51.9321 46.3118 51.1706 45.7608 50.6196C45.2097 50.0685 44.4482 49.7276 43.6072 49.7276C43.0466 49.7276 42.5921 49.2731 42.5921 48.7124C42.5921 47.8715 42.2511 47.11 41.7001 46.5589C41.1491 46.0079 40.3876 45.667 39.5466 45.667C38.7057 45.667 37.9442 46.0079 37.3931 46.5589C36.8421 47.11 36.5012 47.8715 36.5012 48.7124C36.5012 49.2731 36.0467 49.7276 35.486 49.7276C34.645 49.7276 33.8835 50.0686 33.3325 50.6196C32.7814 51.1706 32.4405 51.9321 32.4405 52.7731C32.4405 53.3338 31.986 53.7883 31.4253 53.7883C30.8647 53.7883 30.4102 53.3338 30.4102 52.7731C30.4102 51.3717 30.9784 50.1026 31.8969 49.1841C32.6072 48.4738 33.5272 47.973 34.556 47.7825C34.7466 46.7539 35.2473 45.8339 35.9576 45.1235C36.8761 44.2049 38.1452 43.6367 39.5465 43.6367C40.9481 43.6367 42.217 44.205 43.1355 45.1235C43.8458 45.8338 44.3465 46.7538 44.5371 47.7825C45.5658 47.973 46.4858 48.4738 47.1962 49.1841C48.1147 50.1026 48.6829 51.3717 48.6829 52.7731H48.6831Z" fill="#DF7E81"/>
<path d="M62.005 37.63C62.4022 37.2311 62.6573 36.7473 62.7717 36.239C62.8912 35.7078 62.8592 35.1481 62.6775 34.6278C62.5012 34.1219 62.75 33.5708 63.2359 33.364C63.3893 33.2944 63.5375 33.2133 63.6782 33.1191C63.8177 33.0256 63.9509 32.9175 64.0752 32.7929L64.0772 32.791L64.0752 32.7889L64.1256 32.7414C64.6581 32.1838 64.9244 31.4637 64.9244 30.7425C64.9244 30.0017 64.6434 29.2619 64.0818 28.6981L64.0798 28.7001L64.0752 28.6954C63.6788 28.299 63.6788 27.6563 64.0752 27.2599L64.1256 27.2122C64.658 26.6545 64.9243 25.9344 64.9243 25.2134C64.9243 24.473 64.6434 23.7338 64.0819 23.1704L64.0799 23.1724L64.0305 23.1201C63.4719 22.5864 62.7504 22.3193 62.0278 22.3193C61.2857 22.3193 60.5448 22.601 59.9803 23.1641L59.9823 23.166L59.9807 23.1676C59.5844 23.5639 58.9417 23.5639 58.5452 23.1676L58.4987 23.1183C57.9414 22.5858 57.2211 22.3193 56.4997 22.3193C55.7585 22.3193 55.0182 22.6003 54.4543 23.1623L54.4563 23.1642L54.4529 23.1676C54.4372 23.1833 54.4211 23.1983 54.4046 23.2129C54.2981 23.324 54.2045 23.4416 54.1224 23.5637C54.0278 23.7045 53.9439 23.8596 53.8698 24.0243C53.6461 24.5207 53.0718 24.7492 52.571 24.5493C52.0634 24.3812 51.5181 24.3542 50.9996 24.4712C50.4921 24.5857 50.0101 24.8398 49.6148 25.2356L49.6108 25.2395C49.2997 25.5505 49.078 25.9156 48.9426 26.3046C48.7989 26.7175 48.7521 27.1606 48.7978 27.5982C48.8483 28.0916 48.5355 28.5384 48.0761 28.6728C47.8452 28.7413 47.6158 28.838 47.3951 28.967C47.1954 29.0837 47.0114 29.2219 46.8508 29.3836L46.8468 29.3875C46.4723 29.761 46.2258 30.2091 46.1043 30.6813C45.9758 31.1803 45.9842 31.7112 46.1255 32.215C46.2485 32.6535 46.0629 33.1057 45.699 33.3402L45.6783 33.3559L45.6802 33.3585C45.6021 33.4173 45.5245 33.4758 45.4669 33.5335L45.4211 33.5764C44.8873 34.1353 44.62 34.858 44.62 35.5816C44.62 36.3224 44.9022 37.0631 45.4669 37.6278L45.4686 37.6295C45.4907 37.6516 45.5115 37.6746 45.5312 37.6981C46.0466 38.2458 46.4667 39.0897 46.6538 39.9002C46.6992 40.0973 46.7315 40.2953 46.7492 40.4911C46.9 40.5046 47.0523 40.5269 47.2045 40.5574C48.0893 40.7343 49.0368 41.201 49.6109 41.7747C50.1758 42.3393 50.9184 42.6216 51.662 42.6216C52.4047 42.6216 53.1463 42.3398 53.711 41.7767C53.7558 41.7311 53.818 41.6496 53.8794 41.5689C53.8861 41.5602 53.8816 41.5661 53.8795 41.569L53.957 41.4704C54.2161 41.1386 54.6413 41.0126 55.0235 41.118C55.5277 41.2581 56.0597 41.2658 56.5607 41.137C57.0327 41.0155 57.4818 40.7689 57.8575 40.3941C58.0243 40.2266 58.1635 40.0423 58.2772 39.8471C58.4032 39.631 58.4995 39.401 58.569 39.1645C58.7092 38.6873 59.1699 38.3916 59.6476 38.4429C60.0849 38.4898 60.527 38.4434 60.9383 38.3006C61.3243 38.1665 61.6896 37.9439 62.0048 37.6301L62.005 37.63ZM64.7465 36.6832C64.5503 37.5544 64.1154 38.381 63.4388 39.0594L63.4349 39.0633C62.9006 39.5963 62.2706 39.9779 61.5968 40.2119C61.1531 40.366 60.6931 40.4546 60.2314 40.4789C60.1703 40.609 60.1034 40.7369 60.0303 40.8624C59.8305 41.2052 59.5855 41.529 59.2908 41.8242L59.2869 41.8281C58.65 42.4646 57.8786 42.8854 57.0607 43.0959C56.434 43.2571 55.7824 43.2928 55.1458 43.2054L55.1409 43.2103C54.1792 44.1715 52.9201 44.652 51.6622 44.652C50.4045 44.652 49.1453 44.1714 48.1835 43.2103C47.8816 42.9086 47.3388 42.6541 46.8081 42.5481C46.4846 42.4834 46.2222 42.4608 46.158 42.5167L46.1598 42.5186L46.1592 42.5193C45.7628 42.9156 45.1201 42.9156 44.7237 42.5193C44.3273 42.1229 44.3273 41.4802 44.7237 41.0837L44.7243 41.0831L44.7262 41.085C44.794 41.0112 44.7618 40.7111 44.6791 40.3525C44.5686 39.8733 44.3419 39.395 44.0737 39.1034L44.0315 39.0634C43.07 38.1019 42.5898 36.8418 42.5898 35.5817C42.5898 34.3491 43.0515 33.1153 43.9736 32.1611C43.9919 32.1394 44.0112 32.1184 44.0316 32.098L44.0358 32.0938C43.9486 31.4581 43.9844 30.8074 44.1456 30.1816C44.3557 29.3651 44.7772 28.5942 45.4147 27.9569L45.4155 27.9561C45.7135 27.6562 46.0357 27.411 46.3721 27.2143C46.4992 27.14 46.6298 27.0719 46.7631 27.0097C46.7876 26.5457 46.8766 26.0835 47.0314 25.6385C47.2636 24.9714 47.644 24.3446 48.1785 23.8091L48.1835 23.8041C48.8609 23.1271 49.6865 22.6927 50.5556 22.4965C51.1739 22.3569 51.8146 22.3386 52.4396 22.4399L52.4412 22.4376C52.5935 22.211 52.7662 21.9949 52.9613 21.7932C52.9791 21.7722 52.9978 21.7519 53.0176 21.7321L53.021 21.7287L53.023 21.7307L53.0249 21.7287C53.9864 20.769 55.244 20.2891 56.5 20.2891C57.4656 20.2891 58.4319 20.5728 59.2634 21.1399C60.0955 20.5727 61.0621 20.2891 62.028 20.2891C63.2599 20.2891 64.4928 20.7505 65.4465 21.673C65.468 21.6912 65.4889 21.7103 65.5092 21.7306L65.5156 21.737L65.5136 21.739L65.5156 21.741C66.4749 22.7018 66.9547 23.9581 66.9547 25.2135C66.9547 26.1792 66.6707 27.1457 66.103 27.9778C66.6708 28.8101 66.9547 29.7768 66.9547 30.7426C66.9547 31.9728 66.4942 33.2039 65.5733 34.1568C65.555 34.1784 65.5358 34.1995 65.5154 34.2199L65.5107 34.2245L65.5087 34.2225C65.2886 34.4429 65.0525 34.6342 64.8043 34.8005L64.802 34.8021C64.9036 35.4262 64.8853 36.0657 64.7463 36.6832H64.7465ZM53.8799 41.569C53.8783 41.571 53.8788 41.5704 53.8799 41.569V41.569Z" fill="#DF7E81"/>
<path d="M46.8539 41.8255C46.4575 42.2219 45.8148 42.2219 45.4184 41.8255C45.022 41.4291 45.022 40.7864 45.4184 40.39L59.9321 25.8754C60.3285 25.479 60.9712 25.479 61.3676 25.8754C61.764 26.2718 61.764 26.9145 61.3676 27.3109L46.8539 41.8255Z" fill="#DF7E81"/>
<path d="M48.9135 39.762C48.5128 40.1518 47.8719 40.1429 47.482 39.7422C47.0922 39.3415 47.101 38.7005 47.5018 38.3106C47.5099 38.3027 50.2836 35.5287 53.0714 38.3165C53.4677 38.7129 53.4677 39.3556 53.0714 39.752C52.675 40.1484 52.0323 40.1484 51.6358 39.752C50.2798 38.3961 48.9175 39.7582 48.9135 39.762Z" fill="#DF7E81"/>
<path d="M57.2026 31.4687C56.7996 31.8564 56.1587 31.8439 55.7711 31.441C55.3834 31.0381 55.3959 30.3971 55.7988 30.0095C55.8069 30.0017 58.5778 27.2394 62.0543 30.7133C62.4506 31.1074 62.4524 31.7484 62.0582 32.1448C61.6641 32.5412 61.0231 32.5429 60.6267 32.1488C58.5715 30.0952 57.2065 31.465 57.2025 31.4688L57.2026 31.4687Z" fill="#DF7E81"/>
<path d="M51.6792 36.9925C51.2806 37.3844 50.6396 37.3792 50.2476 36.9806C49.8556 36.582 49.8609 35.941 50.2595 35.549C50.2715 35.5372 54.4294 31.3815 58.6007 35.553C58.9971 35.9493 58.9971 36.592 58.6007 36.9885C58.2044 37.3849 57.5617 37.3849 57.1652 36.9885C54.425 34.2483 51.687 36.9847 51.6791 36.9925H51.6792Z" fill="#DF7E81"/>
<path d="M48.9333 39.7421C48.5435 40.1427 47.9025 40.1517 47.5018 39.7619C47.1011 39.3721 47.0921 38.7311 47.4819 38.3303C47.4858 38.3263 48.85 36.9618 47.4899 35.601C47.0957 35.2047 47.0975 34.5637 47.4938 34.1695C47.8902 33.7753 48.5312 33.7771 48.9254 34.1734C51.713 36.9624 48.9412 39.734 48.9333 39.7421Z" fill="#DF7E81"/>
<path d="M57.2249 31.4457C56.835 31.8463 56.1941 31.8553 55.7933 31.4655C55.3926 31.0757 55.3837 30.4347 55.7735 30.0339C55.7773 30.0299 57.1434 28.6695 55.0913 26.6167C54.6972 26.2203 54.6989 25.5793 55.0953 25.1851C55.4917 24.791 56.1327 24.7927 56.5269 25.1891C60.0027 28.6662 57.2327 31.4376 57.2249 31.4457Z" fill="#DF7E81"/>
<path d="M51.691 36.9815C51.299 37.38 50.6581 37.3854 50.2595 36.9934C49.8609 36.6014 49.8556 35.9604 50.2476 35.5618C50.2553 35.5539 52.9951 32.8156 50.2555 30.0777C49.8591 29.6835 49.8574 29.0425 50.2515 28.6461C50.6457 28.2497 51.2867 28.248 51.6831 28.6421C55.8591 32.8159 51.7028 36.9695 51.691 36.9814V36.9815Z" fill="#DF7E81"/>
<path d="M48.6826 15.2134C48.6826 15.4938 48.7963 15.7477 48.9798 15.9313C49.1634 16.1149 49.4173 16.2285 49.6977 16.2285C49.978 16.2285 50.232 16.1148 50.4156 15.9313C50.5992 15.7477 50.7128 15.4938 50.7128 15.2134C50.7128 14.9331 50.5991 14.6791 50.4156 14.4955C50.232 14.3119 49.978 14.1983 49.6977 14.1983C49.4173 14.1983 49.1634 14.312 48.9798 14.4955C48.7962 14.6791 48.6826 14.9331 48.6826 15.2134ZM47.5444 17.3668C46.9933 16.8156 46.6523 16.0542 46.6523 15.2134C46.6523 14.3725 46.9934 13.6111 47.5444 13.06C48.0956 12.5089 48.857 12.168 49.6978 12.168C50.5387 12.168 51.3001 12.509 51.8512 13.06C52.4023 13.6111 52.7432 14.3725 52.7432 15.2134C52.7432 16.0542 52.4022 16.8156 51.8512 17.3668C51.3 17.9179 50.5387 18.2588 49.6978 18.2588C48.857 18.2588 48.0956 17.9178 47.5444 17.3668Z" fill="#DF7E81"/>
<path d="M61.8799 52.772C61.8799 53.3327 61.4254 53.7872 60.8648 53.7872C60.3041 53.7872 59.8496 53.3327 59.8496 52.772C59.8496 52.4916 59.7359 52.2377 59.5524 52.0541C59.3688 51.8705 59.1148 51.7569 58.8345 51.7569C58.5541 51.7569 58.3002 51.8706 58.1166 52.0541C57.933 52.2377 57.8194 52.4916 57.8194 52.772C57.8194 53.3327 57.3649 53.7872 56.8042 53.7872C56.2436 53.7872 55.7891 53.3327 55.7891 52.772C55.7891 51.9312 56.1301 51.1698 56.6811 50.6186C57.2323 50.0675 57.9937 49.7266 58.8345 49.7266C59.6754 49.7266 60.4368 50.0676 60.9879 50.6186C61.539 51.1698 61.8799 51.9312 61.8799 52.772Z" fill="#DF7E81"/>
<path d="M65.9384 65.9688C66.4991 65.9688 66.9536 66.4233 66.9536 66.9839C66.9536 67.5446 66.4991 67.9991 65.9384 67.9991H26.3472C25.7865 67.9991 25.332 67.5446 25.332 66.9839C25.332 66.4233 25.7865 65.9688 26.3472 65.9688H65.9384Z" fill="#DF7E81"/>
</g>
</g>
<defs>
<clipPath id="clip0_960_14816">
<rect width="70" height="70" fill="white"/>
</clipPath>
<clipPath id="clip1_960_14816">
<rect width="64.9686" height="65" fill="white" transform="translate(3 3)"/>
</clipPath>
</defs>
</svg>
