<svg width="70" height="70" viewBox="0 0 70 70" fill="none" xmlns="http://www.w3.org/2000/svg">
<g clip-path="url(#clip0_960_14802)">
<g clip-path="url(#clip1_960_14802)">
<path d="M62.1751 47.9075C62.1751 50.3285 61.3264 52.5294 59.954 54.1306C58.5447 55.7747 56.5874 56.7915 54.4157 56.7915C52.244 56.7915 50.2866 55.7747 48.8774 54.1306C47.5049 52.5294 46.6562 50.3285 46.6562 47.9075C46.6562 45.4866 47.5048 43.2856 48.8774 41.6844C50.2867 40.0403 52.244 39.0234 54.4157 39.0234C56.5875 39.0234 58.5447 40.0403 59.954 41.6844C61.3264 43.2856 62.1751 45.4866 62.1751 47.9075ZM58.4206 52.8185C59.4902 51.5706 60.1516 49.835 60.1516 47.9075C60.1516 45.98 59.4902 44.2443 58.4206 42.9965C57.3882 41.7919 55.9717 41.0469 54.4157 41.0469C52.8597 41.0469 51.4432 41.792 50.4108 42.9965C49.3411 44.2444 48.6797 45.9801 48.6797 47.9075C48.6797 49.835 49.3411 51.5707 50.4107 52.8185C51.4432 54.0231 52.8597 54.768 54.4157 54.768C55.9717 54.768 57.3882 54.023 58.4206 52.8185Z" fill="#DF7E81"/>
<path d="M43.1688 54.7289C43.7275 54.7289 44.1805 55.1819 44.1805 55.7406C44.1805 56.2993 43.7275 56.7523 43.1688 56.7523H39.8096C37.9807 56.7523 36.3223 56.0268 35.1195 54.854C33.9088 53.6737 33.1602 52.0434 33.1602 50.2437V45.5321C33.1602 43.7324 33.9088 42.1021 35.1195 40.9217C36.3223 39.749 37.9806 39.0234 39.8096 39.0234H43.1688C43.7275 39.0234 44.1805 39.4764 44.1805 40.0351C44.1805 40.5938 43.7275 41.0468 43.1688 41.0468H39.8096C38.5242 41.0468 37.3637 41.5518 36.5265 42.3681C35.6967 43.177 35.1836 44.2958 35.1836 45.532V50.2436C35.1836 51.4798 35.6967 52.5986 36.5265 53.4075C37.3637 54.2238 38.5242 54.7288 39.8096 54.7288H43.1688V54.7289Z" fill="#DF7E81"/>
<path d="M29.6726 38.9844C30.2314 38.9844 30.6843 39.4374 30.6843 39.9961C30.6843 40.5548 30.2314 41.0078 29.6726 41.0078H21.6875V54.698L29.6766 54.733C30.2331 54.7351 30.6825 55.1882 30.6805 55.7447C30.6783 56.3011 30.2252 56.7506 29.6688 56.7485L20.7604 56.7095C20.7325 56.7118 20.7043 56.713 20.6758 56.713C20.117 56.713 19.6641 56.2601 19.6641 55.7013V39.9961C19.6641 39.4374 20.117 38.9844 20.6758 38.9844H29.6727H29.6726Z" fill="#DF7E81"/>
<path d="M20.6758 46.6328C20.117 46.6328 19.6641 46.1798 19.6641 45.6211C19.6641 45.0624 20.117 44.6094 20.6758 44.6094H27.4235C27.9822 44.6094 28.4352 45.0624 28.4352 45.6211C28.4352 46.1798 27.9822 46.6328 27.4235 46.6328H20.6758Z" fill="#DF7E81"/>
<path d="M48.2175 15.0341C47.7286 14.7678 47.5481 14.1556 47.8144 13.6667C48.0807 13.1778 48.6929 12.9973 49.1818 13.2636C54.2434 16.0134 58.2421 20.1009 60.8714 24.9272C63.5119 29.7743 64.7718 35.3624 64.3412 41.0855C64.2997 41.642 63.8149 42.0596 63.2583 42.0182C62.7018 41.9767 62.2842 41.4919 62.3256 40.9353C62.727 35.6008 61.556 30.3983 59.1009 25.8915C56.6538 21.3996 52.9309 17.5947 48.2175 15.0341Z" fill="#DF7E81"/>
<path d="M52.8223 59.5484C53.2479 59.1883 53.8849 59.2414 54.245 59.667C54.6051 60.0926 54.5521 60.7296 54.1264 61.0897C51.5406 63.2838 48.5671 65.0343 45.3238 66.2237C42.2064 67.3671 38.8423 67.9932 35.3362 67.998L35.2951 67.9989C27.2521 67.9989 19.9701 64.7387 14.6992 59.4677C9.42822 54.1967 6.16797 46.9148 6.16797 38.8718C6.16797 33.2249 7.77687 27.9512 10.5615 23.4847C13.4365 18.8731 17.5691 15.1229 22.4814 12.712C22.9813 12.4676 23.5847 12.6746 23.8291 13.1744C24.0735 13.6742 23.8665 14.2777 23.3667 14.5221C18.8005 16.763 14.9555 20.2546 12.2766 24.5517C9.68743 28.7049 8.19143 33.6125 8.19143 38.8718C8.19143 46.3563 11.2252 53.1324 16.1299 58.0371C21.0275 62.9347 27.7909 65.9665 35.2625 65.9753L35.2951 65.9747C38.578 65.9747 41.7216 65.3928 44.6283 64.3268C47.6483 63.2193 50.4162 61.59 52.8223 59.5484Z" fill="#DF7E81"/>
<path d="M9.6957 28.5701C10.0318 29.0153 9.94335 29.6489 9.49812 29.985C9.05289 30.3211 8.41934 30.2326 8.08321 29.7874C7.83061 29.4521 7.60078 29.1041 7.39306 28.745C5.43625 25.3626 5.67635 21.3185 7.27211 17.4846C8.82227 13.7605 11.6669 10.2176 14.9962 7.71044C15.0155 7.69587 15.0352 7.68222 15.055 7.66929C15.7617 7.14039 16.484 6.66054 17.2144 6.23801C19.0361 5.18408 20.9086 4.39532 22.7743 3.86096C24.7119 3.30598 26.6562 3.0235 28.5414 3.00167C32.0092 2.96152 35.2889 3.64966 38.1009 4.58249C43.0961 6.23951 46.6967 8.73442 47.2101 9.25119C47.3151 9.35684 47.3925 9.47513 47.4461 9.60255C47.5756 9.90944 47.5558 10.1982 47.4266 10.465C47.3949 10.5308 47.3569 10.5915 47.3137 10.647C47.2257 10.7635 47.1188 10.8541 46.9991 10.9235L46.9944 10.9262L46.9951 10.9275C46.8718 10.9978 46.737 11.0426 46.6093 11.065C41.9584 11.8788 40.2282 15.2159 38.2254 19.0793C36.4287 22.545 34.431 26.398 30.1176 29.507C27.3116 31.5295 24.334 32.9776 21.4624 33.7218C18.6071 34.4618 15.8434 34.5095 13.4321 33.7423C12.9017 33.5743 12.608 33.008 12.776 32.4777C12.944 31.9473 13.5103 31.6537 14.0406 31.8216C16.0769 32.4696 18.4592 32.4168 20.9565 31.7695C23.5897 31.087 26.3361 29.7476 28.9398 27.8709C32.858 25.0469 34.7392 21.4183 36.4312 18.1546C38.3891 14.3779 40.1158 11.0488 44.2358 9.59615C42.7801 8.70727 40.4103 7.4712 37.4684 6.49535C34.8398 5.62335 31.7801 4.97996 28.557 5.01731C26.8689 5.03698 25.1063 5.29591 23.3274 5.80549C21.6121 6.29676 19.894 7.01994 18.226 7.98495C17.5518 8.37495 16.8957 8.80962 16.2643 9.28178C16.2479 9.29601 16.2309 9.30972 16.2133 9.32301C13.1566 11.6249 10.5505 14.8644 9.13735 18.2593C7.76985 21.5445 7.53384 24.9574 9.13972 27.7332C9.30283 28.0151 9.48792 28.2944 9.69549 28.5702L9.6957 28.5701Z" fill="#DF7E81"/>
<path d="M55.7338 23.2821C56.1769 23.6183 56.2635 24.2499 55.9274 24.6931C55.5913 25.1362 54.9596 25.2229 54.5165 24.8867C53.7041 24.2701 52.7295 23.8127 51.7078 23.5408C50.6798 23.2673 49.6156 23.1852 48.6328 23.3207C46.6413 23.5955 45.0432 24.5464 43.8016 25.6954C42.4555 26.9409 41.5259 28.4022 40.9574 29.515C42.4958 29.4621 43.8283 30.2307 45.2732 31.0641C46.7085 31.892 48.2806 32.7988 50.2324 32.719C52.6431 32.6203 53.2243 32.1994 53.8382 31.7545L53.9274 31.6899C54.3792 31.3626 55.011 31.4635 55.3383 31.9152C55.6657 32.367 55.5648 32.9988 55.113 33.3261L55.0237 33.3907C54.1588 34.0174 53.34 34.6106 50.3114 34.7346C47.7835 34.8379 45.9466 33.7784 44.2694 32.811C42.7489 31.9339 41.3917 31.1513 39.9182 31.8137L39.8802 31.8327C39.6966 31.9192 39.5082 31.9524 39.3269 31.941C39.2487 31.9378 39.1696 31.9254 39.0911 31.9031C38.9706 31.8687 38.8591 31.8139 38.7581 31.7409C38.7346 31.7242 38.7116 31.7065 38.6893 31.6876C38.5723 31.5885 38.478 31.4636 38.4106 31.32C38.3002 31.0845 38.2701 30.8103 38.3491 30.5359L38.3517 30.5366L38.353 30.5319C38.5877 29.7192 39.8612 26.598 42.4342 24.2173C43.945 22.8192 45.9022 21.6606 48.3642 21.3209C49.6112 21.1489 50.9457 21.249 52.2216 21.5885C53.4854 21.9248 54.7036 22.5001 55.7338 23.2821Z" fill="#DF7E81"/>
<path d="M49.3523 28.5481C48.8023 28.6419 48.2802 28.272 48.1864 27.722C48.0926 27.172 48.4624 26.6499 49.0124 26.5561C52.1153 26.0265 55.3495 26.5859 57.996 27.7571C60.8965 29.0408 63.1355 31.0911 63.8145 33.3044C63.9782 33.837 63.6791 34.4014 63.1465 34.5651C62.614 34.7288 62.0495 34.4297 61.8858 33.8971C61.3812 32.2523 59.5687 30.6629 57.1819 29.6066C54.8639 28.5808 52.0433 28.0888 49.3523 28.5481Z" fill="#DF7E81"/>
</g>
</g>
<defs>
<clipPath id="clip0_960_14802">
<rect width="70" height="70" fill="white"/>
</clipPath>
<clipPath id="clip1_960_14802">
<rect width="58.423" height="65" fill="white" transform="translate(6 3)"/>
</clipPath>
</defs>
</svg>
