<svg width="70" height="70" viewBox="0 0 70 70" fill="none" xmlns="http://www.w3.org/2000/svg">
<path d="M67.3544 47.7463H3.33312C2.76514 47.7463 2.30469 47.2858 2.30469 46.7179V32.4855C2.30469 31.9175 2.76514 31.457 3.33312 31.457H67.3544C67.9224 31.457 68.3828 31.9175 68.3828 32.4855V46.7179C68.3828 47.2858 67.9224 47.7463 67.3544 47.7463ZM4.36155 45.6894H66.326V33.5139H4.36155V45.6894Z" fill="#DF7E81"/>
<path d="M67.3544 68.0002H3.33312C2.76514 68.0002 2.30469 67.5398 2.30469 66.9718V52.7394C2.30469 52.1714 2.76514 51.7109 3.33312 51.7109H67.3544C67.9224 51.7109 68.3828 52.1714 68.3828 52.7394V66.9718C68.3828 67.5398 67.9224 68.0002 67.3544 68.0002ZM4.36155 65.9433H66.326V53.7678H4.36155V65.9433Z" fill="#DF7E81"/>
<path d="M15.4815 59.8541C15.4815 60.5096 14.951 61.0401 14.2955 61.0401C13.6398 61.0401 13.1094 60.5096 13.1094 59.8541C13.1094 59.1985 13.6398 58.668 14.2955 58.668C14.951 58.668 15.4815 59.1985 15.4815 59.8541Z" fill="#DF7E81"/>
<path d="M15.4815 39.6002C15.4815 40.2557 14.951 40.7862 14.2955 40.7862C13.6398 40.7862 13.1094 40.2557 13.1094 39.6002C13.1094 38.9445 13.6398 38.4141 14.2955 38.4141C14.951 38.4141 15.4815 38.9445 15.4815 39.6002Z" fill="#DF7E81"/>
<path d="M57.5831 39.6002C57.5831 40.2557 57.0526 40.7862 56.397 40.7862C55.7414 40.7862 55.2109 40.2557 55.2109 39.6002C55.2109 38.9445 55.7414 38.4141 56.397 38.4141C57.0526 38.4141 57.5831 38.9445 57.5831 39.6002Z" fill="#DF7E81"/>
<path d="M57.5831 59.8541C57.5831 60.5096 57.0526 61.0401 56.397 61.0401C55.7414 61.0401 55.2109 60.5096 55.2109 59.8541C55.2109 59.1985 55.7414 58.668 56.397 58.668C57.0526 58.668 57.5831 59.1985 57.5831 59.8541Z" fill="#DF7E81"/>
<path d="M9.01562 46.7159C9.01562 46.148 9.47608 45.6875 10.0441 45.6875C10.612 45.6875 11.0725 46.148 11.0725 46.7159V52.7389C11.0725 53.3069 10.612 53.7674 10.0441 53.7674C9.47608 53.7674 9.01562 53.3069 9.01562 52.7389V46.7159Z" fill="#DF7E81"/>
<path d="M18.5039 46.7159C18.5039 46.148 18.9644 45.6875 19.5323 45.6875C20.1003 45.6875 20.5608 46.148 20.5608 46.7159V52.7389C20.5608 53.3069 20.1003 53.7674 19.5323 53.7674C18.9644 53.7674 18.5039 53.3069 18.5039 52.7389V46.7159Z" fill="#DF7E81"/>
<path d="M50.1289 46.7159C50.1289 46.148 50.5894 45.6875 51.1573 45.6875C51.7253 45.6875 52.1858 46.148 52.1858 46.7159V52.7389C52.1858 53.3069 51.7253 53.7674 51.1573 53.7674C50.5894 53.7674 50.1289 53.3069 50.1289 52.7389V46.7159Z" fill="#DF7E81"/>
<path d="M59.6172 46.7159C59.6172 46.148 60.0776 45.6875 60.6456 45.6875C61.2136 45.6875 61.6741 46.148 61.6741 46.7159V52.7389C61.6741 53.3069 61.2136 53.7674 60.6456 53.7674C60.0776 53.7674 59.6172 53.3069 59.6172 52.7389V46.7159Z" fill="#DF7E81"/>
<path d="M11.9907 16.1946C12.3037 14.5481 12.1561 11.4522 8.56645 7.50514C7.9673 7.6304 6.96311 7.91691 6.39192 8.50197C5.88095 9.02483 5.56707 9.60055 5.38918 10.0079L11.9907 16.1946ZM9.68335 5.69369C16.506 12.8385 13.4762 18.2685 13.3292 18.5217C13.2895 18.5921 13.2407 18.659 13.1827 18.7207C12.7945 19.1333 12.1451 19.1532 11.7325 18.7649L3.54276 11.0897C3.24524 10.8444 3.09866 10.4412 3.19983 10.0428C3.201 10.0381 3.61831 8.40525 4.92157 7.0717C6.28659 5.67376 8.81646 5.38105 8.82361 5.38025L8.82376 5.38156C9.13224 5.3466 9.4529 5.45142 9.68335 5.69362V5.69369Z" fill="#DF7E81"/>
<path d="M2.37884 15.5165C2.5852 14.9885 3.18055 14.7276 3.70859 14.9339C4.23664 15.1403 4.49745 15.7356 4.29117 16.2637C4.28971 16.2674 3.76677 17.5824 4.13438 17.9655C4.74965 18.5814 10.1702 19.4812 10.1858 19.4837C10.7449 19.5769 11.1227 20.1058 11.0295 20.6649C10.9364 21.2239 10.4074 21.6017 9.84838 21.5085C9.8313 21.5057 4.06109 20.5501 2.76462 19.487C2.73031 19.4598 2.69724 19.43 2.66586 19.3977C1.36085 18.0604 2.37599 15.5237 2.37884 15.5165Z" fill="#DF7E81"/>
<path d="M32.2547 27.0825C32.623 27.5129 32.5726 28.1605 32.1423 28.5287C31.7119 28.897 31.0643 28.8466 30.6961 28.4162C28.8348 26.2393 26.5616 23.9567 24.2216 21.6069C23.3402 20.7218 22.4491 19.827 21.573 18.9312C20.3561 17.6856 19.0235 16.8258 17.5647 16.7786C16.0777 16.7304 14.3647 17.5123 12.3643 19.5597C10.7705 21.1911 9.95752 22.641 9.7146 23.9392C9.48663 25.1574 9.77233 26.2762 10.3815 27.3077C10.6699 27.7958 10.508 28.4254 10.0199 28.7138C9.53181 29.0022 8.90223 28.8403 8.61383 28.3522C7.76277 26.9112 7.36823 25.3243 7.69803 23.5616C8.01278 21.8792 8.99596 20.0724 10.8941 18.1295C13.3476 15.6182 15.5849 14.6636 17.6291 14.7298C19.7017 14.7969 21.4817 15.9024 23.0435 17.501C23.9232 18.4006 24.8043 19.2853 25.676 20.1606C28.0453 22.5398 30.3469 24.8509 32.2549 27.0825H32.2547Z" fill="#DF7E81"/>
<path d="M23.9885 20.1824C24.4056 19.8008 25.0531 19.8297 25.4348 20.2468C25.8164 20.6638 25.7875 21.3114 25.3704 21.693L17.9334 28.5035C17.5163 28.8852 16.8688 28.8563 16.4871 28.4392C16.1055 28.0221 16.1343 27.3746 16.5514 26.993L23.9885 20.1824Z" fill="#DF7E81"/>
<path d="M65.9375 27.6456C65.9574 28.2113 65.5149 28.6862 64.9492 28.7061C64.3835 28.726 63.9085 28.2835 63.8886 27.7178C63.8824 27.5423 63.862 27.3628 63.8278 27.1814C63.7944 27.0034 63.748 26.8291 63.689 26.6602C63.5103 26.1475 63.7626 25.5891 64.2549 25.3797C64.443 25.2946 64.6248 25.1953 64.7973 25.0797C64.9689 24.9647 65.1326 24.8319 65.2854 24.6789L65.2874 24.6769L65.2854 24.6749L65.3375 24.6257C65.9948 23.9425 66.3235 23.0581 66.3235 22.1726C66.3235 21.2669 65.9797 20.3621 65.2923 19.6724L65.2903 19.6744L65.2854 19.6695C64.8839 19.268 64.8839 18.6168 65.2854 18.2152L65.3376 18.1659C65.9948 17.4825 66.3235 16.5981 66.3235 15.7129C66.3235 14.8077 65.9797 13.9036 65.2925 13.2145L65.2905 13.2164L65.2393 13.1622C64.5549 12.5035 63.669 12.174 62.7821 12.174C61.8749 12.174 60.9687 12.5187 60.2784 13.2077L60.2804 13.2096L60.2787 13.2113C59.8772 13.6129 59.2261 13.6129 58.8244 13.2113L58.7758 13.1597C58.0932 12.5027 57.209 12.174 56.3235 12.174C55.4176 12.174 54.5125 12.5179 53.8227 13.2052L53.8247 13.2072L53.8205 13.2113C53.8043 13.2276 53.7876 13.2431 53.7705 13.258C53.6366 13.3969 53.5188 13.5445 53.4156 13.6981C53.2996 13.8708 53.1974 14.0595 53.1077 14.259C52.8809 14.7622 52.2987 14.9936 51.7911 14.7907C51.1685 14.5828 50.4993 14.5489 49.863 14.6925C49.242 14.8326 48.6521 15.1435 48.1684 15.628L48.1643 15.6319C47.7831 16.0129 47.5116 16.4598 47.346 16.9359C47.1704 17.4405 47.1131 17.9815 47.169 18.5151C47.2202 19.0149 46.9033 19.4676 46.4379 19.6038C46.1552 19.6877 45.8754 19.8056 45.6073 19.9621C45.3633 20.1046 45.1377 20.2744 44.9393 20.4741L44.9352 20.4781C44.4771 20.935 44.1754 21.4837 44.0265 22.0621C43.8692 22.6725 43.8792 23.3209 44.0514 23.9354C44.1759 24.3795 43.9881 24.8376 43.6197 25.0752L43.5848 25.1017L43.5868 25.1042C43.4842 25.1816 43.382 25.2589 43.3204 25.3199C42.9869 25.6544 42.7347 26.035 42.5639 26.4384C42.3844 26.8623 42.2908 27.3139 42.2833 27.7663C42.2745 28.332 41.8086 28.7835 41.2429 28.7746C40.6771 28.7658 40.2257 28.2999 40.2345 27.7342C40.2463 27.0209 40.3935 26.3098 40.6759 25.6429C40.9496 24.9964 41.3473 24.3932 41.8681 23.8716L41.929 23.8121C41.8151 23.0631 41.8518 22.2943 42.0419 21.5558C42.2808 20.6285 42.7596 19.753 43.4841 19.0287L43.485 19.0278C43.8226 18.6881 44.1881 18.4099 44.5707 18.1864C44.7423 18.0861 44.9194 17.9957 45.1007 17.9147C45.121 17.3553 45.2231 16.7971 45.4097 16.2609C45.6735 15.5029 46.1058 14.791 46.7133 14.1827L46.7182 14.1776C47.4878 13.4083 48.4257 12.9147 49.4131 12.6919C50.1489 12.5258 50.9127 12.5108 51.6546 12.6447L51.7123 12.5572C51.887 12.2973 52.0854 12.0493 52.31 11.8181C52.3278 11.7972 52.3465 11.7768 52.3663 11.757L52.3705 11.7529L52.3725 11.7549L52.3745 11.7529C53.4671 10.6625 54.8963 10.1172 56.3236 10.1172C57.4555 10.1172 58.5878 10.46 59.5521 11.1454C60.5173 10.46 61.6501 10.1172 62.7822 10.1172C64.186 10.1172 65.5909 10.6442 66.6758 11.6979C66.6973 11.7161 66.718 11.7351 66.7382 11.7553L66.745 11.7621L66.743 11.7642L66.745 11.7662C67.8354 12.8579 68.3805 14.286 68.3805 15.7129C68.3805 16.8447 68.0375 17.9772 67.3515 18.9424C68.0375 19.9078 68.3805 21.0407 68.3805 22.1727C68.3805 23.5747 67.8544 24.9777 66.8025 26.0617C66.7842 26.0832 66.7651 26.1041 66.7448 26.1244L66.7399 26.1293L66.7379 26.1272C66.4881 26.3774 66.2201 26.5946 65.9384 26.7833L65.8515 26.8403C65.899 27.1031 65.9278 27.3724 65.9377 27.6456L65.9375 27.6456Z" fill="#DF7E81"/>
<path d="M51.4742 28.4766C51.0726 28.8782 50.4215 28.8782 50.0199 28.4766C49.6184 28.0751 49.6184 27.424 50.0199 27.0224L60.6942 16.348C61.0958 15.9465 61.7469 15.9465 62.1485 16.348C62.5501 16.7496 62.5501 17.4007 62.1485 17.8023L51.4742 28.4766Z" fill="#DF7E81"/>
<path d="M56.0485 23.8647C55.5737 24.1731 54.9388 24.0382 54.6304 23.5634C54.322 23.0886 54.4569 22.4537 54.9317 22.1452C54.9439 22.1373 59.1799 19.3105 62.1473 22.2778C62.5489 22.6794 62.5489 23.3305 62.1473 23.7321C61.7458 24.1336 61.0947 24.1336 60.693 23.7321C58.9166 21.9556 56.0567 23.8593 56.0485 23.8647V23.8647Z" fill="#DF7E81"/>
<path d="M51.5547 28.3813C51.2064 28.8272 50.5624 28.9064 50.1165 28.558C49.6707 28.2097 49.5915 27.5657 49.9398 27.1199C49.9508 27.1059 53.7254 22.1583 58.5907 27.0235C58.9923 27.425 58.9923 28.0761 58.5907 28.4778C58.1892 28.8793 57.538 28.8793 57.1364 28.4778C53.9267 25.2681 51.5616 28.3726 51.5548 28.3813H51.5547Z" fill="#DF7E81"/>
<path d="M56.3529 23.5638C56.0446 24.0385 55.4095 24.1734 54.9348 23.8651C54.46 23.5568 54.3251 22.9217 54.6334 22.4469C54.6388 22.4387 56.5426 19.5789 54.766 17.8023C54.3645 17.4008 54.3645 16.7497 54.766 16.348C55.1676 15.9465 55.8187 15.9465 56.2203 16.348C59.1878 19.3157 56.3608 23.5516 56.3528 23.5638H56.3529Z" fill="#DF7E81"/>
<path d="M51.3788 28.5584C50.933 28.9067 50.2889 28.8275 49.9407 28.3816C49.5923 27.9358 49.6715 27.2917 50.1174 26.9435C50.1262 26.9366 53.2347 24.5698 50.025 21.362C49.6234 20.9627 49.6217 20.3132 50.021 19.9117C50.4202 19.5102 51.0697 19.5084 51.4712 19.9077C56.3413 24.7748 51.3928 28.5474 51.3788 28.5584V28.5584Z" fill="#DF7E81"/>
<path d="M50.5894 8.43282C50.5894 9.0008 50.129 9.46125 49.561 9.46125C48.993 9.46125 48.5326 9.0008 48.5326 8.43282V8.42596H48.5366C48.5358 7.5114 48.1299 6.67736 47.4744 6.0685C46.7995 5.44162 45.8637 5.05365 44.8269 5.05299V5.05701H44.8148V5.05299C43.7759 5.05329 42.838 5.44206 42.1618 6.06996C41.5048 6.68006 41.0983 7.51556 41.098 8.43144H41.102V8.43436C41.102 9.00233 40.6416 9.46279 40.0736 9.46279H40.0672C40.0419 9.46257 40.0167 9.46155 39.9918 9.45957C38.9851 9.47819 38.0776 9.86258 37.4187 10.4746C36.7625 11.0841 36.3561 11.9186 36.3554 12.8335H36.3594V12.8386H36.3554C36.3548 13.0355 36.3775 13.2333 36.4189 13.4297C36.4588 13.6185 36.5208 13.811 36.5995 14.0043C36.8125 14.5301 36.5589 15.1291 36.0331 15.342L36.0129 15.3499C35.4012 15.6354 34.8863 16.0669 34.5283 16.5933C34.1824 17.1018 33.9818 17.7015 33.9825 18.3441C33.9822 18.844 34.1086 19.3203 34.3325 19.7502C34.574 20.2139 34.9252 20.6189 35.3511 20.9395C35.7718 21.255 35.8806 21.8323 35.6212 22.2755L35.6242 22.2773C35.4754 22.5322 35.3572 22.7976 35.2806 23.0687C35.2085 23.3239 35.1688 23.5861 35.1696 23.8512C35.1686 24.4523 35.3477 25.0178 35.6592 25.5076C35.9933 26.0331 36.4763 26.4689 37.052 26.7695C37.5534 27.0312 37.7477 27.65 37.4859 28.1513C37.2242 28.6527 36.6054 28.847 36.104 28.5852C35.2038 28.1153 34.4478 27.4326 33.9238 26.6084C33.4131 25.805 33.1192 24.8647 33.1208 23.8512C33.1194 23.3828 33.185 22.9362 33.3041 22.5144C33.3526 22.3429 33.4093 22.1756 33.4732 22.0129C33.0862 21.6218 32.7593 21.1797 32.5087 20.6983C32.1408 19.9918 31.9331 19.1955 31.9336 18.3441C31.9326 17.275 32.2631 16.2822 32.8329 15.4444C33.248 14.834 33.7894 14.3073 34.4207 13.8956L34.4103 13.8474C34.3424 13.5261 34.3054 13.1896 34.3065 12.8385H34.3024V12.8334H34.3065C34.3077 11.3193 34.9628 9.95448 36.0206 8.97197C36.8507 8.20099 37.9316 7.66484 39.1372 7.48045C39.349 6.34873 39.9317 5.33994 40.7637 4.56728C41.8033 3.60192 43.2359 3.00445 44.8147 3.00401V3H44.8268V3.00401C46.404 3.00504 47.8345 3.60177 48.8724 4.5659C49.9295 5.54797 50.584 6.91211 50.5854 8.42589H50.5894V8.43275L50.5894 8.43282Z" fill="#DF7E81"/>
<path d="M24.7398 14.761C24.3072 15.1271 23.6597 15.0731 23.2936 14.6405C22.9275 14.2078 22.9815 13.5603 23.4141 13.1942C24.5584 12.2239 25.9475 11.4407 27.4996 10.9086C28.9843 10.3997 30.6212 10.1172 32.3381 10.1172C32.9061 10.1172 33.3666 10.5776 33.3666 11.1456C33.3666 11.7136 32.9061 12.174 32.3381 12.174C30.8509 12.174 29.4399 12.4164 28.1664 12.8529C26.8528 13.3031 25.688 13.957 24.7397 14.761H24.7398Z" fill="#DF7E81"/>
</svg>
