<svg width="70" height="70" viewBox="0 0 70 70" fill="none" xmlns="http://www.w3.org/2000/svg">
<path d="M34.2991 46.3966C34.006 45.9231 34.1532 45.302 34.6277 45.0096C35.1022 44.7171 35.7245 44.864 36.0175 45.3376C36.4069 45.9666 36.6913 46.5873 36.8306 47.1721C36.9738 47.7733 36.9721 48.3526 36.7911 48.8904C36.5998 49.4589 36.2238 49.9417 35.6281 50.309C35.2723 50.5284 34.8462 50.702 34.3435 50.8213C34.0667 50.8868 33.7912 50.9179 33.5192 50.9179C32.443 50.9179 31.4259 50.4345 30.6224 49.6812C29.8576 48.9644 29.2781 47.9899 29.0338 46.9617C28.9482 46.6016 28.9023 46.2339 28.9023 45.8671C28.9023 45.3084 29.3562 44.8555 29.916 44.8555C30.4758 44.8555 30.9296 45.3084 30.9296 45.8671C30.9296 46.0761 30.9561 46.2873 31.0056 46.4954C31.1597 47.1438 31.5254 47.7586 32.0082 48.2111C32.4522 48.6274 32.9858 48.8946 33.5192 48.8946C33.6387 48.8946 33.7582 48.8813 33.8762 48.8534C34.1754 48.7824 34.4032 48.6949 34.567 48.594C34.7338 48.4911 34.8327 48.375 34.8747 48.2502C34.927 48.0948 34.9177 47.8859 34.8587 47.6384C34.7684 47.2594 34.5722 46.838 34.299 46.3966H34.2991Z" fill="#DF7E81"/>
<path d="M4.01364 56.8827C3.45383 56.8827 3 56.4298 3 55.871C3 55.3123 3.45383 54.8594 4.01364 54.8594H29.9247C30.4845 54.8594 30.9383 55.3123 30.9383 55.871C30.9383 58.3857 31.9593 60.662 33.61 62.3095C35.2607 63.957 37.5415 64.976 40.0611 64.976C42.5806 64.976 44.8614 63.957 46.5122 62.3095C48.163 60.662 49.1839 58.3857 49.1839 55.871C49.1839 55.3123 49.6377 54.8594 50.1975 54.8594H66.8591C67.419 54.8594 67.8728 55.3123 67.8728 55.871C67.8728 56.4298 67.419 56.8827 66.8591 56.8827H51.1656C50.9246 59.5521 49.7394 61.9498 47.9456 63.7401C45.9279 65.7538 43.1403 66.9993 40.0611 66.9993C36.9819 66.9993 34.1945 65.7538 32.1767 63.7401C30.3829 61.9498 29.1977 59.5522 28.9567 56.8827H4.01372H4.01364Z" fill="#DF7E81"/>
<path d="M48.2815 50.4535C48.2195 50.8138 48.1293 51.1508 48.0076 51.4548C47.8056 51.9591 47.5137 52.3757 47.117 52.6719C46.6798 52.9985 46.1586 53.1592 45.5445 53.1113C45.2321 53.0869 44.8961 53.0062 44.5363 52.8626C44.3534 52.7897 44.1806 52.6976 44.0181 52.5889C43.2563 52.0788 42.7911 51.2305 42.6188 50.2874C42.4604 49.4215 42.5503 48.4545 42.8875 47.6125C42.9985 47.3354 43.138 47.0679 43.3061 46.8178C43.5604 46.4394 43.8801 46.1047 44.2394 45.8243C44.8646 45.3364 45.6185 45.0081 46.3618 44.8977C47.1717 44.7774 47.9866 44.909 48.6572 45.3581C48.8963 45.5181 49.114 45.7177 49.3032 45.9593C49.6443 46.3938 49.8541 46.8291 49.958 47.2521C50.104 47.8463 50.0392 48.4006 49.831 48.892C49.633 49.359 49.3076 49.7544 48.9159 50.0607C48.7202 50.2137 48.5059 50.3455 48.2817 50.4534L48.2815 50.4535ZM46.1307 50.704C46.241 50.4285 46.3094 50.0646 46.3424 49.6434L46.3447 49.6436C46.3779 49.2203 46.6787 48.8476 47.1145 48.7424C47.3123 48.694 47.5078 48.6009 47.6725 48.4723C47.8066 48.3673 47.9133 48.2435 47.97 48.1096C48.0164 48.0001 48.0295 47.8711 47.9939 47.7263C47.9563 47.573 47.8664 47.3977 47.7114 47.2002C47.659 47.1334 47.5986 47.078 47.5325 47.0338C47.3093 46.8843 46.9942 46.847 46.6546 46.8975C46.2481 46.9579 45.8317 47.1405 45.4826 47.413C45.2886 47.5644 45.1179 47.7422 44.9848 47.9402C44.8993 48.0675 44.8256 48.2103 44.7643 48.3635C44.5664 48.8576 44.5135 49.4246 44.6063 49.9319C44.6848 50.3622 44.8648 50.7276 45.1425 50.9134C45.1857 50.9424 45.2344 50.9681 45.2885 50.9895C45.4466 51.0526 45.5815 51.0871 45.6948 51.096C45.7957 51.1039 45.8642 51.0902 45.9052 51.0597C45.9868 50.9987 46.0622 50.8751 46.1306 50.7041L46.1307 50.704Z" fill="#DF7E81"/>
<path d="M41.1593 56.2978C41.6532 56.2619 42.1195 56.271 42.5436 56.3332C43.1881 56.4277 43.7501 56.6435 44.1921 57.005C44.6807 57.4044 44.9998 57.95 45.1006 58.6653C45.1467 58.9935 45.1439 59.3519 45.0865 59.7419L45.0797 59.7818C45.0495 59.9692 45.0011 60.1526 44.9364 60.3309C44.5784 61.3183 43.7311 62.0591 42.6836 62.4957C41.7233 62.8959 40.5714 63.0462 39.494 62.8895C39.1356 62.8374 38.7808 62.7505 38.4388 62.627L38.3858 62.6061C37.8078 62.3904 37.2752 62.0724 36.8164 61.6889C36.1411 61.1246 35.6047 60.4067 35.2972 59.6516C34.9619 58.8285 34.8909 57.9486 35.1843 57.1364C35.3041 56.8046 35.4794 56.4933 35.7153 56.212C36.0729 55.7857 36.4607 55.4712 36.8628 55.2516C37.5482 54.8772 38.2471 54.7916 38.9034 54.9074C39.5317 55.018 40.1104 55.314 40.5888 55.714C40.7978 55.8886 40.9894 56.0857 41.1591 56.2977L41.1593 56.2978ZM42.2506 58.3329C41.8411 58.2728 41.3468 58.2893 40.8025 58.3655L40.8024 58.3644C40.3983 58.4201 39.9837 58.2265 39.777 57.8478C39.6608 57.6359 39.4933 57.4329 39.2903 57.2632C39.0702 57.0791 38.8164 56.9452 38.5551 56.8992C38.322 56.8581 38.0733 56.8886 37.8291 57.022C37.6485 57.1206 37.4601 57.2788 37.2676 57.5082C37.1821 57.6101 37.1221 57.7134 37.085 57.816C36.9726 58.1274 37.0172 58.5076 37.1741 58.8927C37.3585 59.3458 37.6909 59.7851 38.1152 60.1398C38.4092 60.3855 38.7383 60.5853 39.0835 60.7153L39.1278 60.7302C39.3316 60.8037 39.5509 60.8567 39.779 60.8898C40.5018 60.9949 41.2705 60.8958 41.9075 60.6303C42.4573 60.4012 42.8849 60.0595 43.0359 59.6432C43.0547 59.5912 43.0693 59.5352 43.0793 59.4758L43.0828 59.4495C43.1125 59.248 43.1162 59.0796 43.0969 58.9418C43.0731 58.7717 43.0071 58.65 42.9091 58.5699C42.7647 58.4518 42.5378 58.3749 42.2506 58.3328L42.2506 58.3329Z" fill="#DF7E81"/>
<path d="M40.8464 37.4194C39.2991 38.9637 37.2711 39.7359 35.2434 39.7359C33.2155 39.7359 31.1876 38.9637 29.6405 37.4195L28.0117 35.794C27.6159 35.399 27.6159 34.7585 28.0117 34.3634C29.5591 32.8191 31.5871 32.0469 33.6147 32.0469V32.0508C35.6448 32.0509 37.6729 32.8217 39.2174 34.3632L40.8464 35.9888C41.2421 36.3838 41.2421 37.0243 40.8464 37.4194ZM35.2434 37.7126C36.4321 37.7126 37.621 37.3559 38.6349 36.6428L37.7844 35.794C36.6303 34.6421 35.1212 34.0663 33.6147 34.0663V34.0702C32.4259 34.0702 31.2371 34.4269 30.2231 35.14L31.0737 35.9889C32.225 37.138 33.7342 37.7126 35.2434 37.7126Z" fill="#DF7E81"/>
<path d="M40.0697 35.2113C40.7841 34.1994 41.1415 33.0128 41.1415 31.8263C41.1415 30.3202 40.5658 28.8139 39.4145 27.6649L38.5639 26.8159C37.8496 27.8279 37.4921 29.0144 37.4921 30.2008C37.4921 31.707 38.0678 33.2133 39.2191 34.3624L40.0697 35.2113ZM43.1687 31.8263C43.1687 33.8502 42.395 35.8742 40.8478 37.4184C40.4521 37.8134 39.8103 37.8134 39.4145 37.4184L37.7857 35.7929C36.2386 34.2487 35.4648 32.2246 35.4648 30.2008C35.4648 28.1769 36.2386 26.1529 37.7857 24.6088C38.1815 24.2137 38.8233 24.2137 39.2191 24.6088L40.8478 26.2344C42.395 27.7785 43.1687 29.8026 43.1687 31.8263Z" fill="#DF7E81"/>
<path d="M64.3427 37.0592L54.8005 46.5828C54.6026 46.7803 54.3432 46.879 54.0838 46.879L25.4573 46.8791C25.1747 46.8791 24.9192 46.7637 24.7354 46.5775L5.65621 27.5357C5.26043 27.1407 5.26043 26.5002 5.65621 26.1051L29.5116 2.29625C29.9074 1.90125 30.5492 1.90125 30.945 2.29625L64.3427 35.6286C64.7384 36.0236 64.7384 36.6641 64.3427 37.0592ZM53.6641 44.8558L62.1926 36.344L30.2283 4.44208L7.80616 26.8204L25.8769 44.8558H53.664H53.6641Z" fill="#DF7E81"/>
<path d="M13.5293 27.8312C12.9695 27.8312 12.5156 27.3783 12.5156 26.8195C12.5156 26.2608 12.9695 25.8079 13.5293 25.8079H16.6878L28.0217 14.4962V11.3437C28.0217 10.785 28.4755 10.332 29.0353 10.332C29.5951 10.332 30.049 10.785 30.049 11.3437V14.9151C30.0489 15.1739 29.9499 15.4329 29.752 15.6303L17.8295 27.5296C17.6457 27.7157 17.3902 27.8311 17.1076 27.8311H13.5293L13.5293 27.8312Z" fill="#DF7E81"/>
<path d="M32.5174 32.5535C32.9132 32.9485 32.9132 33.589 32.5174 33.9841C32.1217 34.3791 31.4799 34.3791 31.0841 33.9841L28.8276 31.732C28.8084 31.7129 28.7902 31.6932 28.773 31.6729C28.6332 31.5309 28.5015 31.3866 28.3785 31.2411C28.2335 31.0695 28.0973 30.8938 27.9713 30.7155C27.2837 29.7419 26.8484 28.6205 26.8325 27.5149C26.8173 26.4659 27.1681 25.4549 28.0129 24.6117C29.0216 23.6052 30.2583 23.2995 31.5078 23.4776C32.8211 23.6648 34.1313 24.4108 35.1471 25.4245L37.4036 27.6768C37.7993 28.0718 37.7993 28.7123 37.4036 29.1074C37.0078 29.5024 36.366 29.5024 35.9702 29.1074L33.7137 26.8551C32.9862 26.1291 32.0863 25.6004 31.2227 25.4772C30.5815 25.3858 29.9518 25.5377 29.4462 26.0422C29.0209 26.4667 28.8443 26.9709 28.8518 27.4913C28.8614 28.1636 29.1576 28.8901 29.6263 29.5537C29.7202 29.6865 29.8193 29.8147 29.9228 29.9371C30.0174 30.0491 30.1138 30.1553 30.2113 30.2552C30.2283 30.27 30.2447 30.2853 30.2609 30.3015L32.5174 32.5536V32.5535Z" fill="#DF7E81"/>
<path d="M3 55.871C3 55.3123 3.45383 54.8594 4.01364 54.8594C4.57345 54.8594 5.02729 55.3123 5.02729 55.871V64.976H65.9728V55.871C65.9728 55.3123 66.4266 54.8594 66.9864 54.8594C67.5462 54.8594 68.0001 55.3123 68.0001 55.871V65.9876C68.0001 66.5463 67.5462 66.9993 66.9864 66.9993H4.01364C3.45383 66.9993 3 66.5463 3 65.9876L3 55.871Z" fill="#DF7E81"/>
</svg>
