<svg width="70" height="70" viewBox="0 0 70 70" fill="none" xmlns="http://www.w3.org/2000/svg">
<path d="M3.01172 68C2.45297 68 2 67.547 2 66.9883C2 66.4295 2.45297 65.9766 3.01172 65.9766H65.9921C66.5508 65.9766 67.0038 66.4295 67.0038 66.9883C67.0038 67.547 66.5508 68 65.9921 68H3.01172Z" fill="#DF7E81"/>
<path d="M10.3062 20.7622C10.2679 22.5623 11.1442 23.4866 11.6837 23.8837C12.2576 23.461 13.2211 22.4789 13.2605 20.6311C13.2987 18.831 12.4224 17.9066 11.8829 17.5095C11.309 17.9324 10.3454 18.9144 10.3062 20.7622ZM11.2875 25.9809C11.2788 25.9771 8.20646 24.6726 8.29077 20.7226C8.36703 17.1316 10.9674 15.6677 11.3911 15.4526C11.6555 15.3079 11.9816 15.2827 12.2793 15.4124C12.288 15.4162 15.36 16.7208 15.2761 20.6707C15.1996 24.2615 12.5997 25.7254 12.1758 25.9406C11.9114 26.0854 11.5852 26.1106 11.2875 25.9809Z" fill="#DF7E81"/>
<path d="M12.7947 66.9864C12.7947 67.5451 12.3417 67.9981 11.7829 67.9981C11.2242 67.9981 10.7712 67.5451 10.7712 66.9864V46.2345C10.7276 45.6307 10.7105 42.9181 13.6737 41.1096C17.061 39.0424 19.8506 41.3014 19.8587 41.3078C20.0912 41.4915 20.2209 41.7571 20.2392 42.0312L20.242 42.031C20.2428 42.0433 20.5678 46.3167 17.2567 48.3375C16.7808 48.6278 16.1598 48.4774 15.8695 48.0016C15.5793 47.5258 15.7296 46.9047 16.2054 46.6145C17.9091 45.5747 18.1922 43.5692 18.2287 42.6488C17.6077 42.3217 16.2887 41.8784 14.725 42.8326C12.7446 44.0413 12.7519 45.6949 12.7766 46.0394C12.7885 46.1013 12.7947 46.1651 12.7947 46.2304V66.9864H12.7947Z" fill="#DF7E81"/>
<path d="M12.7947 46.2318C12.7947 46.7905 12.3417 47.2435 11.7829 47.2435C11.2242 47.2435 10.7712 46.7905 10.7712 46.2318V40.008C10.7276 39.4041 10.7105 36.6916 13.6737 34.8831C17.0611 32.8158 19.8506 35.075 19.8587 35.0814C20.0912 35.265 20.2209 35.5306 20.2392 35.8048L20.242 35.8045C20.2428 35.8168 20.5678 40.0901 17.2567 42.111C16.7808 42.4012 16.1598 42.2508 15.8695 41.775C15.5793 41.2992 15.7296 40.6782 16.2054 40.3879C17.9091 39.3482 18.1922 37.3427 18.2287 36.4222C17.6077 36.0952 16.2887 35.6517 14.725 36.6061C12.7446 37.8147 12.7518 39.4683 12.7766 39.8128C12.7885 39.8747 12.7947 39.9385 12.7947 40.0039V46.2318H12.7947Z" fill="#DF7E81"/>
<path d="M12.7947 40.0052C12.7947 40.5639 12.3417 41.0169 11.7829 41.0169C11.2242 41.0169 10.7712 40.5639 10.7712 40.0052V33.7814C10.7276 33.1776 10.7105 30.4651 13.6737 28.6565C17.0611 26.5892 19.8506 28.8483 19.8587 28.8547C20.0912 29.0384 20.2209 29.304 20.2392 29.5781L20.242 29.5779C20.2428 29.5902 20.5678 33.8636 17.2567 35.8844C16.7808 36.1747 16.1598 36.0243 15.8695 35.5485C15.5793 35.0727 15.7296 34.4516 16.2054 34.1614C17.9091 33.1216 18.1922 31.1161 18.2287 30.1957C17.6077 29.8686 16.2887 29.4252 14.725 30.3795C12.7446 31.5881 12.7518 33.2418 12.7766 33.5862C12.7885 33.6481 12.7947 33.712 12.7947 33.7773V40.0052H12.7947Z" fill="#DF7E81"/>
<path d="M12.7947 33.7748C12.7947 34.3335 12.3417 34.7865 11.7829 34.7865C11.2242 34.7865 10.7712 34.3335 10.7712 33.7748V27.551C10.7276 26.9472 10.7104 24.2346 13.6737 22.4261C17.0611 20.3587 19.8506 22.6179 19.8587 22.6243C20.0912 22.808 20.2209 23.0736 20.2393 23.3477L20.2421 23.3475C20.2428 23.3598 20.5677 27.6332 17.2567 29.6539C16.7809 29.9441 16.1598 29.7937 15.8695 29.3179C15.5793 28.8421 15.7296 28.2211 16.2054 27.9308C17.9091 26.8911 18.1922 24.8857 18.2287 23.9652C17.6077 23.6381 16.2887 23.1947 14.725 24.149C12.7446 25.3577 12.7519 27.0113 12.7766 27.3558C12.7885 27.4177 12.7947 27.4815 12.7947 27.5468V33.7748H12.7947Z" fill="#DF7E81"/>
<path d="M12.7688 46.3607C12.699 46.9129 12.1946 47.3039 11.6424 47.2341C11.0902 47.1643 10.6992 46.66 10.769 46.1078C10.7697 46.1023 11.0451 44.1902 8.82688 42.8365C7.26316 41.8822 5.94417 42.3256 5.32324 42.6527C5.35972 43.5731 5.64279 45.5786 7.34646 46.6183C7.82227 46.9086 7.97256 47.5297 7.68238 48.0055C7.39213 48.4813 6.77105 48.6316 6.29525 48.3414C2.98413 46.3206 3.30907 42.0472 3.30986 42.0349L3.31266 42.0351C3.33104 41.7609 3.46073 41.4954 3.69325 41.3117C3.70129 41.3053 6.49071 39.0463 9.87816 41.1135C13.2249 43.1558 12.7701 46.3516 12.7689 46.3607L12.7688 46.3607Z" fill="#DF7E81"/>
<path d="M12.0635 50.9339C11.531 51.0975 10.9665 50.7985 10.8029 50.266C10.6392 49.7334 10.9382 49.1689 11.4708 49.0053C11.476 49.0037 9.66297 49.5743 8.8251 49.063C7.3584 48.1681 6.10713 48.5025 5.44512 48.8173C5.67929 49.8119 6.2692 51.7456 7.51451 52.9911C9.71446 55.1911 11.7834 55.1898 11.7893 55.1898C12.3458 55.1941 12.7935 55.649 12.7892 56.2055C12.7849 56.762 12.33 57.2097 11.7735 57.2054C11.7652 57.2053 8.86618 57.2041 6.08386 54.4218C3.87968 52.2172 3.31763 48.4896 3.31598 48.4788L3.31964 48.4783C3.26809 48.1329 3.39777 47.7702 3.69147 47.5383C3.69951 47.5319 6.48887 45.2729 9.87639 47.34C14.6035 50.2247 12.0707 50.9318 12.0636 50.9339L12.0635 50.9339Z" fill="#DF7E81"/>
<path d="M12.0997 49.0054C12.6322 49.169 12.9313 49.7335 12.7676 50.2661C12.6039 50.7986 12.0394 51.0977 11.5069 50.934C11.4998 50.9318 8.96746 50.2248 13.6941 47.3401C17.0815 45.2729 19.871 47.5319 19.8791 47.5383C20.1728 47.7703 20.3024 48.133 20.2509 48.4783L20.2545 48.4789C20.253 48.4896 19.6914 52.2125 17.4867 54.4178L17.4847 54.4198L17.4867 54.4218C14.7044 57.204 11.8052 57.2053 11.7969 57.2054C11.2404 57.2097 10.7856 56.7621 10.7813 56.2055C10.777 55.649 11.2246 55.1942 11.7812 55.1899C11.7871 55.1899 13.8561 55.191 16.056 52.9911L16.058 52.9931C17.3017 51.7476 17.8914 49.8126 18.1255 48.8174C17.4634 48.5025 16.2121 48.1679 14.7454 49.063C13.9076 49.5743 12.0945 49.0037 12.0998 49.0053L12.0997 49.0054Z" fill="#DF7E81"/>
<path d="M12.7688 40.1302C12.699 40.6824 12.1946 41.0734 11.6424 41.0036C11.0902 40.9338 10.6992 40.4295 10.769 39.8773C10.7697 39.8719 11.0451 37.9597 8.82688 36.606C7.26316 35.6517 5.94417 36.0951 5.32324 36.4222C5.35972 37.3427 5.64279 39.3481 7.34646 40.3879C7.82227 40.6781 7.97256 41.2992 7.68238 41.775C7.39213 42.2508 6.77105 42.4011 6.29525 42.1109C2.98413 40.0901 3.30907 35.8168 3.30986 35.8045L3.31266 35.8047C3.33104 35.5306 3.46073 35.265 3.69325 35.0813C3.70129 35.0749 6.49064 32.8158 9.87816 34.8831C13.2249 36.9254 12.7701 40.1212 12.7689 40.1303L12.7688 40.1302Z" fill="#DF7E81"/>
<path d="M12.7688 33.9037C12.699 34.4559 12.1946 34.8469 11.6424 34.7771C11.0902 34.7073 10.6992 34.203 10.769 33.6508C10.7697 33.6453 11.0451 31.7332 8.82688 30.3795C7.26309 29.4252 5.94417 29.8686 5.32324 30.1957C5.35972 31.1161 5.64279 33.1216 7.34646 34.1613C7.82227 34.4516 7.97256 35.0727 7.68238 35.5485C7.39213 36.0243 6.77105 36.1746 6.29525 35.8844C2.98413 33.8636 3.30907 29.5902 3.30986 29.5779L3.31266 29.5781C3.33104 29.3039 3.46073 29.0384 3.69325 28.8547C3.70129 28.8483 6.49064 26.5893 9.87816 28.6565C13.2249 30.6988 12.7701 33.8946 12.7689 33.9037L12.7688 33.9037Z" fill="#DF7E81"/>
<path d="M12.7688 27.6771C12.699 28.2293 12.1946 28.6203 11.6424 28.5505C11.0902 28.4807 10.6992 27.9764 10.769 27.4242C10.7697 27.4187 11.0451 25.5065 8.82687 24.1529C7.26316 23.1986 5.94417 23.642 5.32324 23.9691C5.35971 24.8895 5.64279 26.8949 7.34646 27.9347C7.82226 28.2249 7.97256 28.846 7.68238 29.3218C7.39213 29.7976 6.77105 29.9479 6.29524 29.6577C2.9842 27.637 3.30906 23.3637 3.30985 23.3514L3.31265 23.3516C3.33104 23.0774 3.46072 22.8119 3.69324 22.6282C3.70128 22.6218 6.49064 20.3627 9.87816 22.4299C13.2249 24.4721 12.7701 27.668 12.7689 27.6772L12.7688 27.6771Z" fill="#DF7E81"/>
<path d="M3.31641 18.8281C3.31641 18.2716 3.76765 17.8203 4.32417 17.8203C4.8807 17.8203 5.33194 18.2716 5.33194 18.8281L5.34465 23.8104C5.34465 24.3669 4.89341 24.8182 4.33688 24.8182C3.78036 24.8182 3.32912 24.3669 3.32912 23.8104L3.31641 18.8281Z" fill="#DF7E81"/>
<path d="M10.7737 12.6255C10.7607 12.069 11.2013 11.607 11.7577 11.594C12.3142 11.581 12.7762 12.0216 12.7892 12.578L12.882 16.3147C12.8951 16.8712 12.4545 17.3332 11.898 17.3462C11.3415 17.3592 10.8796 16.9186 10.8666 16.3622L10.7737 12.6255Z" fill="#DF7E81"/>
<path d="M18.2344 18.8281C18.2344 18.2716 18.6856 17.8203 19.2421 17.8203C19.7987 17.8203 20.2499 18.2716 20.2499 18.8281L20.2628 23.8104C20.2628 24.3669 19.8115 24.8182 19.255 24.8182C18.6985 24.8182 18.2472 24.3669 18.2472 23.8104L18.2344 18.8281Z" fill="#DF7E81"/>
<path d="M33.025 12.1685C32.9866 13.9686 33.8629 14.8929 34.4024 15.29C34.9763 14.8673 35.9399 13.8851 35.9792 12.0373C36.0174 10.2372 35.1412 9.3129 34.6017 8.91579C34.0277 9.33861 33.0642 10.3207 33.025 12.1685ZM34.0063 17.3872C33.9976 17.3834 30.9252 16.0788 31.0095 12.1289C31.0858 8.53786 33.6861 7.07396 34.1099 6.8589C34.3742 6.71413 34.7004 6.68892 34.9981 6.81861C35.0068 6.82242 38.0788 8.12704 37.9948 12.0769C37.9183 15.6677 35.3184 17.1317 34.8945 17.3468C34.6301 17.4917 34.304 17.5169 34.0063 17.3872Z" fill="#DF7E81"/>
<path d="M35.5134 66.9864C35.5134 67.5451 35.0604 67.9981 34.5017 67.9981C33.9429 67.9981 33.49 67.5451 33.49 66.9864V37.6408C33.4464 37.0369 33.4293 34.3244 36.3925 32.5159C39.7798 30.4486 42.5694 32.7077 42.5774 32.7141C42.8099 32.8978 42.9396 33.1633 42.958 33.4375L42.9608 33.4373C42.9616 33.4495 43.2865 37.723 39.9754 39.7438C39.4996 40.034 38.8785 39.8836 38.5883 39.4078C38.298 38.932 38.4484 38.311 38.9242 38.0207C40.6279 36.981 40.9109 34.9755 40.9474 34.055C40.3265 33.728 39.0074 33.2846 37.4438 34.2389C35.4634 35.4475 35.4705 37.1011 35.4954 37.4456C35.5072 37.5075 35.5135 37.5713 35.5135 37.6367V66.9864H35.5134Z" fill="#DF7E81"/>
<path d="M35.5134 37.638C35.5134 38.1968 35.0604 38.6498 34.5017 38.6498C33.9429 38.6498 33.49 38.1968 33.49 37.638V31.4142C33.4464 30.8104 33.4293 28.0979 36.3925 26.2893C39.7799 24.222 42.5694 26.4812 42.5774 26.4876C42.8099 26.6713 42.9396 26.9368 42.958 27.211L42.9608 27.2108C42.9616 27.2231 43.2865 31.4964 39.9754 33.5172C39.4996 33.8075 38.8785 33.6571 38.5883 33.1813C38.298 32.7055 38.4484 32.0844 38.9242 31.7942C40.6279 30.7544 40.9109 28.7489 40.9474 27.8285C40.3265 27.5014 39.0074 27.058 37.4438 28.0123C35.4634 29.2209 35.4705 30.8746 35.4954 31.219C35.5072 31.2809 35.5135 31.3448 35.5135 31.4101V37.638H35.5134Z" fill="#DF7E81"/>
<path d="M35.5134 31.4114C35.5134 31.9702 35.0604 32.4231 34.5017 32.4231C33.9429 32.4231 33.49 31.9702 33.49 31.4114V25.1877C33.4464 24.5838 33.4293 21.8713 36.3925 20.0628C39.7799 17.9955 42.5694 20.2546 42.5774 20.261C42.8099 20.4447 42.9396 20.7102 42.958 20.9844L42.9608 20.9842C42.9616 20.9965 43.2865 25.2699 39.9754 27.2907C39.4996 27.5809 38.8785 27.4305 38.5883 26.9547C38.298 26.4789 38.4484 25.8579 38.9242 25.5676C40.6279 24.5279 40.9109 22.5224 40.9474 21.602C40.3265 21.2749 39.0074 20.8314 37.4438 21.7858C35.4634 22.9944 35.4705 24.648 35.4954 24.9925C35.5072 25.0544 35.5135 25.1182 35.5135 25.1836V31.4114H35.5134Z" fill="#DF7E81"/>
<path d="M35.5134 25.181C35.5134 25.7398 35.0604 26.1927 34.5017 26.1927C33.9429 26.1927 33.49 25.7398 33.49 25.181V18.9573C33.4464 18.3534 33.4292 15.6408 36.3925 13.8323C39.7799 11.765 42.5694 14.0242 42.5774 14.0306C42.8099 14.2143 42.9396 14.4798 42.958 14.754L42.9608 14.7538C42.9616 14.766 43.2865 19.0394 39.9754 21.0601C39.4996 21.3504 38.8785 21.2 38.5883 20.7242C38.298 20.2484 38.4484 19.6273 38.9242 19.337C40.6279 18.2974 40.9109 16.2919 40.9474 15.3715C40.3265 15.0444 39.0074 14.601 37.4438 15.5553C35.4634 16.7639 35.4706 18.4175 35.4954 18.7621C35.5072 18.824 35.5135 18.8877 35.5135 18.9531V25.181H35.5134Z" fill="#DF7E81"/>
<path d="M35.4875 37.767C35.4177 38.3192 34.9134 38.7102 34.3612 38.6404C33.809 38.5706 33.418 38.0663 33.4878 37.514C33.4884 37.5086 33.7638 35.5965 31.5456 34.2428C29.9819 33.2885 28.6629 33.7319 28.042 34.059C28.0785 34.9794 28.3615 36.9849 30.0652 38.0246C30.541 38.3149 30.6913 38.9359 30.4011 39.4117C30.1109 39.8876 29.4898 40.0378 29.014 39.7477C25.7029 37.7269 26.0278 33.4535 26.0286 33.4412L26.0314 33.4414C26.0498 33.1672 26.1795 32.9017 26.412 32.718C26.42 32.7116 29.2094 30.4526 32.5969 32.5198C35.9436 34.5621 35.4888 37.7579 35.4877 37.767L35.4875 37.767Z" fill="#DF7E81"/>
<path d="M34.7823 42.3401C34.2498 42.5038 33.6853 42.2047 33.5216 41.6722C33.358 41.1397 33.657 40.5752 34.1895 40.4115C34.1948 40.4099 32.3817 40.9805 31.5439 40.4693C30.0772 39.5743 28.8259 39.9087 28.1639 40.2235C28.398 41.2182 28.988 43.1518 30.2333 44.3974C32.4332 46.5973 34.5022 46.5961 34.5081 46.5961C35.0646 46.6004 35.5122 47.0552 35.5079 47.6118C35.5036 48.1683 35.0488 48.6159 34.4923 48.6116C34.4839 48.6116 31.5849 48.6103 28.8026 45.828C26.5984 43.6234 26.0364 39.8959 26.0347 39.8851L26.0384 39.8845C25.9868 39.5392 26.1165 39.1764 26.4102 38.9445C26.4183 38.9381 29.2076 36.6792 32.5951 38.7463C37.3223 41.631 34.7895 42.338 34.7824 42.3402L34.7823 42.3401Z" fill="#DF7E81"/>
<path d="M34.8184 40.4116C35.351 40.5753 35.6501 41.1398 35.4863 41.6723C35.3227 42.2048 34.7582 42.5039 34.2257 42.3402C34.2186 42.3381 31.6862 41.631 36.4128 38.7463C39.8003 36.6791 42.5898 38.9382 42.5978 38.9446C42.8915 39.1765 43.0212 39.5392 42.9696 39.8846L42.9733 39.8851C42.9717 39.8958 42.4102 43.6188 40.2054 45.8241L40.2034 45.826L40.2054 45.828C37.4231 48.6103 34.524 48.6116 34.5157 48.6117C33.9592 48.616 33.5043 48.1683 33.5 47.6118C33.4957 47.0553 33.9434 46.6004 34.4999 46.5961C34.5059 46.5961 36.5749 46.5973 38.7748 44.3974L38.7767 44.3993C40.0204 43.1539 40.6101 41.2188 40.8442 40.2236C40.1822 39.9088 38.9309 39.5742 37.4641 40.4693C36.6263 40.9806 34.8133 40.41 34.8185 40.4116L34.8184 40.4116Z" fill="#DF7E81"/>
<path d="M35.4875 31.5365C35.4177 32.0887 34.9134 32.4797 34.3612 32.4099C33.809 32.3401 33.418 31.8358 33.4878 31.2836C33.4884 31.2781 33.7638 29.366 31.5456 28.0123C29.9819 27.058 28.6629 27.5014 28.042 27.8285C28.0785 28.7489 28.3615 30.7544 30.0652 31.7941C30.541 32.0844 30.6913 32.7054 30.4011 33.1813C30.1109 33.6571 29.4898 33.8074 29.014 33.5172C25.7029 31.4964 26.0278 27.223 26.0286 27.2108L26.0314 27.211C26.0498 26.9368 26.1795 26.6713 26.412 26.4876C26.42 26.4812 29.2094 24.2221 32.5969 26.2893C35.9436 28.3316 35.4888 31.5274 35.4877 31.5365L35.4875 31.5365Z" fill="#DF7E81"/>
<path d="M35.4875 25.3099C35.4177 25.8621 34.9134 26.2531 34.3612 26.1833C33.809 26.1135 33.418 25.6092 33.4878 25.057C33.4884 25.0516 33.7638 23.1394 31.5456 21.7857C29.9818 20.8314 28.6629 21.2748 28.042 21.6019C28.0785 22.5224 28.3615 24.5279 30.0652 25.5676C30.541 25.8578 30.6913 26.4789 30.4011 26.9547C30.1109 27.4305 29.4898 27.5808 29.014 27.2906C25.7029 25.2699 26.0278 20.9964 26.0286 20.9841L26.0314 20.9844C26.0498 20.7102 26.1795 20.4446 26.412 20.261C26.42 20.2546 29.2094 17.9955 32.5969 20.0628C35.9436 22.1051 35.4888 25.3009 35.4877 25.31L35.4875 25.3099Z" fill="#DF7E81"/>
<path d="M35.4875 19.0833C35.4177 19.6356 34.9134 20.0266 34.3612 19.9568C33.809 19.887 33.418 19.3826 33.4878 18.8304C33.4884 18.825 33.7639 16.9128 31.5456 15.5592C29.9819 14.6048 28.6629 15.0482 28.042 15.3753C28.0785 16.2958 28.3615 18.3012 30.0652 19.3409C30.541 19.6312 30.6913 20.2523 30.4011 20.7281C30.1109 21.2039 29.4898 21.3542 29.014 21.064C25.7029 19.0433 26.0278 14.7699 26.0286 14.7576L26.0314 14.7579C26.0498 14.4837 26.1795 14.2181 26.412 14.0344C26.42 14.0281 29.2094 11.7689 32.5969 13.8362C35.9436 15.8784 35.4888 19.0743 35.4877 19.0834L35.4875 19.0833Z" fill="#DF7E81"/>
<path d="M26.0352 10.2343C26.0352 9.67781 26.4864 9.22656 27.0429 9.22656C27.5994 9.22656 28.0507 9.67781 28.0507 10.2343L28.0634 15.2167C28.0634 15.7732 27.6122 16.2244 27.0556 16.2244C26.4991 16.2244 26.0479 15.7732 26.0479 15.2167L26.0352 10.2343Z" fill="#DF7E81"/>
<path d="M33.4925 4.03175C33.4794 3.47523 33.92 3.01328 34.4765 3.00028C35.033 2.98721 35.4949 3.42783 35.5079 3.98428L35.6008 7.72094C35.6139 8.27746 35.1732 8.73941 34.6168 8.75241C34.0603 8.76548 33.5983 8.32485 33.5853 7.76841L33.4925 4.03175Z" fill="#DF7E81"/>
<path d="M40.9531 10.2343C40.9531 9.67781 41.4044 9.22656 41.9609 9.22656C42.5174 9.22656 42.9687 9.67781 42.9687 10.2343L42.9815 15.2167C42.9815 15.7732 42.5303 16.2244 41.9737 16.2244C41.4172 16.2244 40.966 15.7732 40.966 15.2167L40.9531 10.2343Z" fill="#DF7E81"/>
<path d="M55.7476 20.7622C55.7093 22.5623 56.5856 23.4866 57.1251 23.8837C57.699 23.461 58.6625 22.4789 58.7019 20.6311C58.7401 18.831 57.8638 17.9066 57.3243 17.5095C56.7504 17.9324 55.7868 18.9144 55.7476 20.7622ZM56.7289 25.9809C56.7202 25.9771 53.6479 24.6726 53.7322 20.7226C53.8084 17.1317 56.4087 15.6678 56.8325 15.4526C57.0969 15.3079 57.423 15.2827 57.7207 15.4124C57.7294 15.4162 60.8014 16.7208 60.7175 20.6707C60.641 24.2615 58.0411 25.7254 57.6172 25.9406C57.3528 26.0854 57.0266 26.1106 56.7289 25.9809Z" fill="#DF7E81"/>
<path d="M58.2361 66.9864C58.2361 67.5451 57.7831 67.9981 57.2243 67.9981C56.6656 67.9981 56.2126 67.5451 56.2126 66.9864V46.2345C56.169 45.6307 56.1519 42.9181 59.1151 41.1096C62.5025 39.0424 65.292 41.3014 65.3001 41.3078C65.5326 41.4915 65.6623 41.7571 65.6807 42.0312L65.6834 42.031C65.6842 42.0433 66.0092 46.3167 62.6981 48.3375C62.2223 48.6278 61.6012 48.4774 61.3109 48.0016C61.0207 47.5258 61.171 46.9047 61.6468 46.6144C63.3505 45.5747 63.6336 43.5692 63.6701 42.6488C63.0491 42.3217 61.7301 41.8784 60.1664 42.8326C58.186 44.0413 58.1933 45.6949 58.218 46.0394C58.2299 46.1013 58.2361 46.1651 58.2361 46.2304V66.9864H58.2361Z" fill="#DF7E81"/>
<path d="M58.2361 46.2318C58.2361 46.7905 57.7831 47.2435 57.2243 47.2435C56.6656 47.2435 56.2126 46.7905 56.2126 46.2318V40.008C56.169 39.4041 56.1519 36.6916 59.1151 34.8831C62.5025 32.8158 65.292 35.075 65.3001 35.0814C65.5326 35.265 65.6623 35.5306 65.6807 35.8048L65.6834 35.8045C65.6842 35.8168 66.0093 40.0901 62.6981 42.111C62.2223 42.4012 61.6012 42.2508 61.3109 41.775C61.0207 41.2992 61.171 40.6782 61.6468 40.3879C63.3505 39.3482 63.6336 37.3427 63.6701 36.4222C63.0491 36.0952 61.7301 35.6517 60.1664 36.6061C58.186 37.8147 58.1932 39.4682 58.218 39.8128C58.2299 39.8747 58.2361 39.9385 58.2361 40.0039V46.2318H58.2361Z" fill="#DF7E81"/>
<path d="M58.2361 40.0052C58.2361 40.5639 57.7831 41.0169 57.2243 41.0169C56.6656 41.0169 56.2126 40.5639 56.2126 40.0052V33.7814C56.169 33.1776 56.1519 30.4651 59.1151 28.6565C62.5025 26.5892 65.292 28.8483 65.3001 28.8547C65.5326 29.0384 65.6623 29.304 65.6807 29.5781L65.6834 29.5779C65.6842 29.5902 66.0092 33.8636 62.6981 35.8844C62.2223 36.1747 61.6012 36.0243 61.3109 35.5485C61.0207 35.0727 61.171 34.4516 61.6468 34.1614C63.3505 33.1216 63.6336 31.1161 63.6701 30.1957C63.0491 29.8686 61.7301 29.4252 60.1664 30.3795C58.186 31.5881 58.1932 33.2417 58.218 33.5862C58.2299 33.6481 58.2361 33.712 58.2361 33.7773V40.0052H58.2361Z" fill="#DF7E81"/>
<path d="M58.2361 33.7748C58.2361 34.3335 57.7831 34.7865 57.2243 34.7865C56.6656 34.7865 56.2126 34.3335 56.2126 33.7748V27.551C56.169 26.9472 56.1518 24.2346 59.1152 22.4261C62.5025 20.3587 65.292 22.6179 65.3001 22.6243C65.5326 22.808 65.6623 23.0736 65.6807 23.3477L65.6835 23.3475C65.6842 23.3598 66.0091 27.6332 62.6981 29.6539C62.2223 29.9441 61.6012 29.7937 61.3109 29.3179C61.0207 28.8421 61.171 28.2211 61.6469 27.9308C63.3505 26.8911 63.6336 24.8857 63.6701 23.9652C63.0491 23.6381 61.7301 23.1947 60.1664 24.149C58.186 25.3577 58.1933 27.0114 58.218 27.3558C58.2299 27.4177 58.2361 27.4815 58.2361 27.5468V33.7748H58.2361Z" fill="#DF7E81"/>
<path d="M58.2063 46.3607C58.1365 46.9129 57.6322 47.3039 57.0799 47.2341C56.5277 47.1643 56.1367 46.66 56.2065 46.1078C56.2072 46.1023 56.4826 44.1902 54.2644 42.8365C52.7007 41.8822 51.3817 42.3256 50.7607 42.6527C50.7972 43.5731 51.0803 45.5786 52.784 46.6183C53.2598 46.9086 53.4101 47.5297 53.1199 48.0055C52.8296 48.4813 52.2086 48.6316 51.7327 48.3414C48.4216 46.3206 48.7466 42.0472 48.7474 42.0349L48.7502 42.0351C48.7685 41.7609 48.8982 41.4954 49.1307 41.3117C49.1388 41.3053 51.9282 39.0463 55.3157 41.1135C58.6624 43.1558 58.2076 46.3516 58.2064 46.3607L58.2063 46.3607Z" fill="#DF7E81"/>
<path d="M57.505 50.9339C56.9724 51.0975 56.4079 50.7985 56.2443 50.266C56.0806 49.7334 56.3796 49.1689 56.9122 49.0053C56.9174 49.0037 55.1044 49.5743 54.2665 49.063C52.7998 48.1681 51.5485 48.5025 50.8865 48.8173C51.1207 49.8119 51.7106 51.7456 52.9559 52.9911C55.1559 55.1911 57.2248 55.1898 57.2307 55.1898C57.7872 55.1941 58.2349 55.649 58.2306 56.2055C58.2263 56.762 57.7714 57.2097 57.2149 57.2054C57.2066 57.2053 54.3076 57.2041 51.5253 54.4218C49.3211 52.2172 48.759 48.4896 48.7574 48.4788L48.7611 48.4783C48.7095 48.1329 48.8392 47.7702 49.1329 47.5383C49.1409 47.5319 51.9303 45.2729 55.3178 47.34C60.0449 50.2247 57.5121 50.9318 57.505 50.9339L57.505 50.9339Z" fill="#DF7E81"/>
<path d="M57.5411 49.0054C58.0736 49.169 58.3727 49.7335 58.209 50.2661C58.0453 50.7986 57.4809 51.0977 56.9483 50.934C56.9412 50.9318 54.4089 50.2248 59.1355 47.3401C62.5229 45.2729 65.3124 47.5319 65.3205 47.5383C65.6142 47.7703 65.7439 48.133 65.6923 48.4783L65.696 48.4789C65.6944 48.4896 65.1328 52.2125 62.9281 54.4178L62.9261 54.4198L62.9281 54.4218C60.1458 57.204 57.2466 57.2053 57.2384 57.2054C56.6818 57.2097 56.227 56.7621 56.2227 56.2055C56.2184 55.649 56.666 55.1942 57.2226 55.1899C57.2285 55.1899 59.2976 55.191 61.4974 52.9911L61.4994 52.9931C62.7431 51.7476 63.3328 49.8126 63.5669 48.8174C62.9048 48.5025 61.6535 48.1679 60.1868 49.063C59.349 49.5743 57.5359 49.0037 57.5412 49.0053L57.5411 49.0054Z" fill="#DF7E81"/>
<path d="M58.2063 40.1302C58.1365 40.6824 57.6322 41.0734 57.0799 41.0036C56.5277 40.9338 56.1367 40.4295 56.2065 39.8773C56.2072 39.8718 56.4826 37.9597 54.2644 36.606C52.7007 35.6517 51.3817 36.0951 50.7607 36.4222C50.7972 37.3427 51.0803 39.3481 52.784 40.3879C53.2598 40.6781 53.4101 41.2992 53.1199 41.775C52.8296 42.2508 52.2086 42.4011 51.7327 42.1109C48.4216 40.0902 48.7466 35.8168 48.7474 35.8045L48.7502 35.8047C48.7685 35.5306 48.8982 35.265 49.1307 35.0813C49.1388 35.0749 51.9281 32.8158 55.3157 34.8831C58.6624 36.9254 58.2076 40.1212 58.2064 40.1303L58.2063 40.1302Z" fill="#DF7E81"/>
<path d="M58.2063 33.9037C58.1365 34.4559 57.6322 34.8469 57.0799 34.7771C56.5277 34.7073 56.1367 34.203 56.2065 33.6508C56.2072 33.6453 56.4826 31.7332 54.2644 30.3795C52.7006 29.4252 51.3817 29.8686 50.7607 30.1957C50.7972 31.1161 51.0803 33.1216 52.784 34.1613C53.2598 34.4516 53.4101 35.0727 53.1199 35.5485C52.8296 36.0243 52.2086 36.1746 51.7327 35.8844C48.4216 33.8636 48.7466 29.5902 48.7474 29.5779L48.7502 29.5781C48.7685 29.3039 48.8982 29.0384 49.1307 28.8547C49.1388 28.8483 51.9281 26.5893 55.3157 28.6565C58.6624 30.6988 58.2076 33.8946 58.2064 33.9037L58.2063 33.9037Z" fill="#DF7E81"/>
<path d="M58.2063 27.6732C58.1365 28.2254 57.6321 28.6164 57.0799 28.5466C56.5277 28.4768 56.1367 27.9725 56.2065 27.4203C56.2072 27.4148 56.4826 25.5026 54.2644 24.149C52.7007 23.1947 51.3817 23.6381 50.7607 23.9652C50.7972 24.8856 51.0803 26.891 52.784 27.9308C53.2598 28.221 53.4101 28.8421 53.1199 29.3179C52.8296 29.7937 52.2086 29.944 51.7327 29.6538C48.4217 27.6331 48.7466 23.3598 48.7474 23.3475L48.7502 23.3477C48.7685 23.0735 48.8982 22.808 49.1307 22.6243C49.1388 22.6179 51.9281 20.3588 55.3157 22.426C58.6624 24.4682 58.2076 27.6641 58.2064 27.6733L58.2063 27.6732Z" fill="#DF7E81"/>
<path d="M48.7578 18.8281C48.7578 18.2716 49.2091 17.8203 49.7656 17.8203C50.3221 17.8203 50.7734 18.2716 50.7734 18.8281L50.7861 23.8104C50.7861 24.3669 50.3348 24.8182 49.7783 24.8182C49.2218 24.8182 48.7705 24.3669 48.7705 23.8104L48.7578 18.8281Z" fill="#DF7E81"/>
<path d="M56.2151 12.6255C56.2021 12.069 56.6427 11.607 57.1991 11.594C57.7556 11.581 58.2176 12.0216 58.2306 12.578L58.3234 16.3147C58.3365 16.8712 57.8959 17.3332 57.3394 17.3462C56.7829 17.3592 56.321 16.9186 56.308 16.3622L56.2151 12.6255Z" fill="#DF7E81"/>
<path d="M63.6758 18.8281C63.6758 18.2716 64.127 17.8203 64.6835 17.8203C65.2401 17.8203 65.6913 18.2716 65.6913 18.8281L65.7042 23.8104C65.7042 24.3669 65.2529 24.8182 64.6964 24.8182C64.1399 24.8182 63.6886 24.3669 63.6886 23.8104L63.6758 18.8281Z" fill="#DF7E81"/>
<path d="M27.3828 68C26.8241 68 26.3711 67.547 26.3711 66.9883C26.3711 66.4295 26.8241 65.9766 27.3828 65.9766H41.6217C42.1804 65.9766 42.6334 66.4295 42.6334 66.9883C42.6334 67.547 42.1804 68 41.6217 68H27.3828Z" fill="#DF7E81"/>
</svg>
