<svg width="70" height="70" viewBox="0 0 70 70" fill="none" xmlns="http://www.w3.org/2000/svg">
<g clip-path="url(#clip0_960_14770)">
<g clip-path="url(#clip1_960_14770)">
<path d="M50.8647 67.9766C51.4234 67.9766 51.8763 68.4295 51.8763 68.9882C51.8763 69.5469 51.4234 69.9998 50.8647 69.9998H38.6757C38.117 69.9998 37.6641 69.5469 37.6641 68.9882C37.6641 68.4295 38.117 67.9766 38.6757 67.9766H50.8647Z" fill="#DF7E81"/>
<path d="M66.0951 44.6115C66.0951 49.4313 63.555 53.7767 59.4483 56.9056C55.4185 59.976 49.868 61.8751 43.7527 61.8751C37.6372 61.8751 32.0868 59.976 28.057 56.9056C23.9503 53.7767 21.4102 49.4314 21.4102 44.6115C21.4102 39.7916 23.9502 35.4462 28.0569 32.3172C32.0868 29.2468 37.6372 27.3477 43.7527 27.3477C49.868 27.3477 55.4185 29.2468 59.4484 32.3172C63.555 35.4461 66.0951 39.7914 66.0951 44.6115ZM58.2233 55.3011C61.8368 52.548 64.0719 48.7671 64.0719 44.6115C64.0719 40.4557 61.8368 36.6749 58.2233 33.9217C54.5331 31.1101 49.418 29.371 43.7528 29.371C38.0875 29.371 32.9723 31.1101 29.2821 33.9217C25.6687 36.6748 23.4336 40.4557 23.4336 44.6115C23.4336 48.7671 25.6687 52.548 29.2822 55.3011C32.9723 58.1127 38.0875 59.8517 43.7528 59.8517C49.418 59.8517 54.5332 58.1126 58.2233 55.3011Z" fill="#DF7E81"/>
<path d="M46.7975 28.3583C46.7975 28.9169 46.3445 29.3699 45.7858 29.3699C45.2272 29.3699 44.7742 28.9169 44.7742 28.3583C44.7742 26.2072 43.687 24.3639 42.5503 22.4369C41.1562 20.0731 39.6953 17.5964 39.6953 14.1377C39.6953 11.6146 40.7182 9.32999 42.3718 7.67652C44.0254 6.02291 46.3099 5 48.833 5C51.3562 5 53.6408 6.02291 55.2943 7.67645C56.9478 9.33006 57.9707 11.6145 57.9707 14.1377V18.2007C57.9707 18.7594 57.5178 19.2124 56.9591 19.2124C56.4004 19.2124 55.9475 18.7594 55.9475 18.2007V14.1377C55.9475 12.173 55.1511 10.3943 53.8638 9.10702C52.5764 7.81971 50.7977 7.02335 48.8331 7.02335C46.8685 7.02335 45.0897 7.81971 43.8025 9.10709C42.5151 10.3944 41.7187 12.1732 41.7187 14.1377C41.7187 17.0511 43.034 19.2811 44.2893 21.4093C45.5713 23.5829 46.7975 25.662 46.7975 28.3583H46.7975Z" fill="#DF7E81"/>
<path d="M66.0957 44.6093C66.0957 45.1679 65.6428 45.6209 65.0841 45.6209C64.5254 45.6209 64.0725 45.1679 64.0725 44.6093C64.0725 37.64 59.1368 32.9519 54.7975 28.83C51.1103 25.3277 47.8203 22.2027 47.8203 18.1996C47.8203 16.7983 48.3884 15.5296 49.3067 14.6114C50.2249 13.6931 51.4938 13.125 52.895 13.125C54.2962 13.125 55.5649 13.693 56.4833 14.6113C57.4016 15.5297 57.9696 16.7984 57.9696 18.1996C57.9696 18.7583 57.5166 19.2113 56.958 19.2113C56.3993 19.2113 55.9463 18.7583 55.9463 18.1996C55.9463 17.3569 55.6048 16.5939 55.0527 16.0419C54.5006 15.4898 53.7377 15.1483 52.895 15.1483C52.0523 15.1483 51.2892 15.4898 50.7372 16.0419C50.1851 16.594 49.8436 17.3569 49.8436 18.1996C49.8436 21.3412 52.8353 24.183 56.1884 27.3679C60.8236 31.7708 66.0957 36.7786 66.0957 44.6093H66.0957Z" fill="#DF7E81"/>
<path d="M51.8828 12.1054C51.8828 11.5467 52.3358 11.0938 52.8945 11.0938C53.4531 11.0938 53.9061 11.5467 53.9061 12.1054V18.1999C53.9061 18.7585 53.4531 19.2115 52.8945 19.2115C52.3358 19.2115 51.8828 18.7585 51.8828 18.1999V12.1054Z" fill="#DF7E81"/>
<path d="M55.937 44.6109C55.937 46.6683 54.9836 48.5201 53.2407 49.8272C51.6796 50.998 49.4871 51.717 46.7993 51.717C42.3132 51.717 39.6144 50.0096 37.006 48.3592C34.8078 46.9685 32.6805 45.6226 29.5315 45.6226H26.4843C25.9256 45.6226 25.4727 45.1696 25.4727 44.6109C25.4727 40.9373 27.2002 37.6194 29.9934 35.2253C32.7434 32.8681 36.5313 31.4102 40.7048 31.4102C44.8785 31.4102 48.6663 32.8682 51.4162 35.2253C54.2093 37.6194 55.937 40.9372 55.937 44.6109ZM52.0314 48.2149C53.2482 47.3024 53.9137 46.0229 53.9137 44.6109C53.9137 41.5528 52.4579 38.7759 50.1043 36.7585C47.7076 34.7042 44.385 33.4334 40.7048 33.4334C37.0247 33.4334 33.702 34.7042 31.3053 36.7585C29.2141 38.551 27.8318 40.9431 27.5496 43.5993H29.5315C33.2556 43.5993 35.6286 45.1007 38.0808 46.6521C40.4437 48.147 42.8883 49.6937 46.7993 49.6937C49.0338 49.6937 50.8097 49.1311 52.0314 48.2148V48.2149Z" fill="#DF7E81"/>
<path d="M49.8479 10.0743C49.8479 10.6353 49.3931 11.0901 48.8321 11.0901C48.2712 11.0901 47.8164 10.6353 47.8164 10.0743C47.8164 9.51343 48.2712 9.05859 48.8321 9.05859C49.3931 9.05859 49.8479 9.51343 49.8479 10.0743Z" fill="#DF7E81"/>
<path d="M9.54033 38.3439C10.099 38.3439 10.552 38.7969 10.552 39.3555C10.552 39.9142 10.099 40.3672 9.54033 40.3672C8.29287 40.3672 7.16353 40.8728 6.34621 41.69C5.52888 42.5074 5.02335 43.6368 5.02335 44.8841C5.02335 46.1315 5.52896 47.2608 6.34628 48.0781C7.16361 48.8955 8.29294 49.401 9.54033 49.401C11.0003 49.401 13.799 48.2157 17.3482 46.7126C18.6261 46.1715 19.9954 45.5915 21.3276 45.0532C21.8449 44.8459 22.4323 45.0971 22.6397 45.6143C22.847 46.1315 22.5958 46.719 22.0785 46.9263C20.6148 47.5178 19.3296 48.062 18.1306 48.5698C14.3623 50.1657 11.3906 51.4243 9.54033 51.4243C7.73441 51.4243 6.09926 50.6922 4.91571 49.5086C3.73209 48.3251 3 46.6901 3 44.8841C3 43.0782 3.73209 41.4431 4.91564 40.2594C6.09912 39.0759 7.73427 38.3438 9.54033 38.3438V38.3439Z" fill="#DF7E81"/>
<path d="M12.2675 48.7589C12.7891 48.5647 13.3695 48.8301 13.5637 49.3517C13.758 49.8733 13.4926 50.4537 12.971 50.6479C11.4095 51.2288 10.5183 51.9648 10.0256 52.7189C9.56091 53.4299 9.44515 54.1872 9.44515 54.8355C9.44515 54.8621 9.44415 54.8885 9.44207 54.9146C9.4621 55.8263 9.84139 56.6563 10.4444 57.2616C11.05 57.8695 11.8854 58.247 12.8104 58.247C12.8368 58.247 12.8631 58.248 12.8891 58.25C13.3744 58.2387 14.0357 58.1103 14.7856 57.8195C15.4371 57.5668 16.1397 57.1948 16.8323 56.6754C17.2775 56.3416 17.9093 56.4317 18.2431 56.8769C18.577 57.3221 18.4869 57.9539 18.0417 58.2877C17.1875 58.9283 16.3191 59.3878 15.5128 59.7005C14.5253 60.0835 13.6092 60.2517 12.9098 60.2654C12.8772 60.2686 12.8439 60.2703 12.8104 60.2703C11.3294 60.2703 9.98875 59.6628 9.01394 58.6843C8.05516 57.7219 7.45369 56.3961 7.42676 54.9354C7.42353 54.9026 7.42188 54.8692 7.42188 54.8355C7.42188 53.8714 7.60377 52.7302 8.3342 51.6124C9.03649 50.5375 10.2384 49.5137 12.2674 48.7589H12.2675Z" fill="#DF7E81"/>
<path d="M31.5262 30.2517C31.668 30.7908 31.346 31.3428 30.8069 31.4847C30.2679 31.6265 29.7158 31.3045 29.574 30.7654L25.1482 14.1677L25.1473 14.1679C24.642 12.1468 24.1074 10.9133 23.394 10.2272C22.7537 9.61139 21.8627 9.40602 20.5987 9.40602C19.3513 9.40602 18.2221 9.91162 17.4047 10.7289C16.5874 11.5462 16.0819 12.6755 16.0819 13.9229C16.0819 15.1486 16.8772 16.1748 17.667 17.1941C17.7896 17.3523 17.9118 17.5101 18.0828 17.7378C21.4193 22.1831 28.1836 32.4826 28.2031 32.5124C28.5086 32.9773 28.3795 33.6019 27.9146 33.9074C27.4497 34.2129 26.8252 34.0838 26.5196 33.6189C26.5002 33.5894 19.7781 23.3541 16.4705 18.9472C16.3743 18.819 16.2223 18.6229 16.0707 18.4272C15.0681 17.1333 14.0586 15.8307 14.0586 13.9231C14.0586 12.1172 14.7907 10.482 15.9742 9.29845C17.1577 8.11497 18.7928 7.38281 20.5988 7.38281C22.3882 7.38281 23.7089 7.73044 24.7929 8.7731C25.8038 9.74532 26.507 11.2765 27.1074 13.678L27.1067 13.6782L31.5263 30.2518L31.5262 30.2517Z" fill="#DF7E81"/>
<path d="M18.8244 18.7468C19.1583 19.192 19.0682 19.8238 18.6229 20.1576C18.1777 20.4914 17.546 20.4013 17.2121 19.9561C16.6846 19.2538 16.1188 18.8258 15.5635 18.5765C15.0189 18.3318 14.4645 18.2537 13.962 18.2537C12.7147 18.2537 11.5853 18.7594 10.7679 19.5766C9.95069 20.3939 9.44508 21.5232 9.44508 22.7706C9.44508 23.7068 9.72815 24.6125 10.2127 25.4027C10.7238 26.2359 11.4552 26.9396 12.3144 27.418L25.1435 35.0949C25.6215 35.3809 25.7772 36.0002 25.4913 36.4781C25.2053 36.9561 24.5861 37.1118 24.1081 36.8259L11.3127 29.1683C10.1587 28.5209 9.17666 27.5737 8.48988 26.4539C7.81567 25.3546 7.42188 24.0876 7.42188 22.7707C7.42188 20.9647 8.15404 19.3297 9.33751 18.1461C10.5211 16.9626 12.1563 16.2305 13.9621 16.2305C14.702 16.2305 15.5342 16.3524 16.3857 16.735C17.227 17.1129 18.0682 17.7399 18.8246 18.7469L18.8244 18.7468Z" fill="#DF7E81"/>
<path d="M23.3114 51.8188C23.7567 51.4849 24.3884 51.575 24.7223 52.0203C25.0561 52.4655 24.966 53.0972 24.5208 53.4311L15.7333 60.0217C15.5014 60.248 15.302 60.4793 15.1671 60.7248C15.0481 60.941 14.9763 61.1843 14.9763 61.4706C14.9763 62.1072 15.2344 62.6837 15.6516 63.1008C16.0688 63.518 16.6453 63.776 17.2819 63.776C17.4789 63.776 17.7027 63.7031 17.9229 63.5929C18.2444 63.4322 18.5495 63.1952 18.778 62.9666L26.0757 55.669C26.4707 55.274 27.1113 55.274 27.5063 55.669C27.9013 56.064 27.9013 56.7045 27.5063 57.0996L20.2086 64.3972C19.8573 64.7485 19.3676 65.1232 18.824 65.395C18.3376 65.6383 17.8074 65.7993 17.282 65.7993C16.0868 65.7993 15.0044 65.3147 14.2211 64.5314C13.4378 63.748 12.9531 62.6657 12.9531 61.4706C12.9531 60.8167 13.12 60.2558 13.3968 59.7526C13.6502 59.2914 13.9899 58.8982 14.3711 58.5321L14.3719 58.5329C14.4012 58.5047 14.4326 58.478 14.4659 58.453L23.3115 51.8188H23.3114Z" fill="#DF7E81"/>
<path d="M22.8085 38.3424C23.3672 38.3424 23.8202 38.7954 23.8202 39.354C23.8202 39.9127 23.3672 40.3657 22.8085 40.3657H9.54002V40.362L9.49176 40.3623V40.3663C7.83786 40.3663 6.48083 39.5031 5.53719 38.2335C4.65294 37.0437 4.13922 35.4759 4.1105 33.9575C4.10719 33.7763 4.10547 33.9186 4.10547 33.8254C4.10547 32.0195 4.83756 30.3843 6.02111 29.2008C7.20458 28.0173 8.83967 27.2852 10.6457 27.2852C11.3898 27.2852 12.1531 27.5154 12.823 27.8064C13.4474 28.0776 13.985 28.399 14.3313 28.6207C14.8005 28.9218 14.9367 29.5464 14.6356 30.0157C14.3344 30.4849 13.7098 30.6211 13.2405 30.3199C12.952 30.1352 12.5089 29.8695 12.0169 29.6558C11.5705 29.4619 11.0809 29.3085 10.6457 29.3085C9.39827 29.3085 8.269 29.8141 7.45168 30.6314C6.63435 31.4487 6.12882 32.578 6.12882 33.8254C6.12882 33.996 6.12408 33.8225 6.12595 33.926C6.14684 35.0332 6.51831 36.1721 7.15748 37.0322C7.7374 37.8125 8.54252 38.343 9.49176 38.343V38.3468L9.54002 38.3464V38.3423H22.8085V38.3424Z" fill="#DF7E81"/>
<path d="M41.7266 60.8632C41.7266 60.3045 42.1795 59.8516 42.7382 59.8516C43.2969 59.8516 43.7498 60.3045 43.7498 60.8632V68.9893C43.7498 69.5479 43.2969 70.0009 42.7382 70.0009C42.1795 70.0009 41.7266 69.5479 41.7266 68.9893V60.8632Z" fill="#DF7E81"/>
</g>
</g>
<defs>
<clipPath id="clip0_960_14770">
<rect width="70" height="70" fill="white"/>
</clipPath>
<clipPath id="clip1_960_14770">
<rect width="63.0961" height="65" fill="white" transform="translate(3 5)"/>
</clipPath>
</defs>
</svg>
