<svg width="61" height="58" viewBox="0 0 61 58" fill="none" xmlns="http://www.w3.org/2000/svg">
<g clip-path="url(#clip0_346_4494)">
<path d="M20.4556 2.71285C10.6722 2.71285 2.71266 10.6722 2.71266 20.4555C2.71266 30.2391 10.6722 38.1985 20.4556 38.1985C30.2391 38.1985 38.1984 30.2391 38.1984 20.4555C38.1984 10.6722 30.2391 2.71285 20.4556 2.71285ZM20.4556 39.9117C9.72788 39.9117 1 31.1836 1 20.4555C1 9.72807 9.72773 0.999756 20.4556 0.999756C31.1837 0.999756 39.9115 9.72792 39.9115 20.4555C39.9115 31.1834 31.1838 39.9117 20.4556 39.9117Z" fill="#DF7E81"/>
<path d="M10.0657 22.1241C10.9167 27.1604 15.2863 30.8909 20.4555 30.8909C25.6244 30.8909 29.9945 27.1604 30.8455 22.1241H10.0658H10.0657ZM20.4555 32.6037C14.2236 32.6037 8.99124 27.9395 8.28418 21.7544C8.24511 21.4133 8.35377 21.0707 8.58258 20.8145C8.8111 20.5582 9.13928 20.4116 9.48256 20.4116H31.4289C31.7722 20.4116 32.1 20.5582 32.3285 20.8145C32.557 21.0707 32.6664 21.4133 32.6273 21.7544C31.92 27.9395 26.6873 32.6037 20.4557 32.6037H20.4555Z" fill="#9C9C9C"/>
<path d="M28.1433 16.4502C27.7247 16.4502 27.3591 16.1434 27.2968 15.7173C27.2124 15.1376 26.7053 14.7008 26.118 14.7008C25.5306 14.7008 25.0238 15.1376 24.9394 15.7173C24.8712 16.1855 24.436 16.5089 23.9682 16.4413C23.5003 16.3728 23.1762 15.938 23.2444 15.4702C23.4509 14.0546 24.6864 12.9875 26.1181 12.9875C27.5503 12.9875 28.7854 14.0546 28.9918 15.4702C29.06 15.9381 28.736 16.3728 28.2682 16.4413C28.2262 16.4473 28.1845 16.4502 28.1436 16.4502H28.1433Z" fill="#9C9C9C"/>
<path d="M16.818 16.4502C16.3999 16.4502 16.0338 16.1434 15.972 15.7173C15.8871 15.1376 15.3805 14.7008 14.7932 14.7008C14.2054 14.7008 13.699 15.1376 13.6141 15.7173C13.546 16.1855 13.1112 16.5089 12.643 16.4413C12.1752 16.3728 11.8511 15.938 11.9192 15.4702C12.1258 14.0546 13.3614 12.9875 14.7933 12.9875C16.225 12.9875 17.4606 14.0546 17.6672 15.4702C17.7352 15.9381 17.4111 16.3728 16.9433 16.4413C16.9013 16.4473 16.8596 16.4502 16.8183 16.4502H16.818Z" fill="#9C9C9C"/>
<path d="M29.731 42.7799C28.178 42.7799 26.8167 43.7765 26.4206 45.2015C26.2722 45.7355 26.142 46.8591 26.9364 48.3871C27.9301 50.3 30.0052 52.2352 33.1059 54.1415C36.2018 52.2376 38.2728 50.3036 39.2642 48.3922C40.057 46.864 39.9261 45.7393 39.7774 45.2053C39.3811 43.779 38.0211 42.7824 36.4698 42.7824C35.3791 42.7824 34.4197 43.3277 33.8373 44.2791C33.6815 44.5343 33.4048 44.6888 33.1067 44.6888C33.1059 44.6888 33.1057 44.6888 33.1049 44.6888C32.8062 44.6888 32.5293 44.5318 32.3746 44.2767C31.789 43.3115 30.8502 42.7799 29.7309 42.7799H29.731ZM33.1065 56.0001C32.9536 56.0001 32.8004 55.9592 32.6646 55.8772L32.5057 55.7814C24.1532 50.7509 24.3137 46.3865 24.7705 44.7427C25.3715 42.5788 27.4116 41.0681 29.7312 41.0681C31.0416 41.0681 32.2238 41.5607 33.1086 42.4504C33.9936 41.5621 35.1712 41.0681 36.4701 41.0681C38.7878 41.0681 40.8268 42.5812 41.4285 44.7465C41.8854 46.3903 42.048 50.756 33.7074 55.7814L33.5489 55.8769C33.4128 55.9587 33.2598 56.0001 33.1068 56.0001H33.1065Z" fill="#DF7E81"/>
<path d="M10.0498 54.9994C9.5766 54.9994 9.19336 54.616 9.19336 54.1432V51.4879C9.19336 51.0146 9.57674 50.6313 10.0498 50.6313C10.5229 50.6313 10.9063 51.0147 10.9063 51.4879V54.1432C10.9063 54.6161 10.5228 54.9994 10.0498 54.9994Z" fill="#9C9C9C"/>
<path d="M10.0498 46.7407C9.5766 46.7407 9.19336 46.3576 9.19336 45.8846V43.2291C9.19336 42.7561 9.57674 42.3726 10.0498 42.3726C10.5229 42.3726 10.9063 42.7562 10.9063 43.2291V45.8846C10.9063 46.3578 10.5228 46.7407 10.0498 46.7407Z" fill="#9C9C9C"/>
<path d="M7.24924 49.5425H4.59244C4.11971 49.5425 3.73633 49.1589 3.73633 48.686C3.73633 48.2128 4.11986 47.8296 4.59244 47.8296H7.24924C7.7224 47.8296 8.10564 48.213 8.10564 48.686C8.10564 49.159 7.72226 49.5425 7.24924 49.5425Z" fill="#9C9C9C"/>
<path d="M15.5067 49.5425H12.8511C12.3784 49.5425 11.9951 49.1589 11.9951 48.686C11.9951 48.2128 12.3785 47.8296 12.8511 47.8296H15.5067C15.9797 47.8296 16.3631 48.213 16.3631 48.686C16.3631 49.159 15.9796 49.5425 15.5067 49.5425Z" fill="#9C9C9C"/>
<path d="M47.0175 39.6731C46.5444 39.6731 46.1611 39.2897 46.1611 38.816V36.6734C46.1611 36.2009 46.5445 35.8176 47.0175 35.8176C47.4907 35.8176 47.8739 36.201 47.8739 36.6734V38.816C47.8739 39.2897 47.4906 39.6731 47.0175 39.6731Z" fill="#9C9C9C"/>
<path d="M47.0175 32.2876C46.5444 32.2876 46.1611 31.9042 46.1611 31.4318V29.2891C46.1611 28.8154 46.5445 28.4321 47.0175 28.4321C47.4907 28.4321 47.8739 28.8154 47.8739 29.2891V31.4318C47.8739 31.9044 47.4906 32.2876 47.0175 32.2876Z" fill="#9C9C9C"/>
<path d="M44.3977 34.9091H42.2539C41.7808 34.9091 41.3975 34.5257 41.3975 34.0533C41.3975 33.5795 41.781 33.1963 42.2539 33.1963H44.3977C44.8707 33.1963 45.2542 33.5795 45.2542 34.0533C45.2542 34.5259 44.8706 34.9091 44.3977 34.9091Z" fill="#9C9C9C"/>
<path d="M51.7813 34.9091H49.6383C49.1656 34.9091 48.7822 34.5257 48.7822 34.0533C48.7822 33.5795 49.1658 33.1963 49.6383 33.1963H51.7813C52.2543 33.1963 52.6378 33.5795 52.6378 34.0533C52.6378 34.5259 52.2542 34.9091 51.7813 34.9091Z" fill="#9C9C9C"/>
<path d="M47.6441 11.7949C46.0911 11.7949 44.7298 12.7915 44.3337 14.2165C44.1853 14.7505 44.0551 15.8741 44.8496 17.4022C45.8433 19.3149 47.9183 21.2503 51.019 23.1565C54.1149 21.2526 56.1861 19.3186 57.1773 17.4073C57.97 15.8792 57.8391 14.7543 57.6905 14.2203C57.2942 12.794 55.9341 11.7974 54.3829 11.7974C53.2922 11.7974 52.3328 12.3429 51.7503 13.2941C51.5946 13.5492 51.3179 13.7038 51.0199 13.7038C51.019 13.7038 51.0189 13.7038 51.018 13.7038C50.7193 13.7038 50.4424 13.5468 50.2877 13.2917C49.7021 12.3265 48.7633 11.7949 47.644 11.7949H47.6441ZM51.0196 25.0151C50.8666 25.0151 50.7135 24.9742 50.5777 24.8922L50.4188 24.7965C42.0663 19.7659 42.2268 15.4015 42.6835 13.7577C43.2846 11.5938 45.3247 10.0833 47.6443 10.0833C48.9547 10.0833 50.1369 10.5759 51.0216 11.4656C51.9067 10.577 53.0843 10.0833 54.3832 10.0833C56.7009 10.0833 58.7399 11.5962 59.3416 13.7616C59.7985 15.4053 59.961 19.771 51.6205 24.7965L51.462 24.8921C51.3259 24.9739 51.1729 25.0151 51.0199 25.0151H51.0196Z" fill="#DF7E81"/>
</g>
<defs>
<clipPath id="clip0_346_4494">
<rect width="58.5146" height="55" fill="white" transform="translate(1 1)"/>
</clipPath>
</defs>
</svg>
