<svg width="61" height="58" viewBox="0 0 61 58" fill="none" xmlns="http://www.w3.org/2000/svg">
<g clip-path="url(#clip0_346_4341)">
<path d="M8.92062 2.8252C8.09456 2.8252 7.32044 3.14578 6.73743 3.72864C6.15457 4.3115 5.83293 5.08562 5.83293 5.91002L5.8252 51.0808C5.8252 51.904 6.14563 52.681 6.72864 53.2625C7.3115 53.8454 8.08562 54.1675 8.91002 54.1675L51.1614 54.1752C51.9861 54.1752 52.7611 53.8546 53.3441 53.2717C53.9259 52.6889 54.2476 51.9148 54.2476 51.0901L54.2568 5.9191C54.2568 5.09592 53.9362 4.32044 53.3534 3.73743C52.7705 3.15457 51.9949 2.83293 51.1717 2.83293L8.92062 2.8252ZM51.1614 55.9999L8.91002 55.9922C6.20257 55.9922 4 53.7886 4 51.0808L4.00924 5.91002C4.00924 4.59847 4.51986 3.36521 5.44799 2.43875C6.37566 1.51078 7.60876 1 8.92062 1L51.1717 1.00924C52.4835 1.00924 53.7165 1.51986 54.6432 2.44799C55.5712 3.37566 56.0815 4.60876 56.0805 5.92062L56.0728 51.0901C56.0728 52.4019 55.562 53.6347 54.634 54.5627C53.706 55.4896 52.4732 55.9999 51.1614 55.9999Z" fill="#DF7E81"/>
<path d="M49.5626 50.2941C49.0585 50.2941 48.6504 49.8855 48.6504 49.3814L48.6555 21.0719C48.6555 20.569 49.0636 20.1609 49.5678 20.1609C50.0719 20.1609 50.4804 20.569 50.4804 21.0719L50.4753 49.3814C50.4753 49.8855 50.0667 50.2941 49.5626 50.2941Z" fill="#DF7E81"/>
<path d="M10.5108 50.2863C10.0082 50.2863 9.59961 49.8777 9.59961 49.3736L9.60476 21.0653C9.60476 20.5612 10.0133 20.1531 10.517 20.1531C11.0211 20.1531 11.4295 20.5612 11.4295 21.0653L11.423 49.3751C11.423 49.8788 11.0147 50.2863 10.5108 50.2863Z" fill="#DF7E81"/>
<path d="M30.0406 13.7992C33.343 13.8007 36.4925 14.943 39.0078 17.0358L43.566 12.3789C39.8735 8.96552 35.1071 7.09519 30.0447 7.09413C24.9808 7.09413 20.2156 8.96189 16.5229 12.3738L21.0775 17.0327C23.5951 14.9419 26.7438 13.7992 30.0406 13.7992ZM39.0541 19.2068C38.8277 19.2068 38.6032 19.124 38.4273 18.9573C36.1525 16.8083 33.1748 15.6256 30.043 15.6243C26.9113 15.6243 23.9335 16.8068 21.6587 18.9536C21.2973 19.2948 20.7282 19.2845 20.3806 18.9277L14.5752 12.9942C14.2274 12.6377 14.2286 12.0676 14.5804 11.7134C18.7005 7.55812 24.1907 5.26953 30.042 5.26953C35.8978 5.27059 41.3892 7.56084 45.5087 11.7185C45.8589 12.0738 45.8614 12.6439 45.5124 12.9994L39.7054 18.9317C39.527 19.1139 39.2904 19.207 39.0541 19.207V19.2068Z" fill="#9C9C9C"/>
<path d="M30.0431 15.6242C29.5405 15.6242 29.1309 15.2156 29.1309 14.712L29.1319 10.0474C29.1319 9.54333 29.5405 9.13477 30.0446 9.13477C30.5483 9.13477 30.9568 9.54333 30.9568 10.0474L30.9556 14.712C30.9556 15.2156 30.5472 15.6242 30.0431 15.6242Z" fill="#9C9C9C"/>
<path d="M30.0414 23.3879C28.3946 23.3879 27.0544 24.7268 27.0544 26.3736L27.0503 46.3857C27.0503 47.1844 27.3606 47.9339 27.9255 48.4988C28.4891 49.0623 29.2385 49.3725 30.0357 49.3725C30.8348 49.3725 31.5843 49.0633 32.1477 48.4988C32.7127 47.9353 33.0225 47.1857 33.0225 46.3883L33.0276 26.3746C33.0276 24.7283 31.6876 23.3879 30.0411 23.3879H30.0414ZM30.0388 51.1973C28.7514 51.1973 27.5428 50.6973 26.6342 49.7882C25.7258 48.8798 25.2256 47.6715 25.2256 46.3856L25.2295 26.3734C25.2307 23.7197 27.3892 21.5627 30.0414 21.5627C32.6946 21.5627 34.8516 23.7223 34.8516 26.376L34.8477 46.3881C34.8477 47.6729 34.3477 48.8811 33.4379 49.7897C32.5293 50.6971 31.3222 51.1973 30.0388 51.1973Z" fill="#DF7E81"/>
</g>
<defs>
<clipPath id="clip0_346_4341">
<rect width="52.0806" height="55" fill="white" transform="translate(4 1)"/>
</clipPath>
</defs>
</svg>
