<svg width="56" height="60" viewBox="0 0 56 60" fill="none" xmlns="http://www.w3.org/2000/svg">
<g clip-path="url(#clip0_346_4467)">
<path d="M27.3638 2.7166C27.5191 2.65527 27.6737 2.59818 27.8275 2.54578C28.0954 2.45444 28.372 2.37276 28.6563 2.30192C30.2613 1.90129 31.8287 1.91388 33.3154 2.25845C34.822 2.60784 36.2394 3.29668 37.5232 4.24051C38.7102 4.40108 39.8171 4.81503 40.8086 5.42717C41.8234 6.05365 42.7154 6.88843 43.4456 7.87105C44.2202 8.14769 44.9613 8.5129 45.6529 8.95612C46.4246 9.45043 47.1363 10.0434 47.7661 10.7198C49.1944 12.2538 50.1052 14.0681 50.6441 16.0028C51.1534 17.8302 51.3274 19.7621 51.2937 21.6606C51.6209 22.3512 51.8971 23.0646 52.1136 23.7799C52.352 24.5672 52.5262 25.3722 52.6258 26.1689C52.8749 28.1626 52.6607 30.0496 52.0432 31.7786C51.4489 33.4429 50.4796 34.9557 49.1899 36.2704C49.1696 37.9625 48.8265 39.6152 48.1691 41.1227C47.5307 42.5865 46.5982 43.9129 45.379 45.0067C45.3271 45.5995 45.2199 46.1879 45.052 46.7617C44.855 47.436 44.5778 48.0846 44.2124 48.6913C43.7319 49.49 43.1345 50.1697 42.4458 50.7353C41.7928 51.2716 41.0655 51.6992 40.2846 52.0228C39.1918 53.4373 37.8423 54.7516 36.2915 55.6705C34.8787 56.5079 33.2986 57.0205 31.5883 56.9958C30.7126 56.983 29.8905 56.8364 29.122 56.5793C28.5005 56.3716 27.9146 56.0921 27.3639 55.7532C26.8162 56.0903 26.2332 56.3689 25.6148 56.5764C24.8501 56.8333 24.0324 56.9807 23.1618 56.9955L23.0282 56.9968L23.0247 57.0002C21.3389 57.0002 19.7784 56.4769 18.3799 55.6371C16.8503 54.7189 15.5206 53.4195 14.442 52.0228C13.6613 51.6992 12.934 51.2716 12.2812 50.7353C11.5926 50.1697 10.9953 49.49 10.5146 48.6916C10.1495 48.0849 9.87228 47.4363 9.67497 46.7618C9.50737 46.188 9.40008 45.5998 9.34811 45.0069C8.12896 43.9132 7.1964 42.5866 6.55821 41.123C5.90084 39.6155 5.55788 37.9625 5.53753 36.2706C4.24783 34.9557 3.27853 33.4427 2.6841 31.7783C2.06669 30.0492 1.85255 28.1621 2.10168 26.1686C2.20121 25.3722 2.37554 24.5667 2.61414 23.7788C2.83062 23.0636 3.10669 22.3502 3.43383 21.66C3.40017 19.7615 3.57421 17.8298 4.0833 16.0025C4.62255 14.068 5.533 12.2538 6.96132 10.7198C7.59103 10.0435 8.3027 9.45072 9.07454 8.95612C9.76631 8.5129 10.5073 8.14784 11.2816 7.87105C12.012 6.88814 12.904 6.05322 13.9188 5.42673C14.9102 4.81444 16.0174 4.4005 17.2043 4.24007C18.4883 3.2961 19.906 2.60711 21.4129 2.25771C22.901 1.913 24.4698 1.90071 26.076 2.30221C26.3513 2.37101 26.6268 2.45283 26.9007 2.54607C27.0544 2.59847 27.2085 2.65527 27.3635 2.7166H27.3638ZM28.3884 4.20128C28.1541 4.28135 27.9284 4.36859 27.7127 4.46256L27.3639 4.61464L27.015 4.46256C26.7995 4.36888 26.5742 4.28164 26.34 4.20172C26.1157 4.12516 25.8861 4.05725 25.6522 3.99884C24.3252 3.66716 23.0304 3.67696 21.8033 3.96123C20.473 4.26949 19.2141 4.90183 18.0718 5.77349L17.8766 5.92221L17.6304 5.94797C16.6188 6.05351 15.6758 6.39251 14.8357 6.91097C13.9436 7.46193 13.1647 8.21517 12.5397 9.10806L12.3706 9.34958L12.095 9.43974C11.3647 9.67863 10.6667 10.0118 10.0189 10.4268C9.36846 10.8435 8.76964 11.3419 8.24093 11.9098C7.01739 13.2241 6.23384 14.7903 5.76647 16.4674C5.28797 18.1842 5.13661 20.0205 5.18302 21.8282L5.18843 22.0394L5.09417 22.2319C4.77917 22.8736 4.50793 23.5662 4.29042 24.2846C4.07964 24.981 3.92624 25.6875 3.83973 26.3802C3.625 28.0974 3.80665 29.7152 4.33316 31.1894C4.87782 32.7148 5.79106 34.0935 7.01621 35.277L7.2892 35.5407L7.28306 35.9201C7.25744 37.4938 7.55239 39.0332 8.15926 40.4248C8.73963 41.7557 9.60764 42.9521 10.7557 43.9132L11.0484 44.1584L11.0668 44.5426C11.0951 45.1328 11.1875 45.7154 11.3511 46.2757C11.5033 46.7964 11.7217 47.3044 12.0127 47.7881C12.3924 48.4191 12.8577 48.9507 13.3892 49.3872C13.9497 49.8477 14.5938 50.2107 15.2977 50.4803L15.5304 50.5696L15.6842 50.7746C16.6658 52.0829 17.8825 53.3019 19.2758 54.1385C20.4145 54.8221 21.6755 55.2484 23.0244 55.2484V55.2517L23.1341 55.2504C23.8157 55.2388 24.458 55.1228 25.0604 54.9203C25.7029 54.7044 26.3021 54.3884 26.8576 53.9948L27.3638 53.6359L27.8701 53.9948C28.4275 54.39 29.03 54.7071 29.6761 54.9233C30.2805 55.1255 30.9249 55.2409 31.6087 55.2508C32.9682 55.2705 34.2453 54.8505 35.402 54.1649C36.8165 53.3266 38.0503 52.0954 39.042 50.7744L39.196 50.5695L39.4285 50.4803C40.1325 50.2107 40.7766 49.8477 41.3373 49.3872C41.8688 48.9507 42.3341 48.4189 42.714 47.7879C43.0051 47.3043 43.2234 46.7964 43.3756 46.2756C43.5392 45.7154 43.6316 45.1327 43.6599 44.5423L43.6782 44.1581L43.9711 43.9129C45.1191 42.9517 45.9874 41.7552 46.5676 40.4245C47.1746 39.0329 47.4697 37.4937 47.4439 35.9198L47.4378 35.5406L47.7108 35.2768C48.9358 34.0934 49.849 32.715 50.3938 31.1897C50.9203 29.7153 51.102 28.0979 50.8874 26.3804C50.8008 25.6874 50.6476 24.9812 50.437 24.2858C50.2194 23.5671 49.9481 22.8745 49.633 22.2325L49.5386 22.04L49.5441 21.8288C49.5907 20.021 49.439 18.1846 48.9605 16.4676C48.4932 14.7905 47.7098 13.2241 46.4861 11.9098C45.9572 11.3419 45.3585 10.8435 44.7082 10.4268C44.0605 10.0119 43.3624 9.67877 42.6319 9.43974L42.3564 9.34972L42.1873 9.10821C41.5623 8.21547 40.7834 7.46251 39.8913 6.91156C39.0512 6.3931 38.1081 6.05395 37.0967 5.94826L36.8503 5.9225L36.6554 5.77379C35.5134 4.90242 34.2544 4.27022 32.9244 3.96196C31.6963 3.6774 30.4008 3.66716 29.0727 3.99855C28.8469 4.05476 28.6182 4.12282 28.3877 4.20128H28.3884Z" fill="#DF7E81"/>
<path d="M43.6171 8.30732C43.4653 7.85253 42.973 7.60764 42.5197 7.75826C37.1239 9.55692 37.0615 14.066 37.0615 14.2572C37.0615 14.7341 37.4462 15.1187 37.9231 15.1218C37.9254 15.1218 37.9275 15.1218 37.9292 15.1218C38.4033 15.1218 38.7905 14.7374 38.7968 14.2632C38.7991 14.1221 38.8925 10.7966 43.0683 9.40469C43.5227 9.2529 43.7683 8.7621 43.6172 8.30732H43.6171Z" fill="#DF7E81"/>
<path d="M48.9463 35.184C48.5885 34.8653 48.0408 34.8959 47.7213 35.2541C46.5378 36.5802 45.3554 37.2003 44.2097 37.0972C42.1687 36.9143 40.7017 34.5563 40.6875 34.5323C40.4388 34.1232 39.9049 33.9931 39.4971 34.2416C39.0872 34.4899 38.9565 35.0235 39.205 35.4334C39.2823 35.5607 41.1296 38.5563 44.0445 38.8246C44.4791 38.8649 44.9103 38.8432 45.3368 38.7608C46.6069 38.515 47.8404 37.7281 49.0164 36.4093C49.3354 36.0515 49.3036 35.5026 48.9463 35.184Z" fill="#DF7E81"/>
<path d="M33.5218 37.3441C33.1834 37.0054 32.6335 37.0054 32.295 37.3441C31.9563 37.683 31.9563 38.2325 32.295 38.5709C35.1123 41.3882 34.5279 44.11 34.498 44.2388C34.3853 44.7022 34.6675 45.1698 35.1303 45.2857C35.2004 45.3031 35.2714 45.3116 35.3413 45.3116C35.7299 45.3116 36.084 45.0483 36.1823 44.6539C36.2204 44.502 37.0713 40.8936 33.5215 37.3441H33.5218Z" fill="#DF7E81"/>
<path d="M46.7762 29.7791C46.613 29.3297 46.1153 29.097 45.6656 29.259C45.4901 29.3217 41.3531 30.7683 39.1556 27.8439C38.0145 26.3248 37.524 25.0242 37.1299 23.9794C36.6461 22.6975 36.1899 21.4861 34.673 21.3612C34.1998 21.3213 33.776 21.6769 33.7374 22.1549C33.6979 22.632 34.053 23.0511 34.5309 23.0905C34.8943 23.1198 35.0307 23.3307 35.5063 24.5914C35.9168 25.6793 36.4787 27.1688 37.7687 28.8856C39.2807 30.8978 41.3899 31.4034 43.1291 31.4034C44.8128 31.4034 46.1494 30.9292 46.2593 30.8895C46.7087 30.7257 46.9394 30.2286 46.7763 29.7792L46.7762 29.7791Z" fill="#DF7E81"/>
<path d="M27.3471 3.2124C26.8683 3.2124 26.4795 3.6669 26.4795 4.22678V54.4637C26.4795 55.0234 26.8683 55.4781 27.3471 55.4781C27.826 55.4781 28.2148 55.0243 28.2148 54.4641V4.22678C28.2148 3.66704 27.8263 3.2124 27.3471 3.2124Z" fill="#DF7E81"/>
<path d="M35.7647 16.5848C35.7577 16.1059 35.378 15.7172 34.8844 15.7295C34.4049 15.7366 34.0225 16.131 34.0293 16.6098C34.0299 16.6638 34.0773 22.0736 31.372 25.5046C31.0753 25.8809 31.1395 26.4265 31.5162 26.7232C31.6754 26.8489 31.8645 26.9098 32.0528 26.9098C32.3094 26.9098 32.5633 26.7966 32.7341 26.5794C35.8171 22.6702 35.7681 16.8314 35.7647 16.5848Z" fill="#DF7E81"/>
<path d="M37.773 42.7651C33.9482 42.7651 32.1593 48.0001 32.0848 48.2233C31.9333 48.6774 32.1785 49.1677 32.6329 49.3197C32.7239 49.3504 32.817 49.3647 32.9078 49.3647C33.2705 49.3647 33.6087 49.1358 33.731 48.7725C34.1307 47.5842 35.636 44.5004 37.773 44.5004C38.2518 44.5004 38.6405 44.1118 38.6405 43.6328C38.6405 43.1539 38.2518 42.7651 37.773 42.7651Z" fill="#DF7E81"/>
<path d="M37.3446 4.54666C36.9609 4.26065 36.417 4.34013 36.131 4.7248L34.0494 7.52188C33.7635 7.90553 33.8433 8.44946 34.2277 8.73547C34.3828 8.85155 34.5643 8.90732 34.7445 8.90732C35.0099 8.90732 35.2712 8.78671 35.4414 8.55719L37.523 5.76026C37.8089 5.3769 37.7291 4.83327 37.3447 4.54666H37.3446Z" fill="#DF7E81"/>
<path d="M17.7178 10.2051C15.8042 10.2051 14.2471 11.7619 14.2471 13.6758C14.2471 15.5893 15.8041 17.1465 17.7178 17.1465C19.6315 17.1465 21.1885 15.5895 21.1885 13.6758C21.1882 11.7621 19.6316 10.2051 17.7178 10.2051ZM17.7178 15.4109C16.7609 15.4109 15.9823 14.6325 15.9823 13.6755C15.9823 12.7185 16.7609 11.9401 17.7178 11.9401C18.6748 11.9401 19.4533 12.7185 19.4533 13.6755C19.4529 14.6328 18.6745 15.4109 17.7178 15.4109Z" fill="#9C9C9C"/>
<path d="M10.207 23.561C8.29346 23.561 6.73633 25.1179 6.73633 27.0317C6.73633 28.9453 8.29332 30.5024 10.207 30.5024C12.1207 30.5024 13.6777 28.9454 13.6777 27.0317C13.6777 25.118 12.1209 23.561 10.207 23.561ZM10.207 28.7672C9.25002 28.7672 8.4716 27.9887 8.4716 27.0317C8.4716 26.0747 9.25002 25.2963 10.207 25.2963C11.164 25.2963 11.9424 26.0747 11.9424 27.0317C11.9424 27.9887 11.164 28.7672 10.207 28.7672Z" fill="#9C9C9C"/>
<path d="M20.3213 31.3699C18.4077 31.3699 16.8506 32.9269 16.8506 34.8406C16.8506 36.7543 18.4076 38.3113 20.3213 38.3113C22.2348 38.3113 23.792 36.7544 23.792 34.8406C23.7917 32.927 22.2347 31.3699 20.3213 31.3699ZM20.3213 36.5757C19.3643 36.5757 18.5859 35.7973 18.5859 34.8403C18.5859 33.8833 19.3643 33.1049 20.3213 33.1049C21.2783 33.1049 22.0567 33.8833 22.0567 34.8403C22.0567 35.7973 21.278 36.5757 20.3213 36.5757Z" fill="#9C9C9C"/>
<path d="M20.3213 42.3149C18.4077 42.3149 16.8506 43.8718 16.8506 45.7856C16.8506 47.6992 18.4076 49.2563 20.3213 49.2563C22.2348 49.2563 23.792 47.6993 23.792 45.7856C23.7917 43.8716 22.2347 42.3149 20.3213 42.3149ZM20.3213 47.5206C19.3643 47.5206 18.5859 46.7422 18.5859 45.7852C18.5859 44.8282 19.3643 44.0498 20.3213 44.0498C21.2783 44.0498 22.0567 44.8282 22.0567 45.7852C22.0561 46.7422 21.278 47.5206 20.3213 47.5206Z" fill="#9C9C9C"/>
<path d="M17.7182 15.7976C17.2394 15.7976 16.8506 16.1862 16.8506 16.6652V27.0319C16.8506 27.5108 17.2394 27.8994 17.7182 27.8994C18.1978 27.8994 18.5859 27.5114 18.5859 27.0319V16.6652C18.5859 16.1862 18.1971 15.7976 17.7182 15.7976Z" fill="#9C9C9C"/>
<path d="M20.3207 26.1641H13.4017C12.9232 26.1641 12.5342 26.5528 12.5342 27.0318C12.5342 27.5107 12.9232 27.8993 13.4017 27.8993H20.3204C20.8 27.8993 21.188 27.5107 21.188 27.0318C21.188 26.5528 20.7997 26.1641 20.3207 26.1641Z" fill="#9C9C9C"/>
<path d="M20.3207 26.1641C19.8418 26.1641 19.4531 26.5528 19.4531 27.0318V32.2376C19.4531 32.7164 19.8418 33.1052 20.3207 33.1052C20.8002 33.1052 21.1883 32.7171 21.1883 32.2376V27.0318C21.188 26.5528 20.7996 26.1641 20.3207 26.1641Z" fill="#9C9C9C"/>
<path d="M20.3207 36.5759C19.8418 36.5759 19.4531 36.9647 19.4531 37.4436V42.8203C19.4531 43.2989 19.8418 43.6877 20.3207 43.6877C20.8002 43.6877 21.1883 43.2995 21.1883 42.8203V37.4436C21.188 36.9647 20.7996 36.5759 20.3207 36.5759Z" fill="#9C9C9C"/>
</g>
<defs>
<clipPath id="clip0_346_4467">
<rect width="50.7274" height="55" fill="white" transform="translate(2 2)"/>
</clipPath>
</defs>
</svg>
