<svg width="61" height="58" viewBox="0 0 61 58" fill="none" xmlns="http://www.w3.org/2000/svg">
<g clip-path="url(#clip0_346_4420)">
<path d="M32.7954 55.7936C32.6887 55.7936 32.582 55.7743 32.4805 55.7352C31.7474 55.4527 29.7761 54.6636 27.3183 53.4398C26.8855 53.2244 26.7094 52.6991 26.9249 52.2665C27.1403 51.8339 27.6657 51.6577 28.0981 51.8731C30.1959 52.9176 31.9232 53.6342 32.7953 53.9791C34.2538 53.4021 38.0263 51.8167 41.9533 49.4128C46.4053 46.6872 51.9814 42.3284 53.2632 37.041C54.3645 32.4993 55.0448 25.3133 55.2311 16.2596C55.3426 10.8309 55.2446 10.5144 55.1963 8.76593C55.0309 8.62208 54.8173 8.44545 54.5531 8.2465C53.828 7.69959 52.5812 6.87243 50.7561 6.0394C47.4704 4.53866 41.6869 2.75008 32.7953 2.75008C18.4298 2.75008 12.0335 7.33847 10.3937 8.76478C10.3456 10.5139 10.2474 10.8303 10.3592 16.2596C10.4705 21.674 10.7579 26.422 11.2131 30.3715C11.2685 30.8515 10.9241 31.2856 10.4438 31.3412C9.96383 31.3966 9.52971 31.052 9.47417 30.5718C9.01286 26.5679 8.72187 21.7648 8.60937 16.2957C8.48756 10.38 8.61352 9.71976 8.65488 8.34111C8.6619 8.11052 8.75966 7.89167 8.92712 7.73266C9.61602 7.0784 11.6315 5.3933 15.4598 3.87109C17.6101 3.01602 20.014 2.34144 22.6048 1.86495C25.7264 1.29084 29.155 1 32.7953 1C42.0017 1 48.0392 2.87446 51.4829 4.44705C53.452 5.34621 54.8126 6.24966 55.6074 6.84924C56.1074 7.22654 56.4573 7.53828 56.6633 7.73394C56.8306 7.89239 56.9287 8.11124 56.9357 8.3424C56.9769 9.72105 57.1029 10.3806 56.9811 16.2958C56.7923 25.4743 56.0945 32.7904 54.9642 37.4535C54.3182 40.1196 52.6799 42.7797 50.0955 45.3598C48.1706 47.2818 45.7386 49.1477 42.8672 50.9055C38.4877 53.5866 34.2916 55.28 33.1099 55.7352C33.0087 55.7743 32.9019 55.7936 32.7954 55.7936Z" fill="#DF7E81"/>
<path d="M29.3762 35.6779H36.215V29.2903C36.215 28.8071 36.6068 28.4153 37.09 28.4153H43.4776V21.5762H37.09C36.6068 21.5762 36.215 21.1844 36.215 20.7012V14.3139H29.3762V20.7012C29.3762 21.1844 28.9841 21.5762 28.5009 21.5762H22.1136V28.4153H28.5009C28.9841 28.4153 29.3762 28.8071 29.3762 29.2903V35.6779ZM37.09 37.4279H28.5009C28.0177 37.4279 27.6258 37.036 27.6258 36.5528V30.1654H21.2384C20.7552 30.1654 20.3633 29.7735 20.3633 29.2903V20.7012C20.3633 20.2179 20.7552 19.8261 21.2384 19.8261H27.6258V13.4387C27.6258 12.9555 28.0177 12.5637 28.5009 12.5637H37.09C37.5732 12.5637 37.9653 12.9555 37.9653 13.4387V19.8261H44.3525C44.8358 19.8261 45.2276 20.2179 45.2276 20.7012V29.2903C45.2276 29.7735 44.8358 30.1654 44.3525 30.1654H37.9653V36.5528C37.9653 37.036 37.5732 37.4279 37.09 37.4279Z" fill="#9C9C9C"/>
<path d="M15.502 32.5648C14.6654 32.5648 13.9848 33.2455 13.9848 34.082C13.9848 34.7878 14.4639 35.3945 15.1496 35.5574L15.502 35.6413L15.8546 35.5574C16.5403 35.3945 17.0191 34.7878 17.0191 34.082C17.0191 33.6768 16.8612 33.2957 16.5748 33.009C16.2883 32.7226 15.9074 32.5648 15.502 32.5648ZM21.0577 37.9424L21.3662 38.1325C21.9662 38.502 22.7339 38.4119 23.2329 37.9128C23.5194 37.6262 23.6772 37.2452 23.6772 36.84C23.6772 36.4346 23.5194 36.0538 23.2329 35.7671C22.9463 35.4807 22.5656 35.3228 22.1601 35.3228C21.7551 35.3228 21.3739 35.4807 21.0875 35.7671C20.5882 36.2662 20.4979 37.0339 20.8676 37.6338L21.0577 37.9424ZM8.84395 35.3228C8.43874 35.3228 8.05772 35.4807 7.77103 35.7671C7.48462 36.0536 7.32689 36.4345 7.32689 36.84C7.32689 37.245 7.48462 37.6261 7.77103 37.9128C8.27013 38.4119 9.03789 38.5022 9.6379 38.1325L9.94635 37.9424L10.1364 37.6338C10.506 37.0339 10.4158 36.2662 9.91672 35.7671C9.63017 35.4807 9.24915 35.3228 8.84395 35.3228ZM6.08608 41.981C5.24947 41.981 4.56902 42.6616 4.56902 43.4981C4.56902 44.3345 5.24947 45.0153 6.08608 45.0153C6.79186 45.0153 7.39845 44.5362 7.56148 43.8506L7.64536 43.4981L7.56148 43.1455C7.39845 42.4598 6.79186 41.981 6.08608 41.981ZM23.3588 43.4981L23.4427 43.8506C23.6056 44.5362 24.2123 45.0153 24.9181 45.0153C25.3232 45.0153 25.7044 44.8573 25.9909 44.571C26.2775 44.2844 26.4352 43.9033 26.4352 43.4981C26.4352 43.0927 26.2775 42.7118 25.9909 42.4253C25.7045 42.1387 25.3233 41.981 24.9181 41.981C24.2123 41.981 23.6056 42.4598 23.4427 43.1455L23.3588 43.4981ZM12.2141 46.7862L12.5691 47.0778C13.2759 47.6586 14.1323 48.013 15.0452 48.1032L15.5023 48.1481L15.9592 48.1032C16.8721 48.013 17.7282 47.6586 18.4351 47.0778L18.7902 46.7862L19.0821 46.4311C19.6627 45.7243 20.0173 44.8678 20.1072 43.9549L20.1524 43.4981L20.1072 43.0409C20.0173 42.1283 19.6627 41.2721 19.0821 40.5651L18.7902 40.2099L18.4351 39.9183C17.7283 39.3375 16.8721 38.9831 15.9592 38.8929L15.5022 38.8478L15.0452 38.8929C14.1323 38.9831 13.276 39.3375 12.5694 39.9183L12.2141 40.2099L11.9223 40.5651C11.3415 41.2719 10.9871 42.128 10.897 43.0412L10.8521 43.4981L10.897 43.9549C10.9871 44.8678 11.3415 45.7242 11.9223 46.4311L12.2141 46.7862ZM8.84309 48.6374C8.45205 48.6374 8.06502 48.7895 7.77117 49.0834C7.48476 49.3699 7.32703 49.7508 7.32703 50.1562C7.32703 50.5614 7.48476 50.9424 7.77117 51.2291C8.36274 51.8205 9.3253 51.8205 9.91687 51.2291C10.416 50.7298 10.5063 49.9622 10.1366 49.3621L9.9465 49.0536L9.63805 48.8637C9.39129 48.7117 9.11633 48.6374 8.84309 48.6374ZM21.0579 49.0536L20.8678 49.3621C20.4982 49.9622 20.5884 50.7298 21.0876 51.2291C21.3739 51.5156 21.7551 51.6734 22.1603 51.6734C22.5656 51.6734 22.9463 51.5156 23.233 51.2291C23.5196 50.9425 23.6773 50.5615 23.6773 50.1562C23.6773 49.7509 23.5196 49.3701 23.233 49.0834C22.7341 48.5843 21.9663 48.4938 21.3663 48.8637L21.0579 49.0536ZM15.5023 51.3547L15.1498 51.4385C14.464 51.6016 13.985 52.2084 13.985 52.914C13.985 53.7506 14.6656 54.4311 15.5022 54.4311C15.9074 54.4311 16.2883 54.2732 16.575 53.9868C16.8614 53.7002 17.0192 53.3194 17.0192 52.9139C17.0192 52.2084 16.5405 51.6016 15.8547 51.4385L15.5023 51.3547ZM15.5022 56.0001C13.8003 56.0001 12.4158 54.6157 12.4158 52.9139C12.4158 52.2155 12.656 51.5311 13.0918 50.9867C13.386 50.6195 13.762 50.3243 14.1836 50.1245V49.5537C13.4601 49.3973 12.7736 49.113 12.1522 48.7125L11.7487 49.1157C11.9057 49.5553 11.9627 50.0299 11.911 50.4977C11.8344 51.191 11.5201 51.8445 11.0263 52.3385C9.82297 53.5418 7.86492 53.5418 6.66175 52.3385C6.07878 51.7555 5.75787 50.9807 5.75787 50.1562C5.75787 49.3319 6.07892 48.5569 6.66175 47.974C7.15556 47.4799 7.80939 47.1657 8.50243 47.089C8.97033 47.0373 9.44467 47.0944 9.88438 47.2513L10.2876 46.8479C9.88738 46.2263 9.60312 45.54 9.44653 44.8163H8.87572C8.67577 45.2381 8.38077 45.6141 8.01335 45.9083C7.46902 46.3441 6.78456 46.5841 6.08622 46.5841C4.38452 46.5841 3 45.1996 3 43.4979C3 41.7962 4.38452 40.4117 6.08622 40.4117C6.7847 40.4117 7.46916 40.6517 8.01335 41.0876C8.38077 41.3819 8.67591 41.7576 8.87587 42.1794H9.44653C9.60312 41.4559 9.88724 40.7693 10.2876 40.1478L9.88438 39.7446C9.44482 39.9013 8.97033 39.9585 8.50243 39.9069C7.80939 39.8302 7.15556 39.516 6.66175 39.022C6.07878 38.4391 5.75787 37.6641 5.75787 36.8397C5.75787 36.0154 6.07892 35.2403 6.66175 34.6574C7.24473 34.0744 8.01951 33.7535 8.84409 33.7535C9.66839 33.7535 10.4435 34.0745 11.0264 34.6574C11.5202 35.1512 11.8346 35.8049 11.9111 36.4979C11.9629 36.9659 11.9058 37.4403 11.7488 37.88L12.1523 38.2832C12.7738 37.883 13.4602 37.5987 14.1838 37.4421V36.8713C13.7621 36.6714 13.3861 36.3764 13.092 36.009C12.656 35.4645 12.416 34.7803 12.416 34.0818C12.416 32.3801 13.8005 30.9956 15.5023 30.9956C16.3266 30.9956 17.1018 31.3167 17.6848 31.8995C18.2675 32.4825 18.5885 33.2574 18.5885 34.0818C18.5885 34.7805 18.3485 35.4646 17.9125 36.009C17.6184 36.3764 17.2427 36.6715 16.8209 36.8713V37.4421C17.5445 37.5987 18.2308 37.8828 18.8523 38.2832L19.2557 37.88C19.0989 37.4404 19.0417 36.9659 19.0934 36.4979C19.1702 35.8049 19.4843 35.1512 19.9782 34.6574C20.5612 34.0744 21.336 33.7535 22.1605 33.7535C22.9848 33.7535 23.76 34.0745 24.3429 34.6574C24.9257 35.2403 25.2468 36.0153 25.2468 36.8397C25.2468 37.664 24.9256 38.4391 24.3429 39.022C23.8491 39.516 23.1952 39.8302 22.5022 39.9069C22.0342 39.9587 21.56 39.9013 21.1203 39.7446L20.7171 40.1478C21.1173 40.7693 21.4015 41.4559 21.5582 42.1794H22.1288C22.3287 41.7576 22.6239 41.3819 22.9913 41.0876C23.5358 40.6516 24.2199 40.4117 24.9184 40.4117C25.7427 40.4117 26.5176 40.7327 27.1008 41.3156C27.6836 41.8984 28.0046 42.6735 28.0046 43.4979C28.0046 44.3222 27.6834 45.0973 27.1008 45.6803C26.5176 46.2632 25.7429 46.5841 24.9184 46.5841C24.2198 46.5841 23.5356 46.344 22.9913 45.9083C22.6239 45.6141 22.3286 45.2381 22.1288 44.8163H21.5582C21.4015 45.54 21.1174 46.2263 20.7171 46.8481L21.1203 47.2513C21.5598 47.0944 22.0342 47.0374 22.5022 47.089C23.1952 47.1657 23.8491 47.4799 24.3429 47.974C24.9257 48.5569 25.2468 49.3317 25.2468 50.1562C25.2468 50.9806 24.9256 51.7555 24.343 52.3385C23.76 52.9215 22.985 53.2425 22.1605 53.2425C21.3361 53.2425 20.5612 52.9213 19.9782 52.3385C19.4843 51.8445 19.1702 51.191 19.0934 50.4977C19.0415 50.0299 19.0989 49.5554 19.2557 49.1159L18.8523 48.7125C18.2308 49.1129 17.5445 49.3973 16.8209 49.5537V50.1245C17.2427 50.3245 17.6184 50.6195 17.9125 50.9867C18.3486 51.5312 18.5885 52.2157 18.5885 52.9139C18.5885 53.7383 18.2673 54.5134 17.6848 55.0964C17.1018 55.6791 16.3268 56.0001 15.5023 56.0001H15.5022Z" fill="#DF7E81"/>
</g>
<defs>
<clipPath id="clip0_346_4420">
<rect width="54.0329" height="55" fill="white" transform="translate(3 1)"/>
</clipPath>
</defs>
</svg>
