<svg width="61" height="58" viewBox="0 0 61 58" fill="none" xmlns="http://www.w3.org/2000/svg">
<g clip-path="url(#clip0_346_4524)">
<g clip-path="url(#clip1_346_4524)">
<path d="M12.1775 19.5496L10.8801 15.3877C10.7336 14.9166 10.9963 14.4155 11.4674 14.269L11.5009 14.2593C14.7499 13.2074 17.5551 11.782 19.6582 9.76648C21.7368 7.77447 23.1454 5.18185 23.6361 1.76764C23.7055 1.27917 24.1581 0.939617 24.6465 1.00899L24.6574 1.01064C28.6193 1.39564 32.3087 2.39008 35.6913 4.06915C39.0997 5.76123 42.1902 8.14048 44.9276 11.2827C44.9593 11.3191 44.9877 11.3573 45.0123 11.3971C45.7767 12.4887 46.2684 13.5766 46.5222 14.6607C46.7822 15.7718 46.7905 16.8722 46.5842 17.963C46.1213 20.4097 44.3903 22.9999 42.7718 25.4216C42.1319 26.3793 41.5101 27.3095 41.0013 28.1856C39.1864 31.3108 37.4797 34.7918 35.9039 38.0061C35.2048 39.4321 34.53 40.8084 33.956 41.9387C32.4352 44.9334 31.184 47.1036 29.4819 48.884C27.764 50.6806 25.6317 52.0373 22.3728 53.3757C20.9282 53.9689 19.3532 54.4715 17.6311 54.8713C15.9239 55.2678 14.0593 55.5652 12.0196 55.7518L11.7003 55.7811C8.11912 56.1115 4.4316 56.4517 2.24357 53.7012C-0.352336 50.4368 1.61007 47.8533 3.63991 45.1811L3.99142 44.7157C5.58482 42.5973 6.76944 41.699 7.73621 40.9656C9.13972 39.9012 10.0095 39.2417 11.1977 34.3808C11.7889 31.963 12.1446 29.5067 12.2962 27.0174C12.4463 24.5499 12.3968 22.0596 12.1776 19.5496H12.1775ZM12.8458 15.6893L13.9092 19.1002L13.9072 19.1008C13.9259 19.1609 13.9385 19.2238 13.9441 19.289C14.1799 21.9335 14.2357 24.5465 14.079 27.1224C13.9216 29.7108 13.5499 32.2717 12.9316 34.8002C11.5928 40.2765 10.5292 41.0832 8.81273 42.385C7.93641 43.0495 6.86333 43.8634 5.41751 45.7856L5.05912 46.2578C3.4563 48.3679 1.90671 50.4078 3.642 52.5895C5.23106 54.5873 8.43146 54.2921 11.5393 54.0053L11.8585 53.976C13.8005 53.7983 15.5864 53.5126 17.2325 53.1305C18.8637 52.7517 20.3454 52.2797 21.6943 51.7257C24.7053 50.4895 26.6526 49.2598 28.1881 47.6537C29.7392 46.0314 30.9161 43.9817 32.3617 41.1349C33.0334 39.8123 33.6567 38.5406 34.3028 37.2232C35.9024 33.9606 37.6346 30.4273 39.456 27.291C39.981 26.3869 40.6258 25.4222 41.2895 24.429C42.8091 22.1553 44.434 19.7237 44.829 17.6346C44.9896 16.7861 44.9832 15.9304 44.781 15.0664C44.5793 14.2046 44.1803 13.3271 43.556 12.4322C40.9791 9.48045 38.0834 7.25011 34.9011 5.67047C31.9347 4.19788 28.7131 3.28359 25.2625 2.87062C24.608 6.29874 23.078 8.96148 20.8955 11.0531C18.7566 13.1029 16.0037 14.5842 12.8455 15.6893H12.8458Z" fill="#DF7E81"/>
<path d="M13.2858 20.5872C12.805 20.6972 12.3261 20.3967 12.216 19.916C12.1061 19.4352 12.4065 18.9563 12.8874 18.8462C17.2369 17.8428 20.7328 16.023 23.3161 13.3311C25.8962 10.6424 27.5863 7.06027 28.329 2.52783C28.4081 2.04145 28.8668 1.71117 29.3535 1.79026C29.8398 1.86936 30.1701 2.32808 30.091 2.8146C29.2875 7.71695 27.4368 11.6151 24.6026 14.5688C21.7713 17.5191 17.9782 19.505 13.2858 20.5873V20.5872Z" fill="#DF7E81"/>
<path d="M13.1965 28.9138C12.7042 28.9562 12.2704 28.5915 12.228 28.099C12.1855 27.6068 12.5502 27.1731 13.0427 27.1306C14.5099 27.0029 15.8509 26.6851 17.0829 26.2038C18.3223 25.7198 19.4558 25.0725 20.5 24.2892C20.8938 23.9938 21.4527 24.0736 21.748 24.4674C22.0434 24.8613 21.9636 25.4202 21.5698 25.7155C20.3925 26.5985 19.1198 27.3262 17.733 27.8679C16.3388 28.4124 14.8325 28.7713 13.1964 28.9138H13.1965Z" fill="#DF7E81"/>
<path d="M12.0964 35.4819C11.6042 35.4994 11.1909 35.1143 11.1734 34.6221C11.1559 34.1298 11.5411 33.7164 12.0333 33.6991C13.5286 33.6454 14.9616 33.4041 16.3219 32.9466C17.6766 32.4908 18.9613 31.8204 20.1659 30.907C20.558 30.6096 21.1167 30.6863 21.414 31.0784C21.7112 31.4702 21.6346 32.029 21.2426 32.3262C19.8747 33.3634 18.4194 34.1234 16.8881 34.6386C15.3621 35.1519 13.7616 35.4224 12.0962 35.4821L12.0964 35.4819Z" fill="#DF7E81"/>
<path d="M1.9051 51.1139C1.41274 51.0849 1.03715 50.6622 1.06601 50.17C1.09487 49.6776 1.5177 49.302 2.00991 49.3309C6.45728 49.5976 10.8783 49.2796 14.7756 48.359C18.3893 47.5053 21.5368 46.1366 23.8076 44.2398C27.5835 41.0864 29.4628 36.5481 31.2524 32.2259C32.1321 30.1012 32.9911 28.0267 34.0384 26.1676C35.2527 24.0122 36.4774 22.0118 37.5863 20.2003C40.7558 15.0231 42.9043 11.5135 41.4298 10.2223C41.0591 9.89798 41.0216 9.33445 41.3459 8.9638C41.6702 8.59315 42.2337 8.55547 42.6044 8.87977C45.2121 11.1635 42.7472 15.1901 39.1106 21.1304C38.0217 22.9089 36.8196 24.8728 35.5976 27.0417C34.5873 28.8351 33.7548 30.8455 32.9023 32.9044C31.0288 37.4291 29.0613 42.1802 24.9543 45.6103C22.4596 47.6938 19.0567 49.1846 15.1811 50.1001C11.1211 51.0591 6.52351 51.3908 1.90495 51.114L1.9051 51.1139Z" fill="#DF7E81"/>
<path d="M7.16649 55.962C6.67234 55.962 6.27148 55.5613 6.27148 55.067C6.27148 54.5727 6.67219 54.1719 7.16649 54.1719H42.3513C42.8456 54.1719 43.2465 54.5726 43.2465 55.067C43.2465 55.5612 42.8458 55.962 42.3513 55.962H7.16649Z" fill="#DF7E81"/>
<path d="M43.5356 34.6013C43.0415 34.6013 42.6406 34.2006 42.6406 33.7063C42.6406 33.212 43.0413 32.8113 43.5356 32.8113H53.6784C54.1725 32.8113 54.5734 33.2118 54.5734 33.7063C54.5734 34.2004 54.1727 34.6013 53.6784 34.6013H43.5356Z" fill="#9C9C9C"/>
<path d="M48.3237 28.7867C47.8296 28.7867 47.4287 28.386 47.4287 27.8917C47.4287 27.3974 47.8294 26.9966 48.3237 26.9966H57.7255C58.2196 26.9966 58.6205 27.3973 58.6205 27.8917C58.6205 28.3859 58.2198 28.7867 57.7255 28.7867H48.3237Z" fill="#9C9C9C"/>
<path d="M50.4575 22.8796C49.9634 22.8796 49.5625 22.4789 49.5625 21.9846C49.5625 21.4903 49.9632 21.0896 50.4575 21.0896H59.5513C60.0456 21.0896 60.4464 21.4902 60.4464 21.9846C60.4464 22.4788 60.0457 22.8796 59.5513 22.8796H50.4575Z" fill="#9C9C9C"/>
<path d="M51.0493 17.1547C50.5551 17.1547 50.1543 16.754 50.1543 16.2597C50.1543 15.7654 50.555 15.3645 51.0493 15.3645H59.4038C59.8981 15.3645 60.2988 15.7652 60.2988 16.2597C60.2988 16.7538 59.8983 17.1547 59.4038 17.1547H51.0493Z" fill="#9C9C9C"/>
<path d="M48.9624 11.277C48.4682 11.277 48.0674 10.8763 48.0674 10.382C48.0674 9.88767 48.4681 9.48682 48.9624 9.48682H58.2693C58.7636 9.48682 59.1645 9.88752 59.1645 10.382C59.1645 10.8761 58.7638 11.277 58.2693 11.277H48.9624Z" fill="#9C9C9C"/>
</g>
</g>
<defs>
<clipPath id="clip0_346_4524">
<rect width="60.8" height="57.7" fill="white"/>
</clipPath>
<clipPath id="clip1_346_4524">
<rect width="59.4464" height="55" fill="white" transform="translate(1 1)"/>
</clipPath>
</defs>
</svg>
