<svg width="61" height="59" viewBox="0 0 61 59" fill="none" xmlns="http://www.w3.org/2000/svg">
<g clip-path="url(#clip0_346_4382)">
<path d="M6 30.4271C6 29.9297 6.40298 29.5269 6.90087 29.5269L15.1247 29.5319C15.621 29.5319 16.0238 29.9346 16.0238 30.4322C16.0238 30.9297 15.6211 31.3328 15.1247 31.3328L6.90087 31.3277C6.40313 31.3277 6 30.9247 6 30.4271Z" fill="#9C9C9C"/>
<path d="M52.0005 12.6366C50.143 9.80081 47.4446 7.72807 44.3504 6.62287C43.102 6.17699 41.8392 5.89494 40.5615 5.77715C39.2928 5.65997 38.0088 5.70421 36.7086 5.90899C35.457 6.10629 34.2352 6.45755 33.0676 6.95978L32.1386 5.54099C32.5993 4.63892 32.6129 3.724 32.1456 3.01266C31.7099 2.3478 30.9859 1.98294 29.9542 2.00088C29.1473 2.02076 28.2701 2.31208 27.4842 2.82746C25.708 3.9923 24.9675 5.90301 25.7986 7.17428C26.2628 7.88741 27.1132 8.23807 28.1224 8.17529L29.0037 9.51502C23.323 14.4881 22.0099 23.0269 26.2654 29.5154C29.1216 33.8671 33.9362 36.4693 39.1453 36.4693C39.5471 36.4693 39.9439 36.414 40.3391 36.3827C40.9153 38.8785 41.96 41.3384 43.4749 43.6863C43.7836 44.1686 44.1547 44.7557 44.5332 45.3859C40.1805 47.1342 35.2756 48.0781 30.2892 48.0781C30.2866 48.0781 30.285 48.0781 30.2815 48.0781C25.1056 48.0781 20.0536 47.0626 15.5763 45.1861C15.9156 44.6353 16.2365 44.1182 16.5171 43.6879C25.7896 29.288 14.5182 16.6562 14.4044 16.5302C14.0594 16.1538 13.4843 16.1304 13.1022 16.4707C12.7273 16.813 12.6977 17.3964 13.0406 17.7746C13.4701 18.2465 23.4625 29.4988 14.9673 42.6891C13.229 45.3953 9.98764 50.4335 10.5314 56.1653C10.5737 56.6467 10.977 57.0005 11.4462 57.0005C11.4788 57.0005 11.5064 57.0005 11.536 56.9974C12.0433 56.9509 12.4155 56.5006 12.3681 55.9924C12.0391 52.5657 13.2988 49.3441 14.6467 46.8213C19.3969 48.8471 24.7884 49.9242 30.2809 49.9242C30.2829 49.9242 30.2862 49.9242 30.2886 49.9242C35.5956 49.9242 40.8212 48.9087 45.4487 47.0161C46.7603 49.5099 47.9453 52.6578 47.6238 55.9922C47.5776 56.5003 47.9515 56.9508 48.4564 56.9973C48.489 57.0004 48.5135 57.0004 48.5455 57.0004C49.0141 57.0004 49.4167 56.6466 49.461 56.1651C50.0082 50.4299 46.7629 45.3935 45.0199 42.6876C43.6582 40.569 42.7114 38.3652 42.1709 36.1285C44.0806 35.7433 45.9131 35.03 47.5664 33.9463C54.6632 29.2879 56.6496 19.7316 52.0001 12.6369L52.0005 12.6366ZM29.3455 6.67459C29.1339 6.35367 28.7524 6.19717 28.3713 6.28207C27.8326 6.40464 27.4423 6.31092 27.3419 6.16324C27.1767 5.90899 27.4861 5.03413 28.4979 4.36957C28.9923 4.04746 29.5369 3.85613 29.9995 3.84537C30.276 3.83446 30.5244 3.90845 30.6023 4.02578C30.7017 4.17346 30.6261 4.57136 30.2998 5.01783C30.0748 5.32754 30.0633 5.74547 30.2723 6.06593L31.4132 7.80744C31.1752 7.94795 30.9214 8.05781 30.6872 8.21087C30.6056 8.26468 30.5361 8.32611 30.4566 8.37828L29.3457 6.67429L29.3455 6.67459ZM39.1453 34.6194C34.5586 34.6194 30.3209 32.3328 27.8066 28.5006C23.7119 22.2558 25.4633 13.843 31.7071 9.75044C33.92 8.29876 36.4824 7.53017 39.1221 7.53017C43.707 7.53017 47.9462 9.81695 50.4596 13.647C54.5547 19.8902 52.8045 28.3046 46.5588 32.3993C44.3442 33.852 41.7832 34.6194 39.1453 34.6194ZM46.156 31.2646C44.0664 32.6332 41.7155 33.29 39.3892 33.29C35.3548 33.29 31.3971 31.3243 29.0237 27.7046C26.2264 23.4405 26.3562 17.7988 29.3406 13.6684C29.6402 13.2541 30.2173 13.1644 30.6262 13.4614C31.037 13.7602 31.1303 14.3363 30.8333 14.749C28.2933 18.2654 28.1829 23.0647 30.5633 26.6947C33.7459 31.5458 40.2816 32.9108 45.1399 29.7233C49.9971 26.5398 51.3521 19.9995 48.1721 15.1451C47.895 14.7201 48.0121 14.1476 48.4389 13.8702C48.8603 13.5911 49.4335 13.7083 49.7143 14.1348C53.4553 19.8373 51.8561 27.5227 46.1558 31.2645L46.156 31.2646ZM29.9998 44.1933C28.9517 44.1933 28.1057 43.3435 28.1057 42.2993C28.1057 41.2512 28.952 40.4034 29.9998 40.4034C31.0474 40.4034 31.8944 41.2511 31.8944 42.2993C31.8975 43.3435 31.0476 44.1933 29.9998 44.1933Z" fill="#DF7E81"/>
<path d="M12.0655 27.3669C12.4174 27.0152 12.9872 27.0154 13.3392 27.3675L15.7611 29.7966C16.1122 30.1476 16.1122 30.7172 15.7603 31.0689C15.4086 31.4208 14.8388 31.4211 14.4877 31.07L12.0658 28.6409C11.7138 28.2889 11.7138 27.7188 12.0655 27.3669Z" fill="#9C9C9C"/>
<path d="M12.0655 33.4982C12.4174 33.8501 12.9872 33.8498 13.3392 33.4978L15.7611 31.0687C16.1122 30.7176 16.1122 30.1481 15.7603 29.7963C15.4086 29.4445 14.8388 29.4442 14.4877 29.7952L12.0658 32.2244C11.7138 32.5764 11.7138 33.1465 12.0655 33.4982Z" fill="#9C9C9C"/>
<path fill-rule="evenodd" clip-rule="evenodd" d="M36.9459 20.4174C36.8135 21.0639 36.9353 21.7232 37.2973 22.2778C37.757 22.9764 38.5294 23.3946 39.3669 23.3946C39.8527 23.3946 40.3209 23.2538 40.7237 22.9875C41.8606 22.2385 42.1788 20.7025 41.4331 19.5641C40.8865 18.7305 39.8414 18.3396 38.887 18.509L33.8545 10.8397C33.5752 10.4128 33.0015 10.2956 32.5819 10.5732C32.1564 10.8506 32.0383 11.4231 32.313 11.8485L37.3386 19.5082C37.1495 19.7801 37.0145 20.0846 36.9458 20.4174H36.9459ZM39.3623 20.2898C39.5749 20.2898 39.7769 20.3978 39.8923 20.5742C40.0865 20.866 40.0035 21.2567 39.7155 21.4455C39.4315 21.6328 39.0237 21.5445 38.8386 21.2655C38.7469 21.1249 38.7185 20.9558 38.7505 20.792C38.7831 20.6279 38.8801 20.4857 39.0184 20.3943C39.1211 20.3259 39.2379 20.2898 39.3623 20.2898Z" fill="#9C9C9C"/>
</g>
<defs>
<clipPath id="clip0_346_4382">
<rect width="48.5141" height="55" fill="white" transform="translate(6 2)"/>
</clipPath>
</defs>
</svg>
