<svg width="89" height="79" viewBox="0 0 89 79" fill="none" xmlns="http://www.w3.org/2000/svg">
<g clip-path="url(#clip0_960_14934)">
<path d="M65.9659 35.2478H22.3995C21.6519 35.2478 21.0469 34.6455 21.0469 33.9029C21.0469 33.1604 21.6519 32.5586 22.3995 32.5586H65.9659C66.7136 32.5586 67.3186 33.1604 67.3186 33.9029C67.3186 34.6455 66.7136 35.2478 65.9659 35.2478Z" fill="#7C7C7C"/>
<path d="M31.1265 50.583H57.2362L62.0186 35.2473H26.3441L31.1265 50.583ZM58.2334 53.2722H30.1288C29.5354 53.2722 29.0126 52.8887 28.8366 52.3254L23.2166 34.3009C23.0899 33.8933 23.1649 33.4497 23.4202 33.1056C23.6751 32.7614 24.0794 32.5586 24.5088 32.5586H63.8529C64.2823 32.5586 64.6866 32.7614 64.9415 33.1056C65.1963 33.4492 65.2718 33.8933 65.1451 34.3009L59.5251 52.3254C59.3496 52.8887 58.8263 53.2722 58.2329 53.2722H58.2334Z" fill="#7C7C7C"/>
<path d="M37.1568 53.2719C36.5421 53.2719 35.9865 52.8523 35.8409 52.2323L31.6253 34.2078C31.4561 33.4845 31.9083 32.7616 32.6361 32.5934C33.3625 32.4266 34.0908 32.876 34.2595 33.5984L38.4751 51.6228C38.6444 52.3462 38.1922 53.0691 37.4644 53.2373C37.3614 53.2608 37.2584 53.2719 37.1568 53.2719Z" fill="#7C7C7C"/>
<path d="M51.2093 53.2721C51.1072 53.2721 51.0042 53.261 50.9017 53.2375C50.1739 53.0693 49.7217 52.3469 49.891 51.623L54.1065 33.5986C54.2753 32.8752 55.0036 32.4263 55.73 32.5936C56.4578 32.7618 56.9095 33.4842 56.7407 34.208L52.5252 52.2325C52.381 52.853 51.8235 53.2721 51.2093 53.2721Z" fill="#7C7C7C"/>
<path d="M60.9913 43.6926H27.3727C26.625 43.6926 26.0195 43.0904 26.0195 42.3483C26.0195 41.6057 26.6245 41.0039 27.3727 41.0039H60.9913C61.739 41.0039 62.344 41.6061 62.344 42.3483C62.344 43.0908 61.739 43.6926 60.9913 43.6926Z" fill="#7C7C7C"/>
<path d="M44.1812 53.2717C43.4336 53.2717 42.8281 52.6695 42.8281 51.9274V33.9029C42.8281 33.1604 43.4331 32.5586 44.1812 32.5586C44.9289 32.5586 45.5339 33.1604 45.5339 33.9029V51.9274C45.5339 52.67 44.9289 53.2717 44.1812 53.2717Z" fill="#7C7C7C"/>
<path d="M44.4639 79.0018C28.093 79.0018 13.597 69.2371 7.53451 54.1254C7.25692 53.4352 7.59544 52.6532 8.2899 52.3782C8.97807 52.1004 9.76973 52.4388 10.0468 53.1285C15.6973 67.2122 29.2062 76.3126 44.4635 76.3126C64.886 76.3126 81.5012 59.7993 81.5012 39.5014C81.5012 38.7637 82.0999 38.1633 82.8422 38.1571L84.6891 38.1412L79.2684 31.9838L73.8612 38.1239L75.712 38.1292C76.0713 38.1302 76.4161 38.2734 76.6685 38.5277C76.9224 38.781 77.0637 39.1251 77.0612 39.4822C76.9461 57.2481 62.3075 71.7014 44.4291 71.7014C37.2742 71.7014 30.481 69.4429 24.7861 65.1695C24.1903 64.723 24.0713 63.879 24.5221 63.2864C24.9713 62.6928 25.8191 62.5736 26.4163 63.0239C31.6388 66.9421 37.8676 69.0122 44.4291 69.0122C60.3692 69.0122 73.5019 56.4824 74.3158 40.8141L70.8837 40.8049C70.3541 40.8035 69.873 40.4944 69.6553 40.0143C69.4372 39.5336 69.5204 38.9713 69.8691 38.5748L78.2499 29.0567C78.5077 28.7654 78.8786 28.5977 79.2684 28.5977C79.6582 28.5977 80.0291 28.7654 80.2869 29.0567L88.6668 38.5748C89.014 38.9708 89.0986 39.5312 88.882 40.0104C88.6653 40.4901 88.1885 40.8001 87.6599 40.8049L84.1842 40.8347C83.4733 61.9997 65.9282 79.0018 44.4635 79.0018H44.4639Z" fill="#DF7E81"/>
<path d="M20.9326 61.1344C20.5573 61.1344 20.1835 60.9796 19.9151 60.6763C19.24 59.9107 18.5983 59.1138 18.0078 58.3063C17.5692 57.7055 17.7041 56.8653 18.3076 56.4289C18.915 55.991 19.7579 56.1271 20.198 56.7269C20.7382 57.4676 21.3277 58.1991 21.9501 58.9032C22.4429 59.4613 22.3858 60.3115 21.8244 60.8013C21.5681 61.0243 21.2499 61.1348 20.9326 61.1348V61.1344Z" fill="#DF7E81"/>
<path d="M9.73305 50.3224C9.34327 50.3224 8.97234 50.1552 8.71458 49.8634L0.334699 40.3449C-0.0154301 39.9469 -0.0986099 39.3817 0.121913 38.901C0.342437 38.4218 0.823622 38.1147 1.35317 38.1147H1.35946L4.74565 38.1296C5.53827 16.9324 23.082 0 44.4626 0C60.2218 0 74.5064 9.2648 80.8557 23.6032C81.157 24.2829 80.8465 25.0764 80.1622 25.3758C79.4755 25.6758 78.6814 25.3653 78.3801 24.6866C72.4632 11.3239 59.1491 2.68918 44.463 2.68918C24.1212 2.68918 7.50606 19.1362 7.4253 39.3528C7.4253 39.3557 7.42384 39.4908 7.42384 39.4932C7.41562 40.2309 6.81209 40.8245 6.07121 40.8245H6.06444L4.34571 40.8168L9.73305 46.9359L15.1325 40.8034H13.1512C12.4074 40.8034 11.8038 40.2074 11.7985 39.4682L11.7971 39.2774C11.7971 21.3851 26.4358 6.83613 44.4292 6.83613C51.6407 6.83613 58.475 9.12638 64.1936 13.4593C64.7884 13.9097 64.9016 14.7532 64.4485 15.3444C63.9968 15.9342 63.15 16.0485 62.5527 15.5982C57.3095 11.6252 51.042 9.52531 44.4287 9.52531C28.3155 9.52531 15.1364 22.2473 14.5251 38.1147H18.1144C18.6454 38.1147 19.1266 38.4233 19.3471 38.9039C19.5662 39.3845 19.4815 39.9479 19.1329 40.3449L10.752 49.8634C10.4942 50.1547 10.1233 50.3224 9.73354 50.3224H9.73305Z" fill="#7C7C7C"/>
<path d="M70.0654 22.7924C69.6389 22.7924 69.2201 22.5929 68.957 22.2199C68.3322 21.3356 67.6527 20.4757 66.937 19.6649C66.4442 19.1059 66.5013 18.2566 67.0627 17.7668C67.6228 17.2785 68.4778 17.3328 68.9715 17.8908C69.7511 18.7752 70.492 19.712 71.171 20.6756C71.6004 21.2841 71.4524 22.1229 70.8407 22.5487C70.6042 22.7136 70.3334 22.7924 70.0654 22.7924Z" fill="#7C7C7C"/>
<path d="M37.5766 34.9406C37.2304 34.9406 36.8846 34.8094 36.62 34.5465L29.1464 27.1196C28.6179 26.5943 28.6179 25.7436 29.1464 25.2182C29.675 24.6929 30.531 24.6929 31.0596 25.2182L38.5327 32.6451C39.0613 33.1704 39.0613 34.0211 38.5327 34.546C38.2686 34.8084 37.9224 34.9401 37.5761 34.9401L37.5766 34.9406Z" fill="#7C7C7C"/>
<path d="M50.7866 34.944C50.4403 34.944 50.0946 34.8128 49.83 34.5499C49.3014 34.0246 49.3014 33.1738 49.83 32.649L57.3032 25.2221C57.8317 24.6968 58.6877 24.6968 59.2158 25.2221C59.7444 25.7475 59.7444 26.5982 59.2158 27.1235L51.7427 34.5504C51.4786 34.8128 51.1324 34.9445 50.7861 34.9445L50.7866 34.944Z" fill="#7C7C7C"/>
</g>
<defs>
<clipPath id="clip0_960_14934">
<rect width="89" height="79" fill="white"/>
</clipPath>
</defs>
</svg>
