<svg width="133" height="139" viewBox="0 0 133 139" fill="none" xmlns="http://www.w3.org/2000/svg">
<g id="01_Logo">
<g id="Group">
<g id="Group_2">
<g id="Group_3">
<path id="Vector" fill-rule="evenodd" clip-rule="evenodd" d="M66.1969 115.992C81.7542 115.992 95.787 117.312 108.536 118.254L113.95 92.5839C113.95 91.8738 113.39 91.2024 112.706 91.2024L112.643 91.187C98.9763 90.0447 82.8588 89.3887 65.6057 89.3887C48.4459 89.3887 32.4063 90.0447 18.7858 91.1715H18.8247C18.1401 91.1715 17.5801 91.843 17.5801 92.5453L24.5031 118.115C36.809 117.266 51.3785 115.992 66.1969 115.992Z" fill="url(#paint0_linear_351_315)"/>
</g>
<path id="Vector_2" fill-rule="evenodd" clip-rule="evenodd" d="M127.819 100L115.404 97.9551L109.306 119.511C104.895 119.187 100.251 118.909 95.4284 118.685L95.1406 119.967C110.115 120.885 125.563 125.145 125.563 125.145L119.115 111.353L127.819 100Z" fill="url(#paint1_linear_351_315)"/>
<path id="Vector_3" fill-rule="evenodd" clip-rule="evenodd" d="M23.4598 119.357L16.109 97.9629L3.88086 99.985L12.5774 111.33L6.1289 125.122C6.1289 125.122 21.5774 120.862 36.5513 119.944L36.2635 118.632C31.8375 118.832 27.5436 119.071 23.4598 119.357Z" fill="url(#paint2_linear_351_315)"/>
</g>
<path id="Vector_4" d="M66.9435 101.9C66.4612 101.9 66.0723 102.286 66.0723 102.765C66.0723 103.243 66.4612 103.629 66.9435 103.629C67.4258 103.629 67.8147 103.243 67.8147 102.765C67.8147 102.286 67.4258 101.9 66.9435 101.9ZM66.9435 103.274C66.6557 103.274 66.4301 103.043 66.4301 102.765C66.4301 102.479 66.6557 102.255 66.9435 102.255C67.2313 102.255 67.4569 102.487 67.4569 102.765C67.4569 103.05 67.2313 103.274 66.9435 103.274Z" fill="white"/>
<g id="Group_4">
<g id="Group_5">
<path id="Vector_5" d="M50.9576 106.818C50.8954 104.758 50.8799 104.372 50.8487 103.947C50.8021 103.484 50.6621 103.345 50.172 103.237C50.0475 103.206 49.7908 103.199 49.5653 103.206C49.4097 103.214 49.3008 103.168 49.3008 103.067C49.3008 102.975 49.4175 102.936 49.643 102.928C50.4365 102.905 51.4088 102.905 51.7122 102.898C52.2256 102.882 53.6102 102.813 54.0691 102.805C55.0337 102.782 56.1382 102.843 56.9628 103.322C57.3984 103.584 58.044 104.264 58.0596 105.174C58.0751 106.185 57.4684 107.081 56.0216 108.215C57.3828 109.72 58.4485 110.94 59.3586 111.773C60.1987 112.545 60.7121 112.607 60.9533 112.653C61.1088 112.684 61.1866 112.684 61.3111 112.684C61.4278 112.684 61.4978 112.761 61.4978 112.831C61.5055 112.939 61.3966 112.969 61.21 112.977C60.7355 112.977 60.2687 112.985 59.7942 112.993C58.9697 113 58.5652 112.931 58.1685 112.746C57.5229 112.452 56.955 111.819 56.1071 110.785C55.5004 110.06 54.847 109.164 54.6603 108.956C54.5669 108.879 54.4892 108.863 54.388 108.871C53.9369 108.871 53.4935 108.871 53.0423 108.871C52.9723 108.871 52.9256 108.91 52.9256 108.987C52.9256 109.049 52.9257 109.118 52.9334 109.18C52.9645 110.446 53.0112 111.495 53.0968 112.066C53.159 112.468 53.2368 112.722 53.688 112.769C53.9135 112.8 54.2325 112.807 54.4192 112.8C54.5358 112.792 54.6058 112.877 54.6058 112.939C54.6136 113.031 54.4892 113.085 54.3103 113.085C53.4468 113.108 52.2178 113.093 52 113.101C51.7122 113.108 50.771 113.186 50.1798 113.201C49.9931 113.209 49.892 113.162 49.8842 113.07C49.8842 113.008 49.9309 112.923 50.1175 112.915C50.3353 112.908 50.5065 112.885 50.6387 112.854C50.9421 112.776 51.0199 112.522 51.0588 112.12C51.1054 111.542 51.0743 110.477 51.0354 109.226C51.0121 108.416 50.9888 107.613 50.9576 106.818ZM52.9023 107.822C52.9023 107.96 52.9412 108.007 53.0423 108.053C53.369 108.138 53.8124 108.161 54.1858 108.153C54.7848 108.138 54.987 108.084 55.2359 107.906C55.6871 107.59 56.1927 106.996 56.1694 105.877C56.1382 103.955 54.707 103.492 53.8124 103.515C53.4313 103.523 53.0734 103.546 52.9179 103.584C52.8167 103.615 52.7779 103.669 52.7856 103.777C52.8323 105.12 52.8634 106.471 52.9023 107.822Z" fill="white" stroke="white" stroke-width="0.5" stroke-miterlimit="10"/>
<path id="Vector_6" d="M61.9562 106.61C61.9406 104.549 61.9562 104.163 61.9173 103.731C61.8784 103.252 61.7384 103.129 61.2561 102.998C61.1316 102.967 60.8749 102.951 60.6649 102.951C60.4938 102.951 60.4082 102.905 60.4082 102.805C60.4082 102.712 60.5093 102.674 60.7349 102.674C61.5439 102.666 62.5629 102.689 63.0141 102.689C63.3952 102.689 64.4064 102.65 64.9587 102.65C65.1843 102.65 65.2854 102.681 65.2854 102.782C65.2854 102.874 65.1999 102.928 65.0443 102.928C64.8732 102.928 64.7876 102.944 64.5931 102.975C64.1964 103.036 64.0797 103.229 64.0408 103.715C64.0097 104.148 64.0097 104.526 64.0097 106.587C64.0097 107.219 64.0097 107.852 64.0097 108.493C64.0175 110.476 64.422 111.24 65.1454 111.781C65.8066 112.275 66.5145 112.329 67.0201 112.329C67.6657 112.329 68.4203 112.159 69.0192 111.626C69.8515 110.901 69.8982 109.72 69.9138 108.323C69.9215 107.752 69.9293 107.181 69.9371 106.617C69.9604 104.557 69.9527 104.171 69.9371 103.739C69.906 103.276 69.7893 103.129 69.307 102.998C69.1903 102.959 68.9259 102.944 68.7547 102.944C68.5836 102.944 68.498 102.897 68.498 102.797C68.498 102.704 68.6069 102.674 68.8092 102.674C69.5871 102.681 70.6061 102.728 70.6216 102.728C70.7927 102.728 71.8118 102.712 72.3952 102.72C72.6052 102.72 72.7063 102.758 72.7063 102.851C72.7063 102.951 72.613 102.998 72.4496 102.99C72.2785 102.99 72.1851 102.998 71.9984 103.029C71.5862 103.083 71.4773 103.276 71.4384 103.754C71.415 104.186 71.3917 104.564 71.3606 106.633C71.3528 107.119 71.345 107.605 71.3373 108.084C71.3139 109.604 71.1195 111.194 69.8593 112.159C68.8014 112.977 67.6735 113.116 66.7167 113.108C65.9388 113.1 64.4064 113.07 63.3252 112.182C62.5629 111.557 61.9639 110.561 61.9562 108.593C61.9717 107.945 61.9639 107.281 61.9562 106.61Z" fill="white" stroke="white" stroke-width="0.5" stroke-miterlimit="10"/>
<path id="Vector_7" d="M78.0819 103.7C77.3273 103.692 76.5806 103.692 75.8261 103.684C74.9471 103.684 74.5815 103.769 74.3481 104.07C74.1925 104.256 74.1147 104.433 74.0836 104.533C74.0447 104.641 74.0136 104.703 73.9125 104.703C73.8114 104.703 73.7725 104.618 73.7803 104.479C73.7803 104.256 74.107 102.951 74.1459 102.843C74.1848 102.666 74.2392 102.589 74.3248 102.596C74.4415 102.596 74.597 102.712 74.9704 102.766C75.4138 102.828 75.9894 102.859 76.4872 102.866C78.5408 102.92 80.5944 102.99 82.6402 103.067C83.1225 103.082 83.4492 103.067 83.6748 103.044C83.9159 103.021 84.0404 102.998 84.0948 102.998C84.1959 103.005 84.2115 103.082 84.2037 103.291C84.1881 103.576 84.1104 104.587 84.0948 104.935C84.0715 105.081 84.0326 105.159 83.947 105.151C83.8303 105.143 83.7992 105.081 83.7837 104.873C83.7837 104.827 83.7759 104.78 83.7759 104.726C83.7525 104.371 83.3792 103.939 82.0257 103.87C81.3878 103.831 80.75 103.8 80.1199 103.769C80.0577 105.599 79.9954 107.435 79.9254 109.265C79.8865 110.507 79.8632 111.58 79.9099 112.174C79.9488 112.56 80.0265 112.815 80.4622 112.9C80.6644 112.938 80.9989 112.969 81.2167 112.977C81.38 112.985 81.45 113.062 81.45 113.131C81.4423 113.232 81.3256 113.27 81.1545 113.262C80.1743 113.224 79.1865 113.147 78.7664 113.131C78.4319 113.123 77.4129 113.139 76.8295 113.124C76.6428 113.116 76.5417 113.069 76.5495 112.969C76.5495 112.907 76.6039 112.83 76.7906 112.83C77.0084 112.838 77.1951 112.822 77.3118 112.799C77.6152 112.745 77.7085 112.491 77.7707 112.089C77.8563 111.518 77.8874 110.445 77.9263 109.203C77.973 107.366 78.0274 105.529 78.0819 103.7Z" fill="white" stroke="white" stroke-width="0.5" stroke-miterlimit="10"/>
<path id="Vector_8" d="M88.8469 108.678C88.7225 108.67 88.6991 108.693 88.6447 108.809C88.2169 109.658 87.789 110.515 87.3612 111.363C87.1201 111.834 86.9956 112.313 86.9801 112.544C86.9645 112.892 87.1434 113.108 87.7968 113.139C87.8979 113.146 88.0068 113.146 88.1157 113.154C88.388 113.169 88.4191 113.262 88.4191 113.378C88.4113 113.54 88.2869 113.579 88.0691 113.563C87.369 113.525 86.3811 113.409 85.6966 113.378C85.4788 113.37 84.3353 113.386 83.223 113.339C82.9585 113.332 82.8418 113.278 82.8418 113.115C82.8496 113 82.9274 112.915 83.0907 112.923C83.2852 112.93 83.5263 112.923 83.7208 112.93C84.6931 112.838 85.0821 112.251 85.5721 111.286C87.6335 107.281 89.7493 103.291 91.9117 99.3081C92.1918 98.7755 92.3862 98.5517 92.6118 98.5672C92.9385 98.5903 93.0241 98.7833 93.2186 99.2309C93.6931 100.342 96.7968 108.562 97.9091 111.626C98.6014 113.447 99.1848 113.748 99.566 113.849C99.8693 113.918 100.11 113.964 100.359 113.98C100.554 113.995 100.639 114.072 100.632 114.204C100.616 114.366 100.499 114.397 99.6982 114.335C98.9515 114.273 97.4035 114.157 95.6144 113.98C95.2332 113.934 94.9921 113.918 94.9999 113.779C95.0077 113.663 95.0621 113.602 95.2799 113.594C95.4277 113.579 95.5833 113.409 95.5055 113.169C95.0466 111.827 94.5876 110.476 94.1209 109.133C94.082 109.017 94.012 108.986 93.9109 108.979C92.2229 108.871 90.5349 108.77 88.8469 108.678ZM93.5142 107.875C93.6075 107.883 93.6386 107.836 93.6153 107.767C93.0474 106.069 92.4718 104.379 91.8806 102.689C91.8573 102.619 91.8417 102.503 91.7873 102.496C91.7095 102.488 91.6784 102.604 91.6473 102.673C90.8461 104.278 90.0526 105.876 89.267 107.489C89.2125 107.582 89.2592 107.628 89.3292 107.628C90.7372 107.697 92.1218 107.782 93.5142 107.875Z" fill="white" stroke="white" stroke-width="0.5" stroke-miterlimit="10"/>
</g>
<path id="Vector_9" d="M36.0386 105.405C36.0775 105.405 36.1086 105.397 36.1475 105.397C36.8242 104.602 39.819 101.43 40.418 100.72C40.9858 100.025 41.4448 99.5004 41.4292 99.1608C41.4137 98.9369 41.3203 98.8057 41.1025 98.7749C40.9003 98.744 40.8147 98.7131 40.8069 98.5896C40.7991 98.4507 40.908 98.4044 41.1492 98.389C41.6081 98.3658 42.8138 98.3658 43.405 98.335C44.0817 98.3041 45.2874 98.1883 45.9642 98.1652C46.182 98.1574 46.3376 98.1883 46.3453 98.3272C46.3531 98.4739 46.2442 98.5125 46.0264 98.5202C45.723 98.5279 45.1785 98.6359 44.7663 98.798C44.0973 99.0682 43.3739 99.5235 42.4793 100.411C41.8259 101.044 38.7144 104.231 38.0299 104.996C38.8778 105.883 43.3039 109.896 44.1595 110.606C45.1396 111.409 46.1353 112.266 47.2943 112.644C47.94 112.86 48.3678 112.906 48.6245 112.899C48.7723 112.891 48.8968 112.93 48.9045 113.045C48.9123 113.184 48.8034 113.246 48.3989 113.261C47.7844 113.285 47.1699 113.308 46.5554 113.331C45.9175 113.362 45.5364 113.369 45.093 113.354C43.9417 113.308 43.3505 112.891 42.4015 112.173C41.437 111.432 36.9565 107.033 36.4509 106.493C36.3653 106.4 36.2797 106.3 36.1942 106.207C36.1553 106.207 36.1241 106.215 36.0853 106.215C36.1241 106.825 36.163 107.427 36.2019 108.036C36.3186 109.881 36.4275 111.463 36.5442 112.328C36.6298 112.891 36.8476 113.315 37.3765 113.362C37.6721 113.385 38.1466 113.393 38.4189 113.377C38.59 113.369 38.6911 113.424 38.6989 113.524C38.7067 113.663 38.5433 113.732 38.31 113.748C37.1276 113.817 35.7897 113.84 35.2607 113.879C34.7707 113.91 33.4405 114.064 32.6004 114.126C32.3281 114.149 32.1726 114.095 32.1648 113.956C32.157 113.856 32.2348 113.786 32.4915 113.771C32.8104 113.748 33.0593 113.686 33.2538 113.64C33.6739 113.524 33.7439 113.084 33.7905 112.49C33.8372 111.641 33.7283 110.058 33.5961 108.214C33.5105 107.041 33.4327 105.86 33.3472 104.687C33.1371 101.638 33.0982 101.083 33.0049 100.442C32.9115 99.7628 32.7171 99.4541 31.9781 99.3692C31.7992 99.3383 31.4258 99.346 31.1224 99.3692C30.8813 99.3846 30.7491 99.3614 30.7413 99.2148C30.7257 99.0759 30.8813 99.0219 31.208 98.9987C32.367 98.9138 33.7516 98.8752 34.2806 98.8443C34.8018 98.8135 36.1786 98.6591 36.9254 98.6128C37.2365 98.5896 37.3921 98.6205 37.3999 98.7672C37.4076 98.9061 37.2754 98.9601 37.1043 98.9678C36.8865 98.9833 36.7542 99.0064 36.4975 99.0682C35.9141 99.2071 35.7585 99.5544 35.7663 100.264C35.7663 100.905 35.7974 101.468 35.9919 104.517C35.9997 104.818 36.0152 105.111 36.0386 105.405Z" fill="white" stroke="white" stroke-width="0.5" stroke-miterlimit="10"/>
</g>
<g id="Group_6">
<path id="Vector_10" d="M50.5609 99.7765C49.4252 98.9816 49.0751 97.8856 49.0362 96.944C49.0051 96.2726 49.1996 95.1072 50.2419 94.2042C51.0431 93.525 52.1166 93.0928 53.8124 93.0388C54.528 93.0156 54.9558 93.0465 55.4692 93.0928C55.897 93.1391 56.2782 93.2008 56.6127 93.224C56.7449 93.2317 56.7838 93.278 56.7838 93.3398C56.7838 93.4169 56.7605 93.5404 56.7449 93.88C56.7294 94.2042 56.7449 94.7444 56.7294 94.9451C56.7216 95.084 56.6827 95.1921 56.5816 95.1921C56.496 95.1921 56.4649 95.1149 56.4571 94.9837C56.4338 94.675 56.286 94.3277 55.9904 94.0807C55.5937 93.7565 54.8236 93.5327 53.7812 93.5636C52.7856 93.5945 52.1555 93.7797 51.6577 94.1887C50.8409 94.8679 50.6775 95.8249 50.7164 96.7742C50.8176 99.1051 52.84 100.132 54.3335 100.093C55.3292 100.062 55.8659 99.9772 56.3015 99.5141C56.4882 99.3134 56.636 99.0356 56.6671 98.8504C56.6905 98.7037 56.7138 98.6574 56.7994 98.6497C56.8772 98.6497 56.9316 98.7423 56.9316 98.8195C56.9316 98.9353 56.8227 99.792 56.7216 100.132C56.6749 100.309 56.6282 100.355 56.4416 100.425C55.9982 100.595 55.1503 100.68 54.4269 100.703C52.91 100.749 51.611 100.51 50.5609 99.7765ZM52.42 91.2328C52.4511 91.2019 52.49 91.171 52.5133 91.171C52.5444 91.171 52.5833 91.1865 52.6689 91.2559C52.84 91.3948 53.369 91.7576 53.4623 91.8039C53.509 91.8348 53.5479 91.8502 53.579 91.8502C53.6179 91.8502 53.6646 91.8425 53.7112 91.8116C53.9524 91.6727 54.3646 91.3948 54.6058 91.2096C54.7069 91.1247 54.7536 91.1016 54.7925 91.1016C54.8391 91.1016 54.8703 91.1324 54.878 91.1787C54.878 91.2096 54.8547 91.2482 54.8002 91.2945C54.7069 91.3948 53.789 92.1975 53.6723 92.2978C53.5868 92.3673 53.5401 92.3982 53.4857 92.3982C53.4623 92.3982 53.4234 92.375 53.3301 92.3133C53.2601 92.2593 52.3966 91.7267 52.2644 91.6495C52.1633 91.5878 52.1399 91.5724 52.1399 91.5415C52.1399 91.5183 52.1555 91.4875 52.1788 91.4643C52.2566 91.3871 52.3344 91.3099 52.42 91.2328Z" fill="url(#paint3_linear_351_315)"/>
<path id="Vector_11" d="M58.8063 96.7124C58.783 95.493 58.783 95.2691 58.7674 95.0145C58.7441 94.7366 58.6585 94.6594 58.3551 94.59C58.2851 94.5745 58.1218 94.5668 57.9895 94.5668C57.8962 94.5668 57.8262 94.5437 57.8262 94.4896C57.8262 94.4356 57.8962 94.4125 58.0362 94.4125C58.5185 94.4047 59.1097 94.4125 59.3741 94.4047C59.6697 94.397 61.7233 94.3816 61.9022 94.3739C62.0733 94.3584 62.2211 94.3353 62.2911 94.3198C62.3456 94.3121 62.4 94.2812 62.4389 94.2812C62.4934 94.2812 62.5012 94.3198 62.5012 94.3584C62.5012 94.4125 62.4467 94.5128 62.4312 94.8755C62.4156 94.9604 62.4 95.3077 62.3845 95.4003C62.3767 95.4389 62.3534 95.5316 62.2834 95.5316C62.2211 95.5316 62.2056 95.493 62.2056 95.4312C62.2056 95.3772 62.1978 95.2306 62.1433 95.1379C62.0656 94.999 61.9955 94.8832 61.5288 94.8524C61.3733 94.8369 60.2609 94.8292 60.0742 94.8369C60.0353 94.8369 60.012 94.8678 60.012 94.9141C60.0198 95.5779 60.0353 96.2339 60.0431 96.8976C60.0431 96.9439 60.0509 96.9825 60.1053 96.9825C60.3154 96.9748 61.5055 96.9671 61.7233 96.9439C61.9411 96.9208 62.0811 96.8976 62.1589 96.8127C62.2289 96.7587 62.26 96.7124 62.3067 96.7047C62.3456 96.7047 62.3845 96.7433 62.3845 96.7896C62.3845 96.8359 62.3689 96.9671 62.3145 97.3761C62.2989 97.5382 62.2756 97.8624 62.2834 97.9164C62.2834 97.9859 62.2756 98.0939 62.19 98.0939C62.1278 98.0939 62.1044 98.063 62.1044 98.0244C62.0967 97.9395 62.0889 97.8392 62.0733 97.7312C62.0189 97.5691 61.9022 97.4456 61.5522 97.4224C61.381 97.407 60.3387 97.3993 60.1053 97.3993C60.0664 97.3993 60.0587 97.4379 60.0509 97.4919C60.0509 97.708 60.0587 97.9164 60.0587 98.1325C60.0664 98.4026 60.0664 99.0895 60.0742 99.3211C60.1053 99.869 60.3854 99.9848 61.3188 99.9771C61.5599 99.9771 61.9411 99.9616 62.1822 99.8613C62.4078 99.761 62.5089 99.5912 62.5712 99.2593C62.5867 99.1744 62.6101 99.1358 62.6723 99.1358C62.7423 99.1358 62.7579 99.2362 62.7579 99.3211C62.7579 99.4986 62.6956 100.047 62.6412 100.209C62.579 100.417 62.5012 100.417 62.1589 100.425C61.4744 100.432 60.9221 100.432 60.4787 100.417C60.0353 100.417 59.6931 100.409 59.4208 100.417C59.3197 100.417 59.1174 100.432 58.8996 100.44C58.6818 100.456 58.4485 100.471 58.2618 100.471C58.1451 100.471 58.0907 100.44 58.0907 100.386C58.0907 100.348 58.114 100.301 58.2307 100.301C58.3629 100.301 58.4718 100.286 58.5496 100.263C58.7363 100.224 58.783 100.07 58.8141 99.8304C58.853 99.4909 58.8374 98.858 58.8218 98.1248C58.8218 97.6617 58.8141 97.1832 58.8063 96.7124Z" fill="url(#paint4_linear_351_315)"/>
<path id="Vector_12" d="M64.0422 100.3C63.8944 100.246 63.8633 100.208 63.8633 100.03C63.8633 99.5981 63.9022 99.0964 63.91 98.9652C63.91 98.8417 63.9488 98.7568 64.0266 98.7568C64.1122 98.7568 64.12 98.834 64.12 98.888C64.12 98.9883 64.1511 99.1581 64.2055 99.3048C64.4078 99.8991 65.0923 100.1 65.6602 100.092C66.4536 100.092 66.9281 99.6444 66.9281 99.0732C66.9281 98.7259 66.8347 98.3709 66.0258 97.9387C65.8468 97.8461 65.6679 97.7535 65.489 97.6531C64.4 97.0743 64.0422 96.5418 64.0344 95.8317C64.0344 94.8515 65.0845 94.2109 66.368 94.2109C66.967 94.2109 67.4493 94.2881 67.6904 94.3499C67.776 94.373 67.8149 94.3962 67.8149 94.4579C67.8149 94.5582 67.7837 94.7898 67.776 95.4227C67.776 95.5924 67.7371 95.6773 67.6593 95.6773C67.5971 95.6773 67.5659 95.631 67.5659 95.5384C67.5659 95.4612 67.527 95.222 67.3326 95.0136C67.2003 94.8592 66.9048 94.6354 66.298 94.6277C65.6368 94.6277 65.0301 94.9441 65.0301 95.4844C65.0301 95.8394 65.1857 96.125 66.0102 96.5418C66.1347 96.6035 66.2591 96.6652 66.3836 96.727C67.597 97.3367 67.9704 97.9541 67.9627 98.6796C67.9627 99.2739 67.706 99.7524 67.037 100.177C66.6014 100.462 66.0024 100.501 65.5124 100.509C64.999 100.501 64.4311 100.455 64.0422 100.3Z" fill="url(#paint5_linear_351_315)"/>
<path id="Vector_13" d="M70.7623 97.0373C70.7779 97.0373 70.7934 97.0373 70.809 97.0373C71.1201 96.7363 72.4892 95.5709 72.7614 95.3008C73.0337 95.0461 73.2359 94.8531 73.2359 94.7142C73.2359 94.6293 73.197 94.5753 73.1115 94.5521C73.0259 94.529 72.987 94.5135 72.987 94.4595C72.987 94.4055 73.0415 94.3823 73.1348 94.3901C73.3371 94.3901 73.8427 94.4209 74.0916 94.4286C74.3794 94.4364 74.8928 94.4286 75.1806 94.4286C75.274 94.4286 75.3362 94.4518 75.3362 94.5058C75.3362 94.5599 75.2817 94.5907 75.1962 94.5907C75.0639 94.5907 74.8228 94.6216 74.6594 94.6756C74.3639 94.7682 74.0605 94.9303 73.6638 95.2545C73.3604 95.4937 71.968 96.636 71.6802 96.9293C72.0069 97.3074 73.7805 99.044 74.1227 99.3527C74.5194 99.6923 74.8695 100.047 75.3517 100.24C75.6162 100.348 75.8029 100.356 75.904 100.356C75.974 100.356 76.0285 100.395 76.0285 100.449C76.0285 100.503 75.974 100.534 75.8029 100.526C75.5384 100.518 75.274 100.51 75.0017 100.51C74.7294 100.503 74.5661 100.495 74.3716 100.48C73.8894 100.433 73.586 100.256 73.197 99.9315C72.8081 99.6151 71.0812 97.7319 70.879 97.4849C70.8479 97.4464 70.8168 97.4078 70.7857 97.3692C70.7701 97.3692 70.7545 97.3692 70.7468 97.3692C70.7468 97.6084 70.739 97.8554 70.739 98.0947C70.7312 98.8279 70.7234 99.4607 70.739 99.8158C70.7545 100.04 70.8401 100.194 71.0657 100.233C71.1901 100.256 71.4002 100.263 71.5169 100.271C71.5869 100.271 71.6413 100.317 71.6413 100.356C71.6413 100.41 71.5713 100.441 71.4624 100.441C70.9568 100.433 70.3034 100.395 70.07 100.395C69.86 100.395 69.2766 100.418 68.9188 100.41C68.8021 100.41 68.7476 100.379 68.7476 100.325C68.7476 100.287 68.7788 100.24 68.8954 100.24C69.0277 100.24 69.1366 100.233 69.2144 100.217C69.4011 100.179 69.4555 100.032 69.4866 99.8003C69.5333 99.4607 69.5411 98.8279 69.5488 98.0869C69.5566 97.6162 69.5566 97.1454 69.5644 96.6746C69.58 95.4551 69.58 95.2313 69.5722 94.9766C69.5488 94.6988 69.4711 94.6139 69.1755 94.5367C69.0977 94.5213 68.9421 94.5058 68.8099 94.5058C68.7165 94.5058 68.6543 94.475 68.6543 94.4209C68.6543 94.3669 68.7321 94.3438 68.8643 94.3438C69.3466 94.3438 69.9378 94.3746 70.1634 94.3746C70.3889 94.3746 71.0501 94.3669 71.3535 94.3746C71.4935 94.3746 71.5557 94.3978 71.5557 94.4518C71.5557 94.5058 71.5013 94.5367 71.4235 94.5367C71.3302 94.5367 71.2757 94.5444 71.159 94.5676C70.9101 94.5984 70.8323 94.7142 70.809 94.9921C70.7934 95.2468 70.7934 95.4706 70.7779 96.69C70.7623 96.7981 70.7623 96.9215 70.7623 97.0373Z" fill="url(#paint6_linear_351_315)"/>
<path id="Vector_14" d="M78.4234 98.1396C78.3612 98.1396 78.3457 98.1473 78.3223 98.2091C78.1045 98.6413 77.8945 99.0735 77.6767 99.5057C77.5522 99.7449 77.4978 99.9842 77.49 100.1C77.49 100.27 77.5833 100.378 77.9256 100.393C77.9801 100.393 78.0345 100.393 78.089 100.401C78.229 100.409 78.2523 100.455 78.2523 100.509C78.2523 100.586 78.1901 100.609 78.0734 100.609C77.7078 100.602 77.1866 100.548 76.8288 100.54C76.7121 100.54 76.4243 100.563 75.8409 100.548C75.7009 100.548 75.6387 100.517 75.6387 100.44C75.6387 100.386 75.6776 100.339 75.7709 100.339C75.872 100.339 75.6931 100.324 75.7942 100.324C76.3076 100.27 76.5021 99.9687 76.7433 99.4825C77.7778 97.4527 78.8279 95.4306 79.9014 93.4085C80.0414 93.1384 80.1348 93.0226 80.2514 93.0303C80.4226 93.038 80.4692 93.1307 80.5704 93.3545C80.8271 93.9102 82.5539 97.993 83.1918 99.5134C83.5807 100.424 83.8919 100.563 84.0941 100.609C84.2575 100.64 84.3819 100.656 84.5142 100.663C84.6153 100.671 84.6619 100.702 84.6619 100.771C84.6542 100.849 84.5919 100.872 84.1719 100.849C83.783 100.833 82.9662 100.795 82.0328 100.725C81.8305 100.71 81.6983 100.702 81.7061 100.632C81.7061 100.578 81.7372 100.54 81.8538 100.532C81.9316 100.524 82.0094 100.432 81.9627 100.316C81.7061 99.6446 81.4416 98.9808 81.1849 98.3094C81.1615 98.2476 81.1226 98.2399 81.0682 98.2322C80.1814 98.2013 79.3024 98.1705 78.4234 98.1396ZM80.8426 97.6842C80.8971 97.6842 80.9048 97.6611 80.8971 97.6302C80.5781 96.789 80.2514 95.94 79.9247 95.0987C79.917 95.0679 79.9014 95.0061 79.8781 95.0061C79.8392 95.0061 79.8236 95.0601 79.808 95.091C79.4113 95.9014 79.0224 96.7195 78.6257 97.5299C78.5946 97.5762 78.6257 97.5993 78.6646 97.5993C79.3958 97.6302 80.1192 97.6611 80.8426 97.6842ZM81.9316 91.7877C81.9783 91.8804 81.9239 91.9035 81.8772 91.9035C81.8383 91.9035 81.7605 91.8803 81.5816 91.8881C81.0993 91.9267 80.3915 92.1428 80.0647 92.2894C79.9947 92.3203 79.9325 92.3511 79.9092 92.3434C79.8936 92.3434 79.8547 92.3203 79.8625 92.2894C79.8625 92.2585 79.8936 92.2277 79.9481 92.1891C80.3059 91.9035 81.2549 91.3324 81.4027 91.2629C81.4882 91.2089 81.5505 91.2012 81.5816 91.2012C81.6438 91.2012 81.6594 91.2243 81.6983 91.3015C81.7683 91.425 81.8383 91.5716 81.9316 91.7877Z" fill="url(#paint7_linear_351_315)"/>
</g>
<g id="Group_7">
<path id="Vector_15" d="M36.6671 88.431C38.2695 88.3538 39.8952 88.2843 41.5443 88.2226L28.834 86.2314L25.528 85.668C25.4191 86.2854 25.318 86.9106 25.2324 87.5357L28.5384 87.8367L36.6671 88.431Z" fill="url(#paint8_linear_351_315)"/>
<g id="Group_8">
<path id="Vector_16" d="M83.2453 88.0148L104.504 79.0312C104.162 78.1127 103.797 77.202 103.392 76.3145L80.8184 87.9531C81.6351 87.9685 82.4441 87.9917 83.2453 88.0148Z" fill="url(#paint9_linear_351_315)"/>
</g>
<path id="Vector_17" d="M92.7287 88.3389L105.696 86.7027L106.474 86.5869C106.388 86.0235 106.279 85.4678 106.17 84.9121L105.315 85.1051L90.5273 88.2463C91.2663 88.2771 91.9975 88.308 92.7287 88.3389Z" fill="url(#paint10_linear_351_315)"/>
<path id="Vector_18" d="M47.2926 72.0459C47.1604 71.5442 47.1059 71.1429 47.0515 70.757L46.9581 70.1087C46.8726 69.4372 46.7948 68.7503 46.7637 68.0403L40.9063 60.6465C39.9806 61.3488 39.0861 62.0897 38.2227 62.8692L47.4171 72.5861C47.3782 72.4009 47.3393 72.2157 47.2926 72.0459Z" fill="url(#paint11_linear_351_315)"/>
<path id="Vector_19" d="M47.8447 80.9686C47.7902 80.4746 47.6735 79.9652 47.5491 79.479L47.5024 79.1626C47.5024 79.0931 47.5024 79.0314 47.5024 78.9696L33.4385 68.041C32.7307 68.944 32.0617 69.8779 31.4316 70.8426L47.8602 81.4702C47.8758 81.339 47.868 81.1769 47.8447 80.9686Z" fill="url(#paint12_linear_351_315)"/>
<path id="Vector_20" d="M47.1764 85.5838C47.223 85.3754 47.2619 85.1825 47.3008 84.9895L28.2119 76.8008C27.7997 77.7424 27.4341 78.7071 27.0918 79.6796L46.9586 86.4636L47.1764 85.5838Z" fill="url(#paint13_linear_351_315)"/>
<path id="Vector_21" d="M81.6355 61.0018L83.7124 56.3479C82.6311 55.8308 81.511 55.36 80.3753 54.9355L78.6874 59.8596L71.9121 79.6715C72.1221 80.1886 72.3399 80.7212 72.5811 81.2537L81.6355 61.0018Z" fill="url(#paint14_linear_351_315)"/>
<path id="Vector_22" d="M74.5645 84.681C74.7745 84.8663 74.9845 85.0129 75.1945 85.1132L75.3112 85.175L92.751 62.2141C91.8798 61.4655 90.9775 60.7554 90.0363 60.084L74.5645 84.681Z" fill="url(#paint15_linear_351_315)"/>
<path id="Vector_23" d="M76.9604 87.1502L77.5127 87.5824L99.8297 70.0395C99.1919 69.1211 98.5151 68.2335 97.8073 67.3691L76.8359 86.9958C76.8826 87.0499 76.9215 87.0962 76.9604 87.1502Z" fill="url(#paint16_linear_351_315)"/>
</g>
<g id="Group_9">
<g id="Group_10">
<g id="Group_11">
<path id="Vector_24" fill-rule="evenodd" clip-rule="evenodd" d="M47.4727 9.67773L48.3594 13.1199C48.3594 13.1199 50.273 12.8575 50.3974 11.6767L47.4727 9.67773Z" fill="url(#paint17_linear_351_315)"/>
</g>
<g id="Group_12">
<path id="Vector_25" fill-rule="evenodd" clip-rule="evenodd" d="M58.0821 5.76562L59.7001 8.92998C59.7001 8.92998 58.0899 9.98733 57.2109 9.18467L58.0821 5.76562Z" fill="url(#paint18_linear_351_315)"/>
</g>
</g>
<path id="Vector_26" fill-rule="evenodd" clip-rule="evenodd" d="M50.1725 21.564C50.6936 21.0701 51.2226 20.6224 51.7671 20.2288C52.5838 19.6268 53.4706 19.1792 54.334 18.9168C54.583 18.8241 54.8708 18.6852 55.1119 18.5309C55.2442 18.4537 55.3531 18.3688 55.4697 18.2916C55.6798 18.1372 55.9209 17.9674 56.2165 17.8131C57.1733 17.3269 58.1301 17.2883 58.9624 17.2883H59.3202C60.028 17.3269 60.6581 17.2651 61.1793 17.0645C61.3038 17.0181 61.436 16.9641 61.5604 16.9101C62.1827 16.6631 62.9528 16.3621 63.8163 16.3081C63.6218 15.0346 62.6339 8.04219 63.3807 4.65401C63.3807 4.65401 62.1827 10.8284 58.9546 12.2562C55.742 13.6917 51.5571 4.63086 51.5571 4.63086L51.5259 4.63858C51.5259 4.63858 54.4352 14.1857 51.0592 15.2276C47.6833 16.2695 42.666 12.426 42.666 12.426C45.6219 14.5716 49.7602 20.9157 50.1725 21.564Z" fill="url(#paint19_linear_351_315)"/>
</g>
<path id="Vector_27" fill-rule="evenodd" clip-rule="evenodd" d="M46.6413 47.8441C46.299 49.1484 46.2212 50.8695 46.5635 52.2201C46.9057 53.5708 46.6413 55.261 46.6413 56.7042C46.6413 58.1475 48.5548 66.1124 48.4537 67.2701C48.3526 68.4278 48.796 71.322 48.8426 71.515C48.8893 71.7079 49.3638 73.2052 49.216 75.1347C49.0682 77.0641 49.0682 79.1866 49.0682 79.1866C49.8461 82.3664 49.0215 82.2274 49.0215 83.0919C49.0215 83.9563 48.9749 84.6817 48.197 87.383C48.1192 87.6454 48.0648 87.9001 48.0103 88.1548C53.8677 87.9927 59.8573 87.9078 65.9013 87.9078C69.2384 87.9078 72.5521 87.9387 75.8502 87.985C75.1502 87.082 74.6445 86.4646 74.6445 86.4646C72.5521 85.4998 71.6264 82.6982 71.6264 82.6982C70.5063 80.3366 69.3395 77.8745 69.7751 76.3773C70.2107 74.88 70.0162 72.8116 70.0162 72.8116C69.9229 70.8821 70.4518 69.1919 70.4518 69.1919C71.6186 67.0694 71.8598 64.6537 71.8598 64.6537C71.6653 61.8598 72.2487 59.6834 72.2487 59.6834C73.4311 57.8002 73.4155 56.3029 73.4155 56.3029C73.4155 53.0691 74.489 52.7835 74.489 52.7835C75.119 50.4218 76.1925 48.5387 76.1925 48.5387C76.877 48.1528 78.3783 45.6444 79.2573 43.4757C80.1363 41.307 81.3498 39.7093 85.6747 38.2661C89.9997 36.8228 92.2399 39.3775 92.2399 39.3775C95.3047 41.2143 93.6479 37.4017 93.6479 37.4017C92.2399 32.8635 87.8605 30.5019 86.017 29.7301C84.1734 28.9583 82.9522 27.8469 82.9522 27.8469C81.6376 25.3849 80.6186 24.9063 78.9695 24.4201C77.3204 23.9339 75.0802 22.151 74.0611 21.7651C73.0421 21.3793 73.6255 20.5148 68.0327 18.485C62.4398 16.4629 63.0232 18.7783 59.6239 18.6317C56.2246 18.485 57.0958 19.4498 54.5211 20.3219C51.9463 21.194 49.2238 24.7597 49.2238 24.7597C45.9645 27.0751 45.63 31.6595 45.63 31.6595C43.2964 38.6057 45.3889 42.9432 45.5834 43.8616C45.7778 44.78 46.9758 46.5397 46.6413 47.8441Z" fill="white"/>
<path id="Vector_28" fill-rule="evenodd" clip-rule="evenodd" d="M61.2413 73.1351C61.4357 73.6522 61.7236 75.219 62.7659 76.3381C65.154 78.9082 67.682 82.7517 68.5999 84.1718C69.7278 85.916 69.5956 86.9966 70.9802 87.9227C72.5281 87.9381 74.0683 87.9536 75.6085 87.9767C75.414 87.7452 75.2118 87.5059 75.0096 87.2667C74.8695 87.1046 74.2784 86.518 74.115 86.356C71.2913 83.6933 69.7434 78.7847 69.7434 75.5509C69.7434 74.9411 70.2257 72.7261 70.2257 71.113C70.2257 67.7789 72.077 68.3809 71.8747 61.8515C71.7581 57.9385 73.3605 60.8868 73.5238 57.0278C73.5627 56.0631 72.4037 52.7212 74.255 53.0762C74.854 53.192 74.9473 52.3353 75.2274 49.7961C75.344 48.7079 76.2619 48.3837 76.9542 48.0905C77.0631 48.0441 77.3665 47.4267 77.4521 47.2646C78.0666 46.0838 79.2645 42.9272 79.4434 42.8345C79.3578 41.3836 77.2343 43.7375 73.7494 45.1576C69.2689 46.9945 62.5481 48.1445 60.7512 52.9913C60.6501 53.2615 59.7478 54.0178 59.8644 55.1061C60.0822 57.1667 59.4055 59.8063 59.8022 60.3542C59.8178 60.3774 59.8644 60.8636 59.9267 61.6277C59.9733 62.1448 58.7677 62.3995 58.8221 63.1095C59.0477 65.7877 60.5956 69.7856 60.7357 70.9587C60.829 71.6456 60.9768 72.4251 61.2413 73.1351Z" fill="#EE777D"/>
<path id="Vector_29" fill-rule="evenodd" clip-rule="evenodd" d="M45.5443 44.3786C45.7544 45.1658 46.2444 44.7567 46.2133 45.0346C46.1666 45.544 46.2367 45.6906 46.7345 45.7215C47.1001 46.1923 46.9212 48.0446 46.7267 48.6234C46.4622 49.4261 46.0966 49.8892 46.12 50.7999L46.3611 51.3556C46.7112 50.9697 45.9099 52.3512 46.5945 52.3357C47.3412 53.3391 45.4432 54.983 46.5945 55.8011L46.4933 56.5574C47.139 56.6038 46.8201 56.7195 46.8201 57.2907C46.8201 58.0316 47.4657 57.5453 47.2168 58.1859C46.9756 58.7802 46.8512 58.3326 46.8123 58.95C46.7734 59.4671 46.8356 59.2973 47.1156 59.6987C47.7691 59.4131 46.4933 60.6943 47.3801 60.5245C47.9402 61.3349 47.1701 61.5741 48.018 63.7351C48.7025 65.4794 47.878 65.873 48.0958 67.3471C48.4925 67.8102 48.1969 67.679 48.4769 68.4353C49.177 70.334 48.0958 71.1366 48.7647 72.441C49.2314 73.344 49.2003 74.8953 49.2314 75.7365C49.2703 77.0872 49.4104 76.2305 49.0448 77.1875C49.2081 77.7972 49.107 77.967 49.0837 78.7851C49.0681 79.3331 49.2392 79.1941 49.2159 79.7035C49.6048 80.4908 49.5348 80.3364 49.3481 81.6099C49.0992 83.3078 48.9825 83.6783 48.7258 85.299C48.6636 85.7158 48.3525 86.997 48.1735 87.6144C48.1191 87.8151 48.0646 87.9926 48.018 88.1624C50.7327 88.0852 53.4786 88.0312 56.24 87.9926C57.1813 84.3266 57.6247 81.0928 54.2487 80.8844C50.1182 80.6374 54.871 69.2149 52.3118 69.1917C48.8503 69.1608 54.7076 58.6876 52.4596 57.4604C50.336 56.3028 51.7206 49.5341 51.145 49.6499C47.2557 50.4063 49.5115 41.0444 49.2159 41.1061C47.0301 41.5847 48.3602 28.5568 50.2816 31.2812C50.3282 31.3507 50.1649 28.4256 56.1156 24.5435C59.5538 22.2975 60.9539 23.4629 62.7897 24.5743C63.2564 24.8522 64.2443 24.227 65.7223 23.9492C69.5883 23.2237 74.4966 28.086 75.4456 27.5843C77.6626 26.4112 78.6193 29.9769 78.7049 29.9537C81.5208 29.1511 87.7515 30.9648 81.6841 26.4189C81.513 26.1025 81.1863 25.7552 80.9296 25.3307C80.2295 24.1807 78.4326 24.3042 77.9815 24.1421C76.9469 23.7794 77.2503 23.9183 76.4102 23.4398C75.6012 22.9767 75.7723 22.9999 75.3289 22.4056C75.1111 22.3902 74.1933 22.259 73.2598 21.3096C72.622 20.6613 72.303 20.5456 71.5718 20.0671C70.4517 19.3339 71.0896 19.5654 70.0161 19.3184C69.2694 19.1486 69.8139 19.11 68.9738 18.8245C68.3359 18.6084 67.947 18.8245 67.3013 18.2919L66.3601 18.2379C65.9634 17.5587 65.1466 17.744 64.2677 17.7362C63.5676 17.7285 63.1086 17.9601 62.3852 18.0527C61.5373 18.1607 61.9263 18.5389 59.1959 18.7164C58.2781 18.7782 57.648 18.6933 56.4656 19.2953C54.8788 20.0979 55.6722 19.9744 54.5832 20.2214C54.0542 20.3449 53.6809 20.8543 54.0387 20.7231C52.4907 21.2942 51.9851 21.8036 51.5339 22.1586C50.406 23.0307 50.1416 23.517 48.827 24.8908C47.4423 26.3417 46.9601 26.6505 46.4 28.8038C46.0966 29.9692 45.5599 31.0728 45.7155 31.4742C45.9488 32.0839 45.521 31.4047 44.8987 33.9439C44.3853 36.0355 43.7786 40.836 45.1087 42.0555C45.5366 42.4182 45.241 43.244 45.5443 44.3786Z" fill="#F6F6F6"/>
<path id="Vector_30" fill-rule="evenodd" clip-rule="evenodd" d="M65.0293 50.8234C65.566 50.7153 65.7838 49.7197 65.9939 49.2489C66.2194 48.7473 66.9273 48.0372 66.5773 47.5664C65.5038 47.7748 65.1693 49.9898 65.0293 50.8234Z" fill="#393533"/>
<g id="Group_13">
<g id="Group_14">
<g id="Group_15">
<path id="Vector_31" fill-rule="evenodd" clip-rule="evenodd" d="M84.0468 29.2739C84.3113 28.6179 76.2293 29.382 75.5058 32.6621C74.8835 35.4869 69.1429 37.8871 66.4826 38.6898C61.5431 40.1794 56.6036 56.3484 84.8947 38.6744C89.1808 35.9962 94.2291 42.1783 93.918 37.316C93.7235 34.2983 88.2473 29.6212 85.5792 29.5055C85.4548 29.4977 84.3735 29.1581 84.3502 29.1118L84.0468 29.2739Z" fill="#FEE5B9"/>
<path id="Vector_32" fill-rule="evenodd" clip-rule="evenodd" d="M80.983 32.523C81.4497 32.9089 80.633 32.1448 79.9173 32.6619C79.9095 32.6619 78.8205 32.4073 78.3616 32.4073C77.8793 32.4073 76.6814 32.824 77.1014 33.3103C77.117 33.3334 77.5448 33.5186 77.7004 33.7039C77.996 34.0512 77.0081 34.3213 76.3936 33.9972C74.5345 33.017 77.3892 29.5593 80.983 32.523Z" fill="#F0DCB5"/>
<path id="Vector_33" fill-rule="evenodd" clip-rule="evenodd" d="M73.1339 45.1266C68.6534 46.9635 62.9672 47.3185 61.1703 52.1577C61.0225 52.5513 60.3302 53.3617 60.0502 55.0519C59.8868 56.0244 59.5835 59.1192 59.5757 60.4236C59.5679 61.6121 58.5956 62.6695 58.6423 63.5879C58.7589 65.8339 59.2412 69.2066 59.5679 69.6156C59.6301 69.6928 60.268 71.082 60.9292 72.8803C61.1237 73.3974 61.4115 74.9565 62.4538 76.0833C63.0294 76.7007 63.6051 77.3876 64.1729 78.0977C64.5307 77.9742 68.0078 82.4428 67.8756 82.1959C66.8177 80.3127 65.4408 78.7614 66.701 76.6081C67.2377 75.6974 64.2429 74.8098 64.4296 71.0898C64.484 69.9166 64.3985 68.62 63.6206 68.0566C60.618 65.8724 64.0018 62.6618 63.6673 61.7665C62.7883 59.428 62.9439 57.9924 63.4184 56.9351C64.0018 55.6385 65.9931 54.7586 65.9776 53.4388C65.1841 51.4476 67.6889 49.5104 68.5912 48.8081C69.3846 48.1984 74.7597 45.1421 76.0354 44.4706C75.9498 43.0351 76.6188 43.7065 73.1339 45.1266Z" fill="#E30613"/>
<g id="Group_16">
<g id="Clip path group">
<mask id="mask0_351_315" style="mask-type:luminance" maskUnits="userSpaceOnUse" x="62" y="31" width="33" height="17">
<g id="SVGID_00000040543136840080187220000011703232274278513051_">
<path id="Vector_34" d="M62.5385 44.7181C63.5575 48.1912 67.9446 49.2717 84.8944 38.6827C88.2004 36.6143 91.6696 38.7985 93.3965 39.7246C93.801 39.9407 94.2133 38.3971 93.9099 37.3243C93.4354 35.6341 92.1286 33.5966 89.6394 31.9681C87.9203 31.1191 87.0258 32.2382 86.5279 32.8865C84.7622 35.171 85.719 35.7499 81.2929 36.3596C80.2428 36.5062 78.8115 36.7146 77.3724 37.0388C75.9723 37.3475 74.5565 37.7488 73.452 38.073C71.8496 38.5515 69.2048 37.8878 66.8401 38.5824C64.0397 39.4082 61.6672 41.7544 62.5385 44.7181Z" fill="white"/>
</g>
</mask>
<g mask="url(#mask0_351_315)">
<path id="Vector_35" d="M94.2062 31.1191H61.668V49.264H94.2062V31.1191Z" fill="url(#paint20_linear_351_315)"/>
</g>
</g>
</g>
</g>
</g>
</g>
<g id="Group_17">
<path id="Vector_36" fill-rule="evenodd" clip-rule="evenodd" d="M91.4924 78.9851C90.4734 78.4525 89.1743 76.9553 85.7673 77.9663L85.3083 77.8969C83.1692 76.4459 80.5711 76.1526 79.9955 75.8362C78.6886 75.1261 75.4294 75.9365 71.3145 77.4647C71.3222 77.5032 71.3222 77.5418 71.33 77.5881C71.3922 77.974 71.5089 78.4217 71.7112 78.9851C72.0457 79.9267 72.4657 80.8605 72.9169 81.8484L73.0647 82.188C73.2902 82.8363 73.6169 83.4769 73.9981 84.0017C74.3948 84.5497 74.8304 84.9433 75.2738 85.1594L75.5149 85.2752L75.7483 85.5145C76.1995 86.0856 76.6273 86.6413 77.0396 87.197L78.0975 88.0151C87.9531 88.2003 96.3463 88.5785 105.222 89.1805C99.6833 84.7272 92.7914 79.6643 91.4924 78.9851Z" fill="url(#paint21_linear_351_315)"/>
<path id="Vector_37" fill-rule="evenodd" clip-rule="evenodd" d="M46.8275 87.329L47.2554 85.6388C47.3876 85.0754 47.4887 84.5814 47.5509 84.1029C47.5821 83.8714 47.5976 83.6398 47.5976 83.4083V83.2539C47.5976 83.1536 47.5976 83.0533 47.5976 82.9221C47.6132 82.6288 47.6754 82.3432 47.7921 82.0422L47.831 81.9573C47.9477 81.7104 47.971 81.4788 47.9243 81.0235C47.8932 80.6916 47.8232 80.3597 47.7454 80.0201C45.5985 79.6574 43.9339 79.5956 43.1793 79.5648C41.6703 79.5107 31.5424 86.5495 26.4707 89.189C33.3315 88.7105 39.15 88.4095 46.6642 88.1857C46.7031 87.9001 46.7575 87.6069 46.8275 87.329Z" fill="url(#paint22_linear_351_315)"/>
</g>
<g id="Group_18">
<path id="Vector_38" opacity="0.3" d="M46.8276 87.3299L47.2554 85.6396C47.3876 85.0762 47.4888 84.5823 47.551 84.1038C47.5821 83.8722 47.5977 83.6407 47.5977 83.4092V83.2548C47.5977 83.1545 47.5977 83.0541 47.5977 82.9229C47.6132 82.6296 47.6754 82.3441 47.7921 82.0431L47.831 81.9582C47.9399 81.7421 47.9632 81.5183 47.9321 81.1401C46.4464 81.0552 45.3029 81.0783 44.7351 81.0629C43.6461 81.0166 35.4396 85.0145 30.0723 88.912C35.4162 88.5956 40.9702 88.3563 46.6564 88.1866C46.7031 87.901 46.7576 87.6077 46.8276 87.3299Z" fill="url(#paint23_linear_351_315)"/>
<path id="Vector_39" opacity="0.3" d="M91.851 80.923C90.8631 80.3982 88.794 77.9671 85.4958 78.9627L84.3912 78.8006C82.3221 77.3728 79.8018 76.9946 79.2495 76.6859C77.9816 75.9758 75.1579 76.8094 71.502 78.3529C71.5564 78.5536 71.6186 78.7543 71.7042 78.9935C72.0387 79.9351 72.4587 80.869 72.9099 81.8569L73.0577 82.1965C73.2833 82.8448 73.61 83.4854 73.9911 84.0102C74.3878 84.5582 74.8235 84.9518 75.2668 85.1679L75.508 85.2837L75.7413 85.5229C76.1925 86.094 76.6203 86.6497 77.0326 87.2054L78.0827 88.0235C86.4759 88.1779 94.6591 88.4866 102.383 88.9574H102.764C98.1595 85.5692 92.8233 81.4324 91.851 80.923Z" fill="url(#paint24_linear_351_315)"/>
</g>
<g id="Group_19">
<g id="Group_20">
<path id="Vector_40" d="M44.6891 14.7179C45.3503 15.4434 45.9804 16.2075 46.5949 16.9793C47.8084 18.5306 48.9596 20.1513 50.0409 21.7953C50.2353 21.6023 50.4376 21.4325 50.632 21.255C50.5931 21.255 50.5465 21.2627 50.5076 21.2704C49.4574 19.6497 48.3529 18.0752 47.1705 16.5393C46.6416 15.8524 46.0815 15.181 45.5059 14.525C46.0348 14.7874 46.5793 15.0266 47.1394 15.235C47.9717 15.5283 48.8429 15.7521 49.7608 15.7676C50.2042 15.783 50.702 15.729 51.1299 15.6132C51.6044 15.5129 52.0866 15.1887 52.3745 14.7951C52.9579 13.9847 53.0745 13.0586 53.1368 12.1864C53.1834 11.3066 53.1212 10.4422 53.0201 9.58548C52.9112 8.6902 52.7478 7.80264 52.5534 6.93051C53.0045 7.70231 53.4868 8.45867 54.0002 9.19187C54.5058 9.8942 55.0425 10.5657 55.6648 11.1831C56.2871 11.7774 57.0883 12.418 58.014 12.6109C58.4574 12.7112 59.1652 12.58 59.5386 12.3639C59.9353 12.1633 60.2932 11.8931 60.6121 11.5921C61.2499 10.9824 61.7244 10.2569 62.1289 9.50059C62.5723 8.65933 62.8446 7.77949 63.0546 6.87649C63.0157 7.16977 62.9846 7.45533 62.9768 7.7409C62.9457 8.73651 62.969 9.73213 63.0157 10.7277C63.109 12.6109 63.2802 14.4864 63.5369 16.3618C63.7158 16.3387 63.8947 16.3155 64.0814 16.3078C64.1047 16.3078 64.1281 16.3078 64.1514 16.3078C63.8558 14.4169 63.5913 12.5106 63.4358 10.5965C63.358 9.60864 63.3035 8.62074 63.2957 7.63285C63.2957 6.64495 63.3191 5.64934 63.5058 4.66916C63.1013 6.31308 62.5179 7.93385 61.6933 9.40025C61.2733 10.1257 60.7754 10.8204 60.1531 11.376C59.5386 11.9086 58.7685 12.4025 58.0062 12.2019C57.2361 12.0244 56.5672 11.4687 55.9915 10.8821C55.4081 10.2878 54.8947 9.61636 54.4202 8.92174C53.479 7.53251 52.6623 6.03523 51.9544 4.5148C51.8844 4.36816 51.7133 4.2987 51.5655 4.36044L51.5344 4.36816C51.3943 4.42219 51.3088 4.57654 51.3477 4.72319V4.7309C51.7911 6.34395 52.1489 8.00331 52.3433 9.66266C52.4367 10.4962 52.4834 11.3297 52.4367 12.1478C52.3822 12.9505 52.2344 13.7918 51.7988 14.3706C51.581 14.6562 51.301 14.8414 50.9432 14.9186C50.5465 15.0189 50.1886 15.0498 49.7764 15.0421C48.9752 15.0189 48.1662 14.8105 47.3883 14.5327C45.8326 13.9616 44.3624 13.0894 43.0167 12.1247C43.0167 12.1247 43.0089 12.1247 43.0089 12.117C42.8378 11.9935 42.5966 12.0244 42.4722 12.1941C42.3477 12.3639 42.3788 12.6032 42.55 12.7267C42.55 12.7267 42.5578 12.7267 42.5578 12.7344C43.3278 13.2978 44.0201 13.9924 44.6891 14.7179Z" fill="#3C3C3B"/>
<path id="Vector_41" d="M48.4767 13.5071C48.2978 13.5071 48.1422 13.3913 48.1033 13.2138L47.2165 9.77929C47.1776 9.62493 47.2399 9.46286 47.3721 9.37024C47.5043 9.27763 47.6833 9.27763 47.8155 9.37024L50.7403 11.3692C50.857 11.4464 50.9192 11.5853 50.9036 11.7242C50.7481 13.1829 48.6245 13.4916 48.5311 13.5071C48.5156 13.5071 48.5 13.5071 48.4767 13.5071ZM48.2278 10.582L48.7645 12.6658C49.1845 12.5577 49.8768 12.3108 50.0791 11.8477L48.2278 10.582Z" fill="#3C3C3B"/>
<path id="Vector_42" d="M58.1859 9.8705C57.7425 9.8705 57.3691 9.73158 57.0813 9.46145C56.9802 9.36883 56.9335 9.22219 56.9646 9.08327L57.828 5.66422C57.8669 5.50987 57.9992 5.3941 58.1625 5.37094C58.3259 5.35551 58.4814 5.4404 58.5515 5.57933L60.1694 8.74368C60.2628 8.92119 60.2005 9.12958 60.0372 9.23763C60.0061 9.27622 59.0882 9.8705 58.1859 9.8705ZM57.7814 9.02153C58.1781 9.20676 58.8859 8.99065 59.3138 8.77455L58.3337 6.8605L57.7814 9.02153Z" fill="#3C3C3B"/>
</g>
<g id="Group_21">
<path id="Vector_43" fill-rule="evenodd" clip-rule="evenodd" d="M44.8363 52.2051C41.2736 54.1732 37.9832 56.6197 35.144 59.514C31.1613 63.5427 27.9876 68.3356 25.8718 73.5529C23.8649 78.5927 22.8226 84.003 22.877 89.3901C22.8848 89.3901 22.8926 89.3901 22.9004 89.3901C23.2426 78.4229 27.9332 67.7336 35.7819 60.1468C38.5433 57.4687 41.6548 55.1533 45.023 53.2779C45.0074 53.0618 44.9763 52.8534 44.9296 52.6527C44.8907 52.5138 44.8674 52.3594 44.8363 52.2051Z" fill="#3C3C3B"/>
<path id="Vector_44" fill-rule="evenodd" clip-rule="evenodd" d="M105.829 73.5523C103.721 68.3349 100.54 63.5421 96.5568 59.5133C92.5819 55.4691 87.7514 52.2739 82.5008 50.0897C81.1862 49.5418 79.8404 49.0633 78.4792 48.6465C78.3392 48.8394 78.2069 49.0247 78.0513 49.2099L77.958 49.3179C77.8958 49.3874 77.818 49.4723 77.7324 49.5572C79.2104 49.9817 80.6728 50.4756 82.104 51.0545C87.2535 53.146 91.9441 56.2795 95.9346 60.1308C103.775 67.7175 108.474 78.3991 108.816 89.3663C108.824 89.3663 108.832 89.3663 108.839 89.3663C108.878 83.9946 107.836 78.5921 105.829 73.5523Z" fill="#3C3C3B"/>
<path id="Vector_45" fill-rule="evenodd" clip-rule="evenodd" d="M67.2305 33.6592C67.0361 34.3075 66.7405 34.8015 66.126 35.5887C66.5538 35.5038 67.8139 34.0992 67.8528 33.5049C67.9384 32.2237 64.8814 28.6503 63.6523 28.6426C64.5702 29.4607 66.4838 30.9039 67.2305 33.6592Z" fill="#3C3C3B"/>
<path id="Vector_46" fill-rule="evenodd" clip-rule="evenodd" d="M65.3636 36.3447C60.6653 40.0339 56.6437 38.2742 53.7578 34.9863C53.8667 38.004 61.8554 41.6392 65.3636 36.3447Z" fill="#3C3C3B"/>
<path id="Vector_47" fill-rule="evenodd" clip-rule="evenodd" d="M56.9863 39.6557C55.8584 39.3701 54.046 38.7913 52.0469 36.7383C52.2336 38.1507 56.1073 40.1496 56.9863 39.6557Z" fill="#3C3C3B"/>
<path id="Vector_48" fill-rule="evenodd" clip-rule="evenodd" d="M59.7329 78.94C59.9351 81.5255 57.4382 82.1661 56.8159 79.9742C56.0069 77.1263 55.3379 82.0426 57.9671 82.1584C59.5306 82.2278 60.6586 81.0007 60.5185 79.4571C60.4252 78.392 59.6629 77.9984 59.7329 78.94Z" fill="#3C3C3B"/>
<path id="Vector_49" fill-rule="evenodd" clip-rule="evenodd" d="M52.1084 30.8948C51.7739 32.0525 51.8906 33.0249 52.614 32.9555C52.614 27.6996 57.3124 27.0281 57.7169 26.7889C55.1732 26.5959 52.8007 28.5022 52.1084 30.8948Z" fill="#3C3C3B"/>
<path id="Vector_50" fill-rule="evenodd" clip-rule="evenodd" d="M77.4436 30.3016C76.9614 30.4251 76.8136 30.1704 76.6113 30.703C76.9225 31.5133 78.3149 30.7415 78.3071 30.2476C77.7626 29.854 77.9026 30.1859 77.4436 30.3016Z" fill="#3C3C3B"/>
<path id="Vector_51" fill-rule="evenodd" clip-rule="evenodd" d="M61.4364 27.1449C61.2341 26.8979 59.0872 25.8405 58.9316 26.9133C59.3206 27.1217 61.0397 27.3687 61.4364 27.1449Z" fill="#3C3C3B"/>
<path id="Vector_52" fill-rule="evenodd" clip-rule="evenodd" d="M74.7374 35.8976C74.2318 35.3959 71.1826 36.9935 70.9492 37.2868C71.5171 37.7036 74.3329 36.461 74.7374 35.8976Z" fill="#3C3C3B"/>
<path id="Vector_53" fill-rule="evenodd" clip-rule="evenodd" d="M79.3744 33.6893C80.5023 33.5118 80.4557 34.2527 81.1013 34.052C81.428 33.0795 78.9077 31.8215 77.6009 32.2383C76.1307 32.7014 77.0408 34.0597 79.3744 33.6893Z" fill="#3C3C3B"/>
<path id="Vector_54" fill-rule="evenodd" clip-rule="evenodd" d="M57.4846 23.4247C56.7223 23.3398 54.4898 24.073 54.3965 24.8757C55.0343 25.3619 57.1112 24.1116 57.4846 23.4247Z" fill="#3C3C3B"/>
<path id="Vector_55" fill-rule="evenodd" clip-rule="evenodd" d="M75.9036 24.5974C75.3513 24.4199 73.7644 24.5434 73.8811 25.5236C74.5034 25.7088 75.7947 25.2303 75.9036 24.5974Z" fill="#3C3C3B"/>
<path id="Vector_56" fill-rule="evenodd" clip-rule="evenodd" d="M62.5785 43.1128C62.6252 43.4833 62.8663 43.9232 63.2319 43.9001C63.0686 42.8967 63.3019 41.0985 64.2198 40.3807C62.5552 39.9639 62.454 42.1327 62.5785 43.1128Z" fill="#3C3C3B"/>
<path id="Vector_57" fill-rule="evenodd" clip-rule="evenodd" d="M57.4614 68.8139C57.6481 67.3089 56.5591 66.7455 56.668 68.1965C56.7614 69.3542 55.8201 69.8944 54.91 68.8988C54.7156 68.6904 54.6067 68.5361 54.2955 68.6133C53.8599 70.3189 57.1503 71.276 57.4614 68.8139Z" fill="#3C3C3B"/>
<path id="Vector_58" fill-rule="evenodd" clip-rule="evenodd" d="M50.9652 42.3652C50.4285 42.3652 50.2495 43.3145 50.1873 44.2638C50.024 46.6487 50.5062 46.2474 50.7707 48.1151C50.8329 48.5319 50.8874 48.9564 50.9496 49.3731C51.5097 51.2949 51.4552 48.0919 51.4397 47.8141C51.323 45.8306 50.8252 46.2705 51.0119 44.1867C51.0741 43.384 51.1208 42.5736 50.9652 42.3652Z" fill="#3C3C3B"/>
<path id="Vector_59" fill-rule="evenodd" clip-rule="evenodd" d="M54.9246 73.8457C54.6835 75.2504 52.7855 77.1335 52.0154 74.0618C51.0819 74.44 51.9765 76.8094 53.4933 76.6936C54.8313 76.5856 55.9203 74.8259 54.9246 73.8457Z" fill="#3C3C3B"/>
<path id="Vector_60" fill-rule="evenodd" clip-rule="evenodd" d="M52.1253 62.6236C51.8919 63.3491 50.624 64.3138 50.3906 61.983C50.1728 59.822 49.1227 63.0326 50.5773 64.0051C52.6386 65.3789 52.6931 60.8871 52.1253 62.6236Z" fill="#3C3C3B"/>
<path id="Vector_61" fill-rule="evenodd" clip-rule="evenodd" d="M58.6827 48.4688C57.6015 48.6771 57.267 50.8922 57.127 51.7257C57.6637 51.6177 57.8815 50.6221 58.0915 50.1513C58.3171 49.6496 59.025 48.9318 58.6827 48.4688Z" fill="#3C3C3B"/>
<path id="Vector_62" fill-rule="evenodd" clip-rule="evenodd" d="M59.1341 65.5569C59.0407 65.0089 58.963 64.4532 58.9474 63.9053C58.9396 63.5348 58.963 63.1643 59.033 62.8093C59.0641 62.6318 59.1185 62.462 59.1808 62.3076C59.2041 62.2459 59.243 62.1764 59.2819 62.1147C59.3675 62.3231 59.4608 62.4929 59.6164 62.7244C60.0753 63.3959 60.7209 63.8589 61.3977 64.1831C59.3752 62.6781 59.9664 58.7497 59.9664 58.7497C60.0131 57.7309 60.0131 56.7276 59.9897 55.7088C59.9897 55.7011 59.9897 55.6934 59.9975 55.6857C60.0131 55.9558 60.0286 56.2259 60.0598 56.496C60.2464 57.8467 60.8221 59.1279 61.6933 60.1235C59.523 55.5313 61.3977 52.174 61.3977 52.174C61.8722 51.4562 62.44 50.8002 63.0779 50.2291C64.1902 49.2257 65.4582 48.3999 66.7961 47.6976C66.3294 48.2147 65.9171 48.7858 65.6137 49.4187C65.2559 50.2059 65.0459 51.0703 65.1392 51.8961C65.147 51.927 65.1704 51.9579 65.2015 51.9656C65.2404 51.9733 65.287 51.9502 65.2948 51.9039C65.4504 51.1166 65.7926 50.4066 66.2827 49.82C66.7572 49.2257 67.3328 48.7164 67.9473 48.2687C68.5774 47.8211 69.3164 47.5664 69.9231 47.0802C70.421 46.702 70.9188 46.3084 71.4011 45.8221C71.4633 45.8067 71.5255 45.7835 71.58 45.7604C72.6301 45.498 73.7502 45.1738 74.777 44.7416C76.2861 44.1319 77.7252 43.3755 79.0475 42.4571C78.8297 42.9125 78.643 43.3755 78.4719 43.7846C78.1219 44.5795 77.7252 45.3668 77.2896 46.1231C77.0718 46.5013 76.8384 46.8718 76.5972 47.2191C76.4806 47.3889 76.3483 47.5587 76.2239 47.713C76.1072 47.8597 75.9438 48.014 75.8972 48.0372L75.7572 48.1066L75.6716 48.261C75.2826 48.9788 74.9637 49.6811 74.6681 50.4066C74.4037 51.0626 74.1859 51.7264 73.9914 52.4055C73.9681 52.4287 73.9447 52.4441 73.9136 52.4673C73.9136 52.4673 73.9058 52.4673 73.9058 52.475C73.7502 52.0737 73.5869 51.6723 73.4469 51.2633C73.3224 50.9005 73.198 50.5301 73.0891 50.1673C72.9957 49.7969 72.8635 49.4264 72.8946 49.0405C72.7701 49.4187 72.8012 49.82 72.8012 50.2136C72.8168 50.6073 72.8401 51.0009 72.8713 51.3868C72.9413 52.1663 73.0268 52.9458 73.1357 53.7253C73.1357 53.7407 73.1435 53.7485 73.1435 53.7639C73.0968 53.926 73.0502 54.088 73.0191 54.2424C72.879 54.9139 72.8401 55.5622 72.8324 56.2105C72.8324 56.7276 72.7001 57.2987 72.5134 57.839C72.3267 58.3792 72.0701 58.904 71.7589 59.3903L71.7122 59.4597C71.6267 59.1742 71.5178 58.8886 71.4089 58.6262C71.2766 58.3097 71.1677 57.9779 71.0744 57.646C70.8955 56.9745 70.771 56.2722 70.8099 55.5699C70.6777 56.2645 70.701 56.99 70.7943 57.7C70.841 58.0551 70.911 58.4101 70.9966 58.7651C71.0899 59.1124 71.1599 59.4288 71.2066 59.7762C71.3544 60.8875 71.2766 62.0375 71.2766 63.1875C71.2766 63.4345 71.2844 63.6737 71.2922 63.9207C71.2922 63.9284 71.2922 63.9361 71.2922 63.9438C71.3 64.1754 71.3 64.4069 71.3155 64.6385C71.2766 64.9858 71.2144 65.3639 71.1366 65.7267C71.0588 66.1049 70.9655 66.4753 70.8566 66.8458C70.6388 67.579 70.3665 68.2968 70.0087 68.9605L69.9776 69.0145L69.9698 69.0531C69.9154 69.2383 69.8765 69.4236 69.8376 69.6088C69.6198 69.2306 69.402 68.8756 69.1842 68.5206C68.873 68.0112 68.5619 67.5095 68.4141 66.9461C68.2585 66.3827 68.2118 65.7807 68.3363 65.1864C68.1185 65.7498 68.064 66.3827 68.1263 67.0001C68.1885 67.6253 68.4296 68.2196 68.663 68.783C68.8886 69.3464 69.1375 69.8944 69.3008 70.4346C69.4175 70.8282 69.5186 71.2604 69.5342 71.6541C69.5264 71.7467 69.5264 71.8393 69.5264 71.9319C69.5264 71.9859 69.5264 72.0477 69.5186 72.1017C69.5186 72.1094 69.5186 72.1403 69.5264 72.1866C69.5264 72.3487 69.5186 72.503 69.5264 72.6651C69.6198 73.8305 69.6275 74.9496 69.402 76.0224L69.3553 76.1999C68.5852 75.0963 67.4028 74.0929 67.4728 72.6111C66.4383 75.0963 68.6474 76.7788 69.4564 78.5076C69.5342 78.8009 69.6198 79.0864 69.7209 79.3643C69.7209 79.3797 69.7287 79.3951 69.7287 79.4029V79.3951C69.7598 79.48 69.7831 79.5649 69.822 79.6498C70.2498 80.7612 70.771 81.8109 71.2844 82.8605L71.2688 82.8219C71.4244 83.2387 71.6033 83.6169 71.8056 83.995C72.0078 84.3655 72.2412 84.7282 72.5057 85.0678C73.0113 85.7239 73.6491 86.3259 74.427 86.6963L75.4771 87.9929C75.6949 87.9929 75.9127 88.0006 76.1305 88.0006C75.7027 87.4295 75.2826 86.8584 74.8393 86.295L74.8004 86.2487L74.7381 86.2178C74.0536 85.8859 73.478 85.3225 73.0191 84.6897C72.5601 84.0568 72.1867 83.3236 71.9378 82.5981L71.93 82.5749L71.9223 82.5518C71.44 81.4944 70.9577 80.4448 70.5765 79.372C70.3899 78.8395 70.2265 78.2992 70.1487 77.7667C70.1098 77.5043 70.0865 77.2341 70.102 76.9871C70.1098 76.8637 70.1254 76.7325 70.1487 76.6398L70.2654 76.2154C70.5454 75.0114 70.5376 73.7765 70.4676 72.6342C70.4443 71.546 70.6077 70.4037 70.911 69.3695C71.3 68.6595 71.6033 67.9109 71.8445 67.1468C71.9689 66.7532 72.0778 66.3518 72.1634 65.9505C72.2567 65.5415 72.3268 65.1556 72.3812 64.7156L72.389 64.677V64.623C72.3423 63.8204 72.3579 63.01 72.4201 62.2073C72.4512 61.806 72.5057 61.4046 72.5679 61.0033C72.6301 60.6329 72.7001 60.247 72.7857 59.8996C73.1124 59.3671 73.3924 58.8037 73.6025 58.2171C73.8203 57.5843 73.9836 56.936 73.9914 56.2105C73.9992 55.6162 74.0381 55.0296 74.1547 54.4817C74.217 54.2115 74.2948 53.9491 74.4037 53.733C74.4581 53.625 74.5126 53.5246 74.5748 53.4552C74.6059 53.4166 74.637 53.3857 74.6604 53.3703L74.6837 53.3471L74.9871 53.2545L75.0726 52.9458C75.2671 52.2357 75.5082 51.5334 75.7805 50.8465C76.045 50.1982 76.3405 49.5499 76.6673 48.9479C76.8851 48.7858 77.0095 48.6315 77.1495 48.4771C77.3129 48.2842 77.4529 48.0912 77.5929 47.8983C77.8652 47.5124 78.1063 47.1187 78.3397 46.7174C78.8064 45.9225 79.2187 45.1044 79.592 44.2631C79.9576 43.391 80.2532 42.6578 80.7433 41.9863C81.21 41.3226 81.8323 40.7823 82.5479 40.327C83.2558 39.8716 84.0492 39.5089 84.8582 39.1924C85.675 38.876 86.4995 38.5827 87.3163 38.4747C88.1408 38.3512 88.9731 38.3898 89.7588 38.6059C90.5289 38.8142 91.3067 39.2465 91.8124 39.7481L91.8901 39.8253L91.9446 39.8562C92.2791 40.0491 92.6136 40.2343 93.057 40.3578C93.2825 40.4119 93.5392 40.4736 93.8971 40.3656C94.076 40.3115 94.2549 40.188 94.3716 40.0337C94.4882 39.8793 94.5505 39.725 94.5816 39.586C94.6905 39.0458 94.5816 38.6676 94.5038 38.2817C94.4104 37.9035 94.286 37.5562 94.1304 37.1935L94.1538 37.2475C93.7648 36.0126 93.1347 34.8627 92.3413 33.8516C91.5479 32.8406 90.5989 31.9684 89.5721 31.2275C88.5453 30.4866 87.433 29.8614 86.2662 29.3675C85.1771 28.9276 84.1348 28.3179 83.2558 27.5847C82.8669 26.8823 82.4313 26.1877 81.8479 25.5857C81.2489 24.9451 80.4244 24.5052 79.6154 24.2659C78.0441 23.8955 76.745 22.9616 75.3215 22.1204C74.9637 21.912 74.6137 21.6959 74.2014 21.5261C74.0069 21.4566 73.898 21.3949 73.758 21.2714L73.3146 20.8623C72.669 20.2912 71.9223 19.8899 71.1833 19.5348C70.4365 19.1798 69.6742 18.8711 68.9041 18.5855C68.134 18.3 67.3639 18.0144 66.5627 17.806C65.7615 17.5976 64.937 17.4279 64.0813 17.4664C63.2101 17.4819 62.4167 17.8832 61.6855 18.1533C60.9387 18.4389 60.1609 18.4929 59.3363 18.4466C58.5196 18.4466 57.6484 18.4312 56.8472 18.8325C56.4582 19.0409 56.1549 19.3033 55.8126 19.5117C55.4781 19.7201 55.1203 19.8899 54.7469 20.0288C53.969 20.2681 53.1912 20.6848 52.53 21.1633C51.1998 22.1358 50.0641 23.3244 49.0296 24.5978C47.9017 25.3928 47.0382 26.4964 46.4315 27.7081C46.1203 28.3179 45.8792 28.9584 45.6847 29.6145C45.498 30.2551 45.358 30.8956 45.2725 31.5748C44.6035 33.4889 44.1679 35.511 44.0979 37.5562C44.0123 39.6015 44.3235 41.7085 44.9847 43.638C45.0236 43.7692 45.0469 43.8386 45.078 43.9698C45.1091 44.101 45.1558 44.2554 45.2025 44.3866C45.2958 44.649 45.4047 44.8805 45.4981 45.1121C45.7003 45.5752 45.8948 46.0151 46.027 46.4627C46.1592 46.9026 46.2292 47.3348 46.1359 47.6976C46.0114 48.1761 45.9103 48.7241 45.8636 49.2412C45.7625 50.2831 45.7936 51.3636 46.0503 52.4055C46.2526 53.2777 46.2059 54.2656 46.1592 55.2689C46.1359 55.7705 46.1048 56.2722 46.1203 56.8202C46.1592 57.3836 46.2526 57.8698 46.3381 58.3792C46.5171 59.3748 46.7193 60.3627 46.9215 61.3506L47.5283 64.2989L47.8083 65.773C47.8861 66.2515 47.9795 66.784 47.995 67.1777C47.9406 68.2273 48.0806 69.2461 48.205 70.2494C48.2906 70.7665 48.3295 71.2296 48.4773 71.7853C48.6095 72.2483 48.7029 72.7268 48.7651 73.2054C48.8273 73.6839 48.8584 74.1778 48.8507 74.6486L48.7807 76.1536C48.7418 77.1647 48.7262 78.1757 48.7418 79.1868V79.2253L48.7495 79.2562C48.8896 79.8042 49.014 80.3599 49.0685 80.9079C49.1307 81.4713 49.1151 81.9498 48.8662 82.4669C48.8118 82.6135 48.7573 82.7833 48.7495 82.9685C48.7418 83.1461 48.7573 83.2618 48.7495 83.4085C48.7495 83.6863 48.7262 83.9642 48.6951 84.242C48.6251 84.7977 48.5084 85.3611 48.3762 85.9168L47.9561 87.5916C47.9094 87.7768 47.8783 87.9698 47.8394 88.155C47.9483 88.155 48.0572 88.1473 48.1661 88.1473C48.205 87.9929 48.2361 87.8308 48.2828 87.6765L48.7729 86.0171C48.9285 85.4614 49.0762 84.898 49.1696 84.3115C49.2163 84.0182 49.2552 83.7172 49.2629 83.4239C49.2707 83.285 49.2707 83.1152 49.2785 82.9994C49.2863 82.8991 49.3252 82.791 49.3796 82.6675C49.4963 82.4206 49.6208 82.0887 49.6596 81.7723C49.6985 81.4558 49.6908 81.1471 49.6674 80.8461C49.6208 80.2673 49.5041 79.7039 49.3796 79.1482C49.3952 78.1603 49.4341 77.1647 49.4963 76.1768L49.6052 74.6718C49.6285 74.1392 49.6052 73.6298 49.5585 73.105C49.5041 72.5879 49.4107 72.0708 49.2863 71.5614C49.1851 71.1524 49.1385 70.6044 49.0762 70.1259C48.9673 69.138 48.8429 68.1501 48.9051 67.1931C48.8973 66.5834 48.804 66.128 48.7262 65.6109L48.4617 64.1136L47.8861 61.15C47.6916 60.1621 47.4972 59.1819 47.3338 58.2017C47.256 57.7155 47.1705 57.2061 47.1471 56.7739C47.1471 56.3185 47.1782 55.8169 47.2016 55.3152C47.2483 54.3119 47.3338 53.2622 47.0849 52.1663C46.8515 51.2478 46.8126 50.2908 46.8982 49.3338C46.9449 48.8476 47.0149 48.4076 47.1394 47.906C47.2794 47.2808 47.1549 46.6865 46.9993 46.1694C46.836 45.6523 46.6182 45.1738 46.4159 44.7185C46.3148 44.4869 46.2137 44.2631 46.1359 44.0547C46.097 43.939 46.0659 43.8618 46.0426 43.746C46.0192 43.6302 45.9648 43.4604 45.9259 43.3524C45.2725 41.4769 44.9146 39.5552 44.9458 37.5794C44.9691 35.6113 45.3347 33.6509 45.9414 31.7678L45.957 31.7292L45.9648 31.6906C46.0192 31.0654 46.1437 30.4171 46.307 29.792C46.4782 29.1668 46.696 28.5494 46.9682 27.9628C47.5127 26.7897 48.3062 25.7169 49.3563 24.9528L49.3874 24.9297L49.4107 24.8988C50.3986 23.6485 51.5188 22.4522 52.8022 21.4952C53.4479 21.0167 54.1246 20.6385 54.9103 20.3838C55.2992 20.2295 55.6804 20.0519 56.0382 19.8204C56.396 19.5966 56.7071 19.3265 57.0416 19.1412C58.4262 18.408 60.2153 19.1721 61.8333 18.5006C62.6189 18.2074 63.3268 17.8601 64.1202 17.8523C64.9059 17.8215 65.6993 17.9835 66.4694 18.1919C68.0096 18.6396 69.542 19.257 70.981 19.9593C71.6967 20.3221 72.3968 20.7234 72.9646 21.2482L73.408 21.6727C73.5713 21.8271 73.8125 21.966 74.0069 22.0355C74.3414 22.1821 74.6915 22.3982 75.026 22.6066C75.7105 23.0388 76.3872 23.4941 77.1106 23.9109C77.4685 24.1193 77.8418 24.3122 78.2308 24.4898C78.6275 24.675 79.0553 24.7753 79.4131 24.9065C80.1599 25.1535 80.8133 25.524 81.3267 26.0874C81.8401 26.6431 82.2524 27.3222 82.618 28.0246L82.6491 28.0863L82.6957 28.1326C83.6759 28.9893 84.7649 29.6531 85.9395 30.1547C87.0285 30.641 88.0786 31.2584 89.0276 31.9762C90.9334 33.404 92.4736 35.3257 93.1503 37.5485L93.1581 37.5717L93.1736 37.6025C93.2903 37.8958 93.3992 38.22 93.477 38.5287C93.5548 38.8297 93.5937 39.1693 93.547 39.3236C93.5081 39.3236 93.4459 39.3159 93.3681 39.2928C93.127 39.2233 92.8314 39.0767 92.5591 38.9069C91.4468 37.8418 90.0155 37.3324 88.5764 37.2552L88.5842 37.2475C88.1953 37.1858 78.4252 35.7348 69.4097 40.8286C68.593 41.1837 66.2205 42.3259 66.1894 43.6765C66.1505 45.6601 67.4728 43.4296 67.4728 43.4296C67.4728 43.4296 67.7062 43.9698 67.8851 44.0239C68.0174 44.0624 69.682 42.9125 69.9931 41.8088C75.9127 37.9344 81.7623 37.6257 85.0449 37.8572C84.8427 37.9267 84.6482 38.0039 84.4459 38.0733C83.5825 38.4052 82.7269 38.7911 81.9101 39.2928C81.1011 39.7944 80.331 40.4504 79.7554 41.2454C79.6076 41.4383 79.4754 41.639 79.3587 41.8551C78.7675 42.187 78.1685 42.5034 77.5618 42.7813C76.5739 43.2443 75.5549 43.6534 74.5203 43.993C73.4702 44.3326 72.4512 44.5873 71.3466 44.8188C70.2421 45.0812 69.1764 45.4517 68.134 45.8762C66.0493 46.7406 64.0658 47.9523 62.5178 49.6271C60.9465 51.271 59.9042 53.4089 59.6319 55.6316V55.6548V55.6702C59.2974 60.9184 58.5585 62.4543 58.504 62.6549C58.3951 63.0563 58.3484 63.4653 58.3329 63.8667C58.294 64.6693 58.3562 65.4643 58.4651 66.2438C58.6829 67.8028 59.0796 69.331 59.593 70.8282C60.6665 73.7919 62.1367 76.6167 64.1124 79.1173C65.1003 80.2981 65.9949 81.533 66.8972 82.791C67.7996 84.0413 68.6941 85.3071 69.5031 86.596C69.7209 86.9201 69.8609 87.2288 70.1176 87.6147C70.1954 87.7228 70.281 87.8077 70.3665 87.8926C70.7632 87.8926 71.1599 87.8926 71.5489 87.9003C71.5489 87.9003 71.5489 87.9003 71.5411 87.8926C71.2688 87.6533 71.0122 87.3832 70.8488 87.1208C70.6854 86.8584 70.5065 86.4571 70.3121 86.1175C68.7408 83.4008 67.0684 80.7844 65.0848 78.3378C64.4469 77.5197 63.848 76.663 63.2801 75.7832C64.1358 76.2925 65.0926 76.7016 66.0727 76.7479C65.1237 76.5086 64.3225 75.9452 63.6302 75.3201C63.2801 75.0036 62.9612 74.6563 62.6578 74.2936C62.3622 73.9386 62.0667 73.5527 61.8333 73.1822C61.81 73.1513 61.7866 73.1127 61.7633 73.0896C61.7555 73.0819 61.74 73.0742 61.7322 73.0664C61.3043 72.2175 60.9076 71.3531 60.5732 70.4655C60.2542 69.686 59.9897 68.8833 59.7564 68.0652C59.9042 68.2119 60.0364 68.3739 60.192 68.5129C60.8999 69.138 61.7244 69.6474 62.6112 69.8867C62.5878 69.9175 59.383 67.5944 59.1341 65.5569Z" fill="#3C3C3B"/>
<path id="Vector_63" fill-rule="evenodd" clip-rule="evenodd" d="M71.0425 86.0707C71.0425 86.0707 70.9803 86.8965 72.6449 87.9616C73.0261 87.9616 73.3994 87.9693 73.7806 87.977C71.9759 86.1016 71.7581 85.3529 70.5758 83.8325C69.0978 81.9339 70.8947 85.5227 71.0425 86.0707Z" fill="#3C3C3B"/>
<path id="Vector_64" fill-rule="evenodd" clip-rule="evenodd" d="M64.5777 85.5391C64.8888 86.5887 64.2198 88.5336 62.6408 86.6659C62.3374 87.0055 62.703 87.5998 63.2631 87.9162C63.7298 87.9162 64.1887 87.9085 64.6554 87.9085C65.4567 87.3296 65.5578 85.8632 64.5777 85.5391Z" fill="#3C3C3B"/>
<path id="Vector_65" fill-rule="evenodd" clip-rule="evenodd" d="M54.3186 85.6771C53.6185 85.955 53.9452 87.3596 54.7931 88.0002C55.4232 87.9925 56.0688 87.9848 56.6989 87.9771C57.539 87.3982 57.9823 86.202 57.2278 85.4688C56.9867 86.8657 55.0887 88.7489 54.3186 85.6771Z" fill="#3C3C3B"/>
<path id="Vector_66" fill-rule="evenodd" clip-rule="evenodd" d="M54.125 33.9126C54.1561 32.971 54.1639 32.7935 54.2805 32.3072C55.2218 41.3604 68.5078 36.9225 66.1741 32.3535C64.6495 29.359 60.9469 27.2134 57.5865 28.2862C55.1984 29.0425 53.0593 31.929 54.125 33.9126ZM61.6158 29.9301C61.9348 29.9301 62.1915 30.1848 62.1915 30.5012C62.1915 30.8177 61.9348 31.0801 61.6158 31.0801C61.2969 31.0801 61.0402 30.8254 61.0402 30.5012C61.0402 30.1925 61.2969 29.9301 61.6158 29.9301ZM56.6453 32.3998C56.9797 32.8552 56.723 33.5961 56.8708 34.1364C57.0264 34.7075 57.3376 34.8387 57.6565 35.2786C55.9685 35.3249 55.6963 32.5542 56.6453 32.3998Z" fill="#3C3C3B"/>
</g>
</g>
</g>
</g>
<defs>
<linearGradient id="paint0_linear_351_315" x1="65.5252" y1="87.5388" x2="67.0134" y2="120.162" gradientUnits="userSpaceOnUse">
<stop stop-color="#7F1810"/>
<stop offset="1" stop-color="#E30613"/>
</linearGradient>
<linearGradient id="paint1_linear_351_315" x1="95.1504" y1="111.545" x2="127.821" y2="111.545" gradientUnits="userSpaceOnUse">
<stop stop-color="#7F1810"/>
<stop offset="1" stop-color="#E30613"/>
</linearGradient>
<linearGradient id="paint2_linear_351_315" x1="3.88164" y1="111.545" x2="36.5521" y2="111.545" gradientUnits="userSpaceOnUse">
<stop stop-color="#7F1810"/>
<stop offset="1" stop-color="#E30613"/>
</linearGradient>
<linearGradient id="paint3_linear_351_315" x1="45.5694" y1="93.5039" x2="84.3238" y2="104.922" gradientUnits="userSpaceOnUse">
<stop stop-color="#F7B000"/>
<stop offset="0.5697" stop-color="#F5D86C"/>
<stop offset="0.7576" stop-color="#FFEDB7"/>
<stop offset="0.897" stop-color="#F7B000"/>
</linearGradient>
<linearGradient id="paint4_linear_351_315" x1="45.5229" y1="93.0797" x2="84.3921" y2="104.532" gradientUnits="userSpaceOnUse">
<stop stop-color="#F7B000"/>
<stop offset="0.5697" stop-color="#F5D86C"/>
<stop offset="0.7576" stop-color="#FFEDB7"/>
<stop offset="0.897" stop-color="#F7B000"/>
</linearGradient>
<linearGradient id="paint5_linear_351_315" x1="46.1214" y1="91.5994" x2="84.5873" y2="102.933" gradientUnits="userSpaceOnUse">
<stop stop-color="#F7B000"/>
<stop offset="0.5697" stop-color="#F5D86C"/>
<stop offset="0.7576" stop-color="#FFEDB7"/>
<stop offset="0.897" stop-color="#F7B000"/>
</linearGradient>
<linearGradient id="paint6_linear_351_315" x1="46.7668" y1="90.0919" x2="84.952" y2="101.343" gradientUnits="userSpaceOnUse">
<stop stop-color="#F7B000"/>
<stop offset="0.5697" stop-color="#F5D86C"/>
<stop offset="0.7576" stop-color="#FFEDB7"/>
<stop offset="0.897" stop-color="#F7B000"/>
</linearGradient>
<linearGradient id="paint7_linear_351_315" x1="47.4304" y1="86.8095" x2="85.9759" y2="98.1663" gradientUnits="userSpaceOnUse">
<stop stop-color="#F7B000"/>
<stop offset="0.5697" stop-color="#F5D86C"/>
<stop offset="0.7576" stop-color="#FFEDB7"/>
<stop offset="0.897" stop-color="#F7B000"/>
</linearGradient>
<linearGradient id="paint8_linear_351_315" x1="29.6432" y1="59.8855" x2="34.0677" y2="93.5319" gradientUnits="userSpaceOnUse">
<stop stop-color="white"/>
<stop offset="1" stop-color="#808080"/>
</linearGradient>
<linearGradient id="paint9_linear_351_315" x1="90.9256" y1="70.4585" x2="92.9427" y2="85.7984" gradientUnits="userSpaceOnUse">
<stop stop-color="white"/>
<stop offset="1" stop-color="#808080"/>
</linearGradient>
<linearGradient id="paint10_linear_351_315" x1="93.3803" y1="49.0649" x2="98.4663" y2="87.7429" gradientUnits="userSpaceOnUse">
<stop stop-color="white"/>
<stop offset="1" stop-color="#808080"/>
</linearGradient>
<linearGradient id="paint11_linear_351_315" x1="41.6338" y1="58.802" x2="43.5318" y2="73.2353" gradientUnits="userSpaceOnUse">
<stop stop-color="white"/>
<stop offset="1" stop-color="#808080"/>
</linearGradient>
<linearGradient id="paint12_linear_351_315" x1="37.6975" y1="61.3578" x2="40.4507" y2="82.2958" gradientUnits="userSpaceOnUse">
<stop stop-color="white"/>
<stop offset="1" stop-color="#808080"/>
</linearGradient>
<linearGradient id="paint13_linear_351_315" x1="35.6865" y1="71.0013" x2="37.8611" y2="87.5392" gradientUnits="userSpaceOnUse">
<stop stop-color="white"/>
<stop offset="1" stop-color="#808080"/>
</linearGradient>
<linearGradient id="paint14_linear_351_315" x1="75.7646" y1="52.6289" x2="79.3175" y2="79.6485" gradientUnits="userSpaceOnUse">
<stop stop-color="white"/>
<stop offset="1" stop-color="#808080"/>
</linearGradient>
<linearGradient id="paint15_linear_351_315" x1="80.9595" y1="53.2332" x2="84.8238" y2="82.6195" gradientUnits="userSpaceOnUse">
<stop stop-color="white"/>
<stop offset="1" stop-color="#808080"/>
</linearGradient>
<linearGradient id="paint16_linear_351_315" x1="85.1322" y1="54.5172" x2="89.0411" y2="84.2433" gradientUnits="userSpaceOnUse">
<stop stop-color="white"/>
<stop offset="1" stop-color="#808080"/>
</linearGradient>
<linearGradient id="paint17_linear_351_315" x1="47.6615" y1="11.4274" x2="50.3426" y2="11.1398" gradientUnits="userSpaceOnUse">
<stop offset="0.1394" stop-color="#D0930D"/>
<stop offset="0.4848" stop-color="#F5D86C"/>
<stop offset="0.7576" stop-color="#EDD8B2"/>
<stop offset="1" stop-color="#F7B000"/>
</linearGradient>
<linearGradient id="paint18_linear_351_315" x1="57.0662" y1="7.73728" x2="59.5504" y2="7.47089" gradientUnits="userSpaceOnUse">
<stop offset="0.1394" stop-color="#D0930D"/>
<stop offset="0.4848" stop-color="#F5D86C"/>
<stop offset="0.7576" stop-color="#EDD8B2"/>
<stop offset="1" stop-color="#F7B000"/>
</linearGradient>
<linearGradient id="paint19_linear_351_315" x1="42.6679" y1="13.0946" x2="63.8295" y2="13.0946" gradientUnits="userSpaceOnUse">
<stop offset="0.1394" stop-color="#D0930D"/>
<stop offset="0.5697" stop-color="#F5D86C"/>
<stop offset="0.7576" stop-color="#FFEDB7"/>
<stop offset="0.9758" stop-color="#F7B000"/>
</linearGradient>
<linearGradient id="paint20_linear_351_315" x1="62.3511" y1="40.1919" x2="94.0125" y2="40.1919" gradientUnits="userSpaceOnUse">
<stop stop-color="#F7B000"/>
<stop offset="1" stop-color="#EDD8B2"/>
</linearGradient>
<linearGradient id="paint21_linear_351_315" x1="88.0769" y1="73.1678" x2="88.3594" y2="88.9223" gradientUnits="userSpaceOnUse">
<stop stop-color="#F7B000"/>
<stop offset="1" stop-color="#EDD8B2"/>
</linearGradient>
<linearGradient id="paint22_linear_351_315" x1="37.0731" y1="78.1963" x2="37.2601" y2="88.6271" gradientUnits="userSpaceOnUse">
<stop stop-color="#F7B000"/>
<stop offset="1" stop-color="#EDD8B2"/>
</linearGradient>
<linearGradient id="paint23_linear_351_315" x1="30.0662" y1="84.9893" x2="47.94" y2="84.9893" gradientUnits="userSpaceOnUse">
<stop stop-color="white"/>
<stop offset="1" stop-color="white"/>
</linearGradient>
<linearGradient id="paint24_linear_351_315" x1="71.5037" y1="82.6912" x2="102.767" y2="82.6912" gradientUnits="userSpaceOnUse">
<stop stop-color="white"/>
<stop offset="1" stop-color="white"/>
</linearGradient>
</defs>
</svg>
