<svg width="97" height="100" viewBox="0 0 97 100" fill="none" xmlns="http://www.w3.org/2000/svg">
<path d="M73.354 96.6348C74.2061 96.6348 74.897 97.3239 74.897 98.1739C74.897 99.0239 74.2061 99.7131 73.354 99.7131H54.7618C53.9097 99.7131 53.2188 99.0239 53.2188 98.1739C53.2188 97.3239 53.9097 96.6348 54.7618 96.6348H73.354Z" fill="#DF7E81"/>
<path d="M96.5885 61.0847C96.5885 68.4179 92.714 75.0292 86.45 79.7898C80.3033 84.4613 71.8371 87.3507 62.5092 87.3507C53.1812 87.3507 44.715 84.4613 38.5682 79.7898C32.3042 75.0293 28.4297 68.418 28.4297 61.0847C28.4297 53.7514 32.3041 47.14 38.5681 42.3793C44.715 37.7078 53.1812 34.8184 62.5092 34.8184C71.8371 34.8184 80.3033 37.7078 86.4501 42.3794C92.714 47.1399 96.5885 53.7512 96.5885 61.0847ZM84.5814 77.3486C90.0931 73.1598 93.5024 67.4073 93.5024 61.0847C93.5024 54.7619 90.0931 49.0094 84.5815 44.8206C78.9527 40.5427 71.1505 37.8968 62.5093 37.8968C53.8679 37.8968 46.0657 40.5427 40.4369 44.8205C34.9253 49.0093 31.5161 54.7618 31.5161 61.0847C31.5161 67.4073 34.9253 73.1598 40.437 77.3486C46.0657 81.6263 53.8679 84.2723 62.5093 84.2723C71.1505 84.2723 78.9529 81.6262 84.5814 77.3486Z" fill="#DF7E81"/>
<path d="M67.1514 36.3582C67.1514 37.2082 66.4605 37.8973 65.6083 37.8973C64.7562 37.8973 64.0653 37.2082 64.0653 36.3582C64.0653 33.0854 62.407 30.2809 60.6732 27.3489C58.5467 23.7525 56.3184 19.9844 56.3184 14.7221C56.3184 10.8832 57.8786 7.40727 60.4009 4.89158C62.9231 2.37567 66.4077 0.819336 70.2563 0.819336C74.105 0.819336 77.5896 2.37567 80.1118 4.89147C82.634 7.40738 84.1942 10.8831 84.1942 14.7221V20.9038C84.1942 21.7538 83.5033 22.443 82.6512 22.443C81.799 22.443 81.1081 21.7538 81.1081 20.9038V14.7221C81.1081 11.7329 79.8934 9.02664 77.9298 7.06803C75.9661 5.10943 73.2531 3.8978 70.2564 3.8978C67.2597 3.8978 64.5465 5.10943 62.5831 7.06814C60.6194 9.02675 59.4047 11.7331 59.4047 14.7221C59.4047 19.1547 61.4109 22.5475 63.3256 25.7856C65.2811 29.0926 67.1515 32.2559 67.1515 36.3582H67.1514Z" fill="#DF7E81"/>
<path d="M96.5897 61.0859C96.5897 61.9359 95.8988 62.6251 95.0467 62.6251C94.1945 62.6251 93.5036 61.9359 93.5036 61.0859C93.5036 50.4824 85.9752 43.3495 79.3562 37.0783C73.7321 31.7495 68.7139 26.995 68.7139 20.9045C68.7139 18.7724 69.5804 16.8421 70.981 15.4451C72.3816 14.0479 74.317 13.1836 76.4543 13.1836C78.5916 13.1836 80.5269 14.0478 81.9277 15.4449C83.3284 16.8422 84.1948 18.7726 84.1948 20.9045C84.1948 21.7545 83.5038 22.4437 82.6517 22.4437C81.7995 22.4437 81.1086 21.7545 81.1086 20.9045C81.1086 19.6223 80.5877 18.4615 79.7456 17.6215C78.9034 16.7816 77.7398 16.2619 76.4543 16.2619C75.169 16.2619 74.0051 16.7816 73.1631 17.6216C72.3209 18.4616 71.8 19.6223 71.8 20.9045C71.8 25.6843 76.3633 30.0079 81.4778 34.8538C88.548 41.5526 96.5896 49.1718 96.5896 61.0859H96.5897Z" fill="#DF7E81"/>
<path d="M74.9102 11.631C74.9102 10.781 75.6011 10.0918 76.4532 10.0918C77.3054 10.0918 77.9963 10.781 77.9963 11.631V20.9035C77.9963 21.7535 77.3054 22.4427 76.4532 22.4427C75.6011 22.4427 74.9102 21.7535 74.9102 20.9035V11.631Z" fill="#DF7E81"/>
<path d="M81.0948 61.0855C81.0948 64.2158 79.6406 67.0331 76.9821 69.0219C74.6009 70.8033 71.2567 71.8971 67.1569 71.8971C60.3142 71.8971 56.1977 69.2994 52.219 66.7884C48.8661 64.6725 45.6212 62.6247 40.818 62.6247H36.17C35.3179 62.6247 34.627 61.9355 34.627 61.0855C34.627 55.4962 37.2621 50.4482 41.5225 46.8056C45.7172 43.2192 51.4948 41.001 57.8608 41.001C64.2271 41.001 70.0047 43.2193 74.1992 46.8057C78.4595 50.4481 81.0948 55.4961 81.0948 61.0855ZM75.1374 66.5688C76.9935 65.1805 78.0087 63.2338 78.0087 61.0855C78.0087 56.4327 75.7881 52.2078 72.1981 49.1384C68.5424 46.0127 63.4743 44.0793 57.8608 44.0793C52.2474 44.0793 47.1793 46.0127 43.5236 49.1382C40.3338 51.8656 38.2254 55.5051 37.7949 59.5464H40.818C46.4984 59.5464 50.118 61.8307 53.8584 64.1911C57.4625 66.4656 61.1914 68.8188 67.1569 68.8188C70.5652 68.8188 73.2741 67.9628 75.1374 66.5687V66.5688Z" fill="#DF7E81"/>
<path d="M71.8057 8.54052C71.8057 9.39402 71.112 10.0859 70.2563 10.0859C69.4008 10.0859 68.707 9.39402 68.707 8.54052C68.707 7.68713 69.4008 6.99512 70.2563 6.99512C71.112 6.99512 71.8057 7.68713 71.8057 8.54052Z" fill="#DF7E81"/>
<path d="M10.3228 51.551C11.1749 51.551 11.8658 52.2402 11.8658 53.0902C11.8658 53.9402 11.1749 54.6294 10.3228 54.6294C8.41999 54.6294 6.6974 55.3986 5.45072 56.642C4.20403 57.8857 3.43294 59.6039 3.43294 61.5018C3.43294 63.3996 4.20414 65.1178 5.45083 66.3613C6.69751 67.6048 8.4201 68.374 10.3228 68.374C12.5498 68.374 16.8186 66.5706 22.2323 64.2837C24.1814 63.4604 26.27 62.5781 28.3022 61.759C29.0911 61.4436 29.9872 61.8257 30.3034 62.6127C30.6196 63.3996 30.2365 64.2935 29.4475 64.6089C27.2149 65.5088 25.2546 66.3367 23.4257 67.1094C17.6778 69.5376 13.1451 71.4524 10.3228 71.4524C7.56817 71.4524 5.07404 70.3385 3.26875 68.5378C1.46335 66.7371 0.34668 64.2494 0.34668 61.5017C0.34668 58.754 1.46335 56.2663 3.26864 54.4654C5.07382 52.6647 7.56795 51.5508 10.3228 51.5508V51.551Z" fill="#DF7E81"/>
<path d="M14.4839 67.3966C15.2795 67.1011 16.1648 67.5049 16.4611 68.2985C16.7574 69.092 16.3525 69.9751 15.5569 70.2707C13.1751 71.1544 11.8159 72.2743 11.0643 73.4216C10.3555 74.5034 10.1789 75.6555 10.1789 76.6419C10.1789 76.6824 10.1774 76.7226 10.1742 76.7622C10.2048 78.1494 10.7833 79.4122 11.7032 80.3331C12.6268 81.2581 13.9011 81.8324 15.312 81.8324C15.3523 81.8324 15.3924 81.8339 15.432 81.837C16.1722 81.8197 17.181 81.6244 18.3249 81.1819C19.3185 80.7976 20.3902 80.2315 21.4467 79.4413C22.1258 78.9333 23.0895 79.0705 23.5987 79.7478C24.1079 80.4252 23.9704 81.3864 23.2913 81.8944C21.9884 82.8689 20.6639 83.568 19.434 84.0438C17.9277 84.6266 16.5304 84.8825 15.4637 84.9033C15.4138 84.9082 15.3631 84.9108 15.312 84.9108C13.053 84.9108 11.0081 83.9865 9.52119 82.4977C8.05873 81.0335 7.1413 79.0163 7.10022 76.7939C7.09529 76.744 7.09277 76.6932 7.09277 76.6419C7.09277 75.175 7.37022 73.4387 8.48437 71.7381C9.55558 70.1026 11.3889 68.545 14.4838 67.3966H14.4839Z" fill="#DF7E81"/>
<path d="M43.8556 39.2386C44.0719 40.0588 43.5807 40.8987 42.7585 41.1145C41.9362 41.3303 41.0942 40.8404 40.8778 40.0202L34.1271 14.7674L34.1257 14.7677C33.3549 11.6926 32.5396 9.81583 31.4514 8.7719C30.4747 7.83505 29.1156 7.52258 27.1877 7.52258C25.285 7.52258 23.5625 8.29184 22.3158 9.53526C21.0692 10.7788 20.2981 12.497 20.2981 14.3949C20.2981 16.2597 21.5111 17.821 22.716 19.3719C22.9029 19.6126 23.0893 19.8527 23.3501 20.1992C28.4393 26.9625 38.757 42.6329 38.7868 42.6781C39.2527 43.3855 39.0558 44.3358 38.3468 44.8006C37.6377 45.2654 36.685 45.069 36.2189 44.3618C36.1894 44.3168 25.936 28.7442 20.8908 22.0392C20.7441 21.8441 20.5123 21.5457 20.281 21.248C18.7517 19.2794 17.2119 17.2976 17.2119 14.3951C17.2119 11.6475 18.3286 9.15965 20.1339 7.35892C21.9391 5.55829 24.4331 4.44434 27.1878 4.44434C29.9172 4.44434 31.9317 4.97324 33.5852 6.55961C35.127 8.03881 36.1997 10.3684 37.1156 14.0222L37.1145 14.0226L43.8557 39.2388L43.8556 39.2386Z" fill="#DF7E81"/>
<path d="M24.4853 21.7308C24.9945 22.4082 24.8571 23.3694 24.178 23.8774C23.4989 24.3853 22.5352 24.2482 22.026 23.5708C21.2214 22.5022 20.3583 21.8511 19.5114 21.4717C18.6806 21.0995 17.835 20.9807 17.0685 20.9807C15.166 20.9807 13.4434 21.75 12.1966 22.9934C10.95 24.2369 10.1788 25.9551 10.1788 27.8529C10.1788 29.2774 10.6106 30.6553 11.3497 31.8575C12.1292 33.1253 13.2449 34.196 14.5555 34.9237L34.1239 46.604C34.853 47.0391 35.0905 47.9813 34.6544 48.7085C34.2182 49.4357 33.2736 49.6727 32.5446 49.2376L13.0275 37.5868C11.2673 36.6019 9.76938 35.1607 8.72183 33.4569C7.69344 31.7844 7.09277 29.8567 7.09277 27.853C7.09277 25.1054 8.20955 22.6177 10.0147 20.8169C11.8201 19.0163 14.3143 17.9023 17.0687 17.9023C18.1974 17.9023 19.4666 18.0879 20.7654 18.67C22.0487 19.2449 23.3318 20.1989 24.4855 21.7309L24.4853 21.7308Z" fill="#DF7E81"/>
<path d="M31.3261 72.0508C32.0052 71.5429 32.9689 71.68 33.4781 72.3574C33.9873 73.0348 33.8498 73.996 33.1707 74.5039L19.767 84.5314C19.4133 84.8757 19.1091 85.2276 18.9033 85.601C18.7219 85.9301 18.6124 86.3002 18.6124 86.7357C18.6124 87.7044 19.0061 88.5815 19.6424 89.2161C20.2787 89.8508 21.1581 90.2434 22.1291 90.2434C22.4296 90.2434 22.771 90.1324 23.1069 89.9648C23.5973 89.7203 24.0626 89.3597 24.4112 89.0119L35.5425 77.9088C36.145 77.3078 37.1221 77.3078 37.7246 77.9088C38.3271 78.5098 38.3271 79.4844 37.7246 80.0854L26.5933 91.1885C26.0574 91.723 25.3104 92.2932 24.4813 92.7066C23.7394 93.0767 22.9307 93.3218 22.1292 93.3218C20.3062 93.3218 18.6552 92.5844 17.4605 91.3927C16.2656 90.2008 15.5264 88.5541 15.5264 86.7357C15.5264 85.741 15.7809 84.8876 16.2031 84.1219C16.5897 83.4202 17.1078 82.8219 17.6893 82.2649L17.6905 82.2661C17.7352 82.2233 17.783 82.1826 17.8339 82.1446L31.3262 72.0508H31.3261Z" fill="#DF7E81"/>
<path d="M30.5604 51.5498C31.4125 51.5498 32.1034 52.239 32.1034 53.089C32.1034 53.939 31.4125 54.6281 30.5604 54.6281H10.3216V54.6226L10.248 54.623V54.6291C7.72532 54.6291 5.6554 53.3158 4.21606 51.384C2.86729 49.5738 2.08371 47.1885 2.03989 44.8784C2.03486 44.6026 2.03223 44.8192 2.03223 44.6773C2.03223 41.9297 3.1489 39.4419 4.95419 37.6411C6.75937 35.8405 9.25339 34.7266 12.0081 34.7266C13.1432 34.7266 14.3075 35.0768 15.3293 35.5196C16.2817 35.9323 17.1016 36.4212 17.6299 36.7585C18.3456 37.2167 18.5533 38.167 18.094 38.881C17.6346 39.5948 16.6819 39.8021 15.9661 39.3439C15.526 39.0629 14.8502 38.6586 14.0997 38.3335C13.4189 38.0384 12.672 37.805 12.0081 37.805C10.1054 37.805 8.38295 38.5743 7.13626 39.8177C5.88958 41.0612 5.11848 42.7795 5.11848 44.6773C5.11848 44.9369 5.11125 44.6729 5.1141 44.8304C5.14597 46.515 5.71258 48.2478 6.68751 49.5563C7.57209 50.7436 8.80015 51.5507 10.248 51.5507V51.5566L10.3216 51.5559V51.5497H30.5604V51.5498Z" fill="#DF7E81"/>
<path d="M59.417 85.8116C59.417 84.9616 60.1079 84.2725 60.9601 84.2725C61.8122 84.2725 62.5031 84.9616 62.5031 85.8116V98.1752C62.5031 99.0252 61.8122 99.7144 60.9601 99.7144C60.1079 99.7144 59.417 99.0252 59.417 98.1752V85.8116Z" fill="#DF7E81"/>
</svg>
